<?xml version="1.0" encoding="utf-8"?>
<!-- Generator: Adobe Illustrator 21.1.0, SVG Export Plug-In . SVG Version: 6.00 Build 0)  -->
<svg version="1.1" id="Camada_1" xmlns="http://www.w3.org/2000/svg" xmlns:xlink="http://www.w3.org/1999/xlink" x="0px" y="0px"
	 viewBox="0 0 1280 487" style="enable-background:new 0 0 1280 487;" xml:space="preserve">
<style type="text/css">
	.st0{clip-path:url(#SVGID_2_);fill:#2B2A55;}
	.st1{opacity:0.3;clip-path:url(#SVGID_2_);}
	.st2{opacity:0.3;}
	.st3{clip-path:url(#SVGID_4_);}
	.st4{fill:#305495;}
	.st5{fill:#8499B5;}
	.st6{fill:#10141B;}
	.st7{fill:#2F323B;}
	.st8{fill:#BFDBF5;}
	.st9{fill:#2A4982;}
	.st10{fill:#F4F7FD;}
	.st11{fill:#597FBE;}
	.st12{fill:#141823;}
	.st13{fill:#75A1D6;}
	.st14{fill:#191D2D;}
	.st15{fill:#FFFFFE;}
	.st16{fill:#557ABB;}
	.st17{fill:#252E4A;}
	.st18{fill:#9BBEE7;}
	.st19{fill:#F8F9FC;}
	.st20{fill:#263252;}
	.st21{fill:#273D5F;}
	.st22{fill:#1B2233;}
	.st23{fill:#1D2335;}
	.st24{fill:#21293F;}
	.st25{fill:#CCE2F7;}
	.st26{fill:#C7DEF5;}
	.st27{fill:#2B457B;}
	.st28{fill:#1C2234;}
	.st29{fill:#BAD5F2;}
	.st30{fill:#4C75B8;}
	.st31{fill:#E6EFFA;}
	.st32{fill:#B2CDED;}
	.st33{fill:#1E2438;}
	.st34{fill:#30539B;}
	.st35{fill:#29395F;}
	.st36{fill:#242E49;}
	.st37{fill:#2A477D;}
	.st38{fill:#2F4F9A;}
	.st39{fill:#2A4880;}
	.st40{fill:#253351;}
	.st41{fill:#5E88C5;}
	.st42{fill:#3861A7;}
	.st43{fill:#222B44;}
	.st44{fill:#2D4E90;}
	.st45{fill:#5578BA;}
	.st46{fill:#F4F8FD;}
	.st47{fill:#F3F9FC;}
	.st48{fill:#E3EDFA;}
	.st49{fill:#3F62A9;}
	.st50{fill:#5980BF;}
	.st51{fill:#2B4170;}
	.st52{fill:#2C4E8B;}
	.st53{fill:#4566AB;}
	.st54{fill:#FEFFFF;}
	.st55{fill:#25314D;}
	.st56{fill:#345AA2;}
	.st57{fill:#232C46;}
	.st58{fill:#C9E1F8;}
	.st59{fill:#466AAF;}
	.st60{fill:#2B4377;}
	.st61{fill:#222A42;}
	.st62{fill:#5A80BF;}
	.st63{fill:#2B4273;}
	.st64{fill:#6E98D0;}
	.st65{fill:#222B43;}
	.st66{fill:#98BDE6;}
	.st67{fill:#9AC0E9;}
	.st68{fill:#293A61;}
	.st69{fill:#4B70B4;}
	.st70{fill:#5073B6;}
	.st71{fill:#648BC7;}
	.st72{fill:#537BBC;}
	.st73{fill:#252F4A;}
	.st74{fill:#2C3E6B;}
	.st75{fill:#2A3A61;}
	.st76{fill:#B8D7F4;}
	.st77{fill:#2C4070;}
	.st78{fill:#779FD4;}
	.st79{fill:#6690CB;}
	.st80{fill:#20283D;}
	.st81{fill:#242D48;}
	.st82{fill:#E9F3FD;}
	.st83{fill:#557CBC;}
	.st84{fill:#385074;}
	.st85{fill:#2A467B;}
	.st86{fill:#B6D2F0;}
	.st87{fill:#2B467E;}
	.st88{fill:#1D2437;}
	.st89{fill:#BFDAF4;}
	.st90{fill:#25314E;}
	.st91{fill:#2E518D;}
	.st92{fill:#F0F7FE;}
	.st93{fill:#E4F0FB;}
	.st94{fill:#77A3D8;}
	.st95{fill:#87B2E1;}
	.st96{fill:#283759;}
	.st97{fill:#2B4884;}
	.st98{fill:#273454;}
	.st99{fill:#4D70B3;}
	.st100{fill:#86B0E0;}
	.st101{fill:#C4DAF3;}
	.st102{fill:#6691CB;}
	.st103{fill:#3F66AC;}
	.st104{fill:#BBD6F2;}
	.st105{fill:#2B406D;}
	.st106{fill:#2A3F69;}
	.st107{fill:#232B45;}
	.st108{fill:#85888F;}
	.st109{fill:#2E5190;}
	.st110{fill:#2A3D66;}
	.st111{fill:#1F283C;}
	.st112{fill:#2A3E68;}
	.st113{fill:#1C2535;}
	.st114{opacity:0.2;}
	.st115{fill:#FFFFFF;}
	.st116{font-family:'Streamster';}
	.st117{font-size:110.6465px;}
</style>
<g>
	<defs>
		<rect id="SVGID_1_" y="0" width="1280" height="487"/>
	</defs>
	<clipPath id="SVGID_2_">
		<use xlink:href="#SVGID_1_"  style="overflow:visible;"/>
	</clipPath>
	<rect x="-13.9" y="-209.1" class="st0" width="1322.5" height="1200.1"/>
	<g class="st1">
		<defs>
			<rect id="SVGID_3_" x="-13.9" y="-209.5" class="st2" width="1322.5" height="1200.5"/>
		</defs>
		<clipPath id="SVGID_4_">
			<use xlink:href="#SVGID_3_"  style="overflow:visible;"/>
		</clipPath>
		<g class="st3">
			<polygon class="st4" points="-65.6,131 -65.6,217.3 -21.8,213 			"/>
			<polygon class="st5" points="-65.6,217.3 -65.6,303.6 -21.8,213 			"/>
			<polygon class="st6" points="-65.6,-214.1 -65.6,-299.5 -65.6,-299.5 			"/>
			<polygon class="st7" points="-65.6,1079.3 -65.6,1081 28.5,1081 			"/>
			<polygon class="st8" points="-65.6,389.9 -65.6,476.2 46.6,380.4 			"/>
			<polygon class="st9" points="-65.6,303.6 -65.6,389.9 46.6,380.4 			"/>
			<polygon class="st10" points="-65.6,678.1 -65.6,734.2 38,744.5 			"/>
			<polygon class="st11" points="-65.6,734.2 -65.6,820.4 38,744.5 			"/>
			<polygon class="st7" points="-65.6,993 -65.6,1079.3 28.5,1081 			"/>
			<polygon class="st12" points="-65.6,-299.5 -65.6,-214.1 28.5,-299.5 			"/>
			<polygon class="st13" points="-65.6,647.9 -65.6,678.1 38,744.5 			"/>
			<polygon class="st14" points="-65.6,906.7 -65.6,993 127.4,1030.1 			"/>
			<polygon class="st15" points="-65.6,993 28.5,1081 127.4,1030.1 			"/>
			<polygon class="st7" points="28.5,1081 123.6,1081 127.4,1030.1 			"/>
			<polygon class="st16" points="46.6,380.4 -65.6,476.2 110.3,414 			"/>
			<polygon class="st17" points="-21.8,213 -65.6,303.6 46.6,380.4 			"/>
			<polygon class="st18" points="110.3,414 -65.6,561.6 175.9,477 			"/>
			<polygon class="st19" points="-65.6,476.2 -65.6,561.6 110.3,414 			"/>
			<polygon class="st20" points="-65.6,820.4 -65.6,906.7 38,744.5 			"/>
			<polygon class="st21" points="-65.6,-127.8 -65.6,-41.6 207.2,-75.2 			"/>
			<polygon class="st22" points="28.5,-299.5 -65.6,-299.5 207.2,-75.2 			"/>
			<polygon class="st22" points="-65.6,-299.5 28.5,-299.5 207.2,-75.2 			"/>
			<polygon class="st7" points="127.4,1030.1 123.6,1081 218.6,1081 			"/>
			<polygon class="st23" points="123.6,-299.5 -65.6,-127.8 207.2,-75.2 			"/>
			<polygon class="st16" points="-65.6,-41.6 -65.6,44.7 207.2,-75.2 			"/>
			<polygon class="st24" points="-65.6,-299.5 -65.6,-299.5 207.2,-75.2 			"/>
			<polygon class="st25" points="-65.6,561.6 38,744.5 203.4,497.7 			"/>
			<polygon class="st26" points="175.9,477 -65.6,561.6 203.4,497.7 			"/>
			<polygon class="st27" points="38,744.5 -65.6,906.7 127.4,1030.1 			"/>
			<polygon class="st28" points="-65.6,-214.1 -65.6,-127.8 123.6,-299.5 			"/>
			<polygon class="st28" points="28.5,-299.5 -65.6,-214.1 123.6,-299.5 			"/>
			<polygon class="st29" points="-65.6,561.6 -65.6,647.9 38,744.5 			"/>
			<polygon class="st30" points="38,744.5 127.4,1030.1 278.5,857.5 			"/>
			<polygon class="st31" points="203.4,497.7 38,744.5 290.9,643.6 			"/>
			<polygon class="st32" points="289,546.9 203.4,497.7 290.9,643.6 			"/>
			<polygon class="st33" points="123.6,-299.5 207.2,-75.2 218.6,-299.5 			"/>
			<polygon class="st34" points="290.9,643.6 278.5,857.5 308,845.5 			"/>
			<polygon class="st35" points="38,744.5 278.5,857.5 290.9,643.6 			"/>
			<polygon class="st36" points="127.4,1030.1 218.6,1081 278.5,857.5 			"/>
			<polygon class="st37" points="-65.6,44.7 -65.6,131 207.2,-75.2 			"/>
			<polygon class="st38" points="-65.6,131 -21.8,213 207.2,-75.2 			"/>
			<polygon class="st39" points="290.9,643.6 308,845.5 367.9,758.3 			"/>
			<polygon class="st40" points="218.6,-299.5 207.2,-75.2 313.7,-299.5 			"/>
			<polygon class="st7" points="278.5,857.5 218.6,1081 313.7,1081 			"/>
			<polygon class="st41" points="-21.8,213 46.6,380.4 110.3,414 			"/>
			<polygon class="st42" points="207.2,-75.2 -21.8,213 425.9,36.1 			"/>
			<polygon class="st7" points="308,845.5 313.7,1081 408.7,1081 			"/>
			<polygon class="st43" points="308,845.5 278.5,857.5 313.7,1081 			"/>
			<polygon class="st44" points="-21.8,213 110.3,414 425.9,36.1 			"/>
			<polygon class="st45" points="289,546.9 290.9,643.6 507.6,557.3 			"/>
			<polygon class="st46" points="203.4,497.7 289,546.9 533.3,313.1 			"/>
			<polygon class="st47" points="110.3,414 175.9,477 533.3,313.1 			"/>
			<polygon class="st43" points="425.9,36.1 110.3,414 533.3,313.1 			"/>
			<polygon class="st48" points="175.9,477 203.4,497.7 533.3,313.1 			"/>
			<polygon class="st49" points="290.9,643.6 367.9,758.3 507.6,557.3 			"/>
			<polygon class="st50" points="408.7,-299.5 207.2,-75.2 425.9,36.1 			"/>
			<polygon class="st51" points="313.7,-299.5 207.2,-75.2 408.7,-299.5 			"/>
			<polygon class="st52" points="367.9,758.3 308,845.5 582.7,913.6 			"/>
			<polygon class="st53" points="308,845.5 408.7,1081 582.7,913.6 			"/>
			<polygon class="st7" points="408.7,1081 503.8,1081 582.7,913.6 			"/>
			<polygon class="st54" points="289,546.9 507.6,557.3 533.3,313.1 			"/>
			<polygon class="st55" points="598.9,-299.5 503.8,-299.5 609.3,-163.2 			"/>
			<polygon class="st56" points="408.7,-299.5 425.9,36.1 609.3,-163.2 			"/>
			<polygon class="st57" points="503.8,-299.5 408.7,-299.5 609.3,-163.2 			"/>
			<polygon class="st7" points="582.7,913.6 503.8,1081 598.9,1081 			"/>
			<polygon class="st58" points="533.3,313.1 507.6,557.3 665.4,521.9 			"/>
			<polygon class="st59" points="507.6,557.3 582.7,913.6 716.7,609 			"/>
			<polygon class="st60" points="665.4,521.9 507.6,557.3 716.7,609 			"/>
			<polygon class="st61" points="598.9,-299.5 609.3,-163.2 693.9,-299.5 			"/>
			<polygon class="st7" points="582.7,913.6 598.9,1081 693.9,1081 			"/>
			<polygon class="st62" points="507.6,557.3 367.9,758.3 582.7,913.6 			"/>
			<polygon class="st63" points="693.9,-299.5 609.3,-163.2 773.8,-247.8 			"/>
			<polygon class="st64" points="716.7,609 582.7,913.6 789,778.2 			"/>
			<polygon class="st65" points="693.9,-299.5 773.8,-247.8 789,-299.5 			"/>
			<polygon class="st66" points="773.8,-247.8 609.3,-163.2 819.4,-136.5 			"/>
			<polygon class="st67" points="533.3,313.1 665.4,521.9 894.5,373.5 			"/>
			<polygon class="st68" points="789,-299.5 773.8,-247.8 883.1,-299.5 			"/>
			<polygon class="st62" points="773.8,-247.8 819.4,-136.5 883.1,-299.5 			"/>
			<polygon class="st69" points="609.3,-163.2 425.9,36.1 819.4,-136.5 			"/>
			<polygon class="st70" points="582.7,913.6 789,1081 789,778.2 			"/>
			<polygon class="st7" points="582.7,913.6 693.9,1081 789,1081 			"/>
			<polygon class="st71" points="716.7,609 789,778.2 972.4,722.9 			"/>
			<polygon class="st72" points="665.4,521.9 716.7,609 894.5,373.5 			"/>
			<polygon class="st73" points="789,778.2 789,1081 883.1,1081 			"/>
			<polygon class="st74" points="425.9,36.1 533.3,313.1 819.4,-136.5 			"/>
			<polygon class="st75" points="819.4,-136.5 533.3,313.1 1031.4,179.3 			"/>
			<polygon class="st76" points="533.3,313.1 894.5,373.5 1031.4,179.3 			"/>
			<polygon class="st77" points="894.5,373.5 716.7,609 1047.5,471 			"/>
			<polygon class="st45" points="883.1,-299.5 819.4,-136.5 978.1,-299.5 			"/>
			<polygon class="st78" points="716.7,609 972.4,722.9 1047.5,471 			"/>
			<polygon class="st79" points="1047.5,471 972.4,722.9 1102.6,545.2 			"/>
			<polygon class="st80" points="789,778.2 883.1,1081 978.1,1081 			"/>
			<polygon class="st59" points="972.4,722.9 789,778.2 978.1,1081 			"/>
			<polygon class="st81" points="972.4,722.9 1073.2,1081 1160.6,748 			"/>
			<polygon class="st82" points="1102.6,545.2 972.4,722.9 1160.6,748 			"/>
			<polygon class="st83" points="978.1,-299.5 819.4,-136.5 1073.2,-299.5 			"/>
			<polygon class="st84" points="972.4,722.9 978.1,1081 1073.2,1081 			"/>
			<polygon class="st85" points="1031.4,179.3 894.5,373.5 1047.5,471 			"/>
			<polygon class="st86" points="1102.6,545.2 1160.6,748 1284.2,553.8 			"/>
			<polygon class="st87" points="1160.6,748 1073.2,1081 1168.2,1081 			"/>
			<polygon class="st88" points="819.4,-136.5 1031.4,179.3 1073.2,-299.5 			"/>
			<polygon class="st89" points="1047.5,471 1102.6,545.2 1284.2,553.8 			"/>
			<polygon class="st90" points="1358.3,-299.5 1263.3,-299.5 1360.2,-214.1 			"/>
			<polygon class="st28" points="1360.2,-299.5 1358.3,-299.5 1360.2,-214.1 			"/>
			<polygon class="st91" points="1168.2,-299.5 1073.2,-299.5 1360.2,-41.6 			"/>
			<polygon class="st92" points="1031.4,179.3 1281.4,117.2 1360.2,-41.6 			"/>
			<polygon class="st61" points="1073.2,-299.5 1031.4,179.3 1360.2,-41.6 			"/>
			<polygon class="st93" points="1360.2,-41.6 1281.4,117.2 1360.2,44.7 			"/>
			<polygon class="st94" points="1360.2,44.7 1281.4,117.2 1360.2,131 			"/>
			<polygon class="st95" points="1281.4,117.2 1031.4,179.3 1360.2,217.3 			"/>
			<polygon class="st96" points="1360.2,131 1281.4,117.2 1360.2,217.3 			"/>
			<polygon class="st97" points="1360.2,217.3 1031.4,179.3 1360.2,303.6 			"/>
			<polygon class="st98" points="1031.4,179.3 1047.5,471 1360.2,303.6 			"/>
			<polygon class="st99" points="1360.2,303.6 1047.5,471 1360.2,389.9 			"/>
			<polygon class="st100" points="1047.5,471 1284.2,553.8 1360.2,389.9 			"/>
			<polygon class="st101" points="1360.2,389.9 1284.2,553.8 1360.2,476.2 			"/>
			<polygon class="st102" points="1360.2,476.2 1284.2,553.8 1360.2,561.6 			"/>
			<polygon class="st7" points="1360.2,993 1263.3,1081 1360.2,1079.3 			"/>
			<polygon class="st7" points="1263.3,1081 1358.3,1081 1360.2,1079.3 			"/>
			<polygon class="st103" points="1360.2,561.6 1284.2,553.8 1360.2,647.9 			"/>
			<polygon class="st104" points="1284.2,553.8 1160.6,748 1360.2,647.9 			"/>
			<polygon class="st105" points="1360.2,647.9 1160.6,748 1360.2,734.2 			"/>
			<polygon class="st106" points="1360.2,734.2 1160.6,748 1360.2,820.4 			"/>
			<polygon class="st107" points="1263.3,1081 1360.2,993 1360.2,906.7 			"/>
			<polygon class="st108" points="1168.2,1081 1263.3,1081 1360.2,906.7 			"/>
			<polygon class="st109" points="1160.6,748 1168.2,1081 1360.2,906.7 			"/>
			<polygon class="st110" points="1360.2,820.4 1160.6,748 1360.2,906.7 			"/>
			<polygon class="st7" points="1360.2,1079.3 1358.3,1081 1360.2,1081 			"/>
			<polygon class="st111" points="1360.2,-214.1 1263.3,-299.5 1360.2,-127.8 			"/>
			<polygon class="st112" points="1263.3,-299.5 1168.2,-299.5 1360.2,-127.8 			"/>
			<polygon class="st113" points="1168.2,-299.5 1360.2,-41.6 1360.2,-127.8 			"/>
		</g>
	</g>
</g>
<g class="st114">
	<g>
		<g>
			<g>
				<g>
					<path class="st115" d="M1244.5,101.4c21.6-0.2,13.9-0.2,17.1-0.2C1225.5,101.4,1245.4,101.4,1244.5,101.4z"/>
					<polygon class="st115" points="887.3,104.4 893.6,104.3 840.9,104.8 					"/>
					<path class="st115" d="M553.2,107c31.6-0.1,121.1-1,180.6-1.4l9.8,0l26.9-0.4C698.1,105.8,604.2,106.6,553.2,107z"/>
					<path class="st115" d="M375.1,108c11,0-38.5,0.4,41.5-0.3c-4,0-5.2,0-7.5,0C401.9,107.8,392,107.9,375.1,108z"/>
					<path class="st115" d="M409.1,107.8C444.3,107.5,386.1,107.9,409.1,107.8L409.1,107.8z"/>
					<path class="st115" d="M246.6,109.1l46.3-0.4c-9.7,0-50.9,0.3-35.6,0.2C209.8,109.3,219.6,109.2,246.6,109.1z"/>
					<path class="st115" d="M202.7,109.6l24-0.2C222.5,109.4,216.1,109.4,202.7,109.6z"/>
					<path class="st115" d="M277.6,108.9l-50.9,0.5c6.7,0,7.4,0,23.4-0.2C245.9,109.2,256,109.1,277.6,108.9z"/>
					<path class="st115" d="M306.5,108.7c26-0.2,59.6-0.4,13.1,0C408.2,108,395.1,108,306.5,108.7z"/>
					<path class="st115" d="M536.2,107.3l34.8-0.2l30.1-0.3C586,107,538.3,107.3,536.2,107.3z"/>
					<path class="st115" d="M144.4,163.5c2.5,1.5-13.3-8.1-16.3-9.9l-29.4-17.5C113.8,145.1,142.4,162.3,144.4,163.5z"/>
					<path class="st115" d="M128.1,153.6l44,26.2C132.9,156.3,125.7,152.1,128.1,153.6z"/>
					<polygon class="st115" points="194.4,109.8 278.6,109 178.2,110 					"/>
					<polygon class="st115" points="312.4,263.7 287.4,248.9 331.9,275.3 					"/>
					<path class="st115" d="M423.8,330.2c-18.5-10.9,25.2,15.2,5.7,3.6c30.3,18,56.2,33.4,79.4,47.3
						C484.2,366.3,457.9,350.6,423.8,330.2z"/>
					<path class="st115" d="M548.1,404.3c-12.4-7.3-25.2-15-39.1-23.2C522.1,388.9,535,396.6,548.1,404.3z"/>
					<path class="st115" d="M247,224.5c3.4,2,9.9,6,34.6,20.7l-17.2-10.4C259.1,231.7,253.1,228.1,247,224.5z"/>
					<path class="st115" d="M263.8,234.5l0.6,0.4c18.8,11.2,31.8,19,37.4,22.3C296.9,254.3,285.5,247.5,263.8,234.5z"/>
					<path class="st115" d="M242.7,221.9c1.6,1,2.8,1.7,4.4,2.6C245.4,223.5,244.4,222.9,242.7,221.9z"/>
					<path class="st115" d="M59.3,110.8c-0.8,0-1.5,0-2.5,0c13.6,8.1,33.6,20,43.6,25.9c9.7,5.7,9.7,5.7-15.9-9.6
						c-9.1-5.4-6.6-3.9-6.3-3.7c0.1,0.1-0.3-0.1-3.1-1.8c-3-1.8-8.4-5-18.3-10.9C56.9,110.8,57.9,110.8,59.3,110.8z"/>
					<path class="st115" d="M221.3,209l-46.7-27.9c0.9,0.6,9.3,5.6-3.5-2L221.3,209z"/>
					<polygon class="st115" points="244.2,222.6 221.3,209 238.6,219.3 					"/>
					<path class="st115" d="M468.1,356.5c20.2,12,42.3,25.2,67.2,40c-26.7-16-54.3-32.5-80.6-48.1
						C451,346.2,439.4,339.4,468.1,356.5z"/>
					<path class="st115" d="M368.8,297.2c1.4,0.8,3.2,1.9,4.5,2.7C370.5,298.2,368.3,296.9,368.8,297.2z"/>
					<path class="st115" d="M582.2,279.3c0.4,1.5,0.8,2.9,1.2,4.4c0.1,0.3,0.2,0.6,0.3,1L582.2,279.3z"/>
					<path class="st115" d="M450.2,345.7c-20.1-12-32.1-19.1-43.6-25.9c15,9,30.9,18.5,48,28.6C456.4,349.4,456.7,349.6,450.2,345.7
						z"/>
					<path class="st115" d="M616.6,445.1c-10.5-6.3-22.3-13.4-34.8-20.8C592,430.5,612.9,442.9,616.6,445.1z"/>
					<path class="st115" d="M380,303.9c-1-0.6-1.9-1.1-3-1.8C383.6,306.1,382.8,305.6,380,303.9z"/>
					<path class="st115" d="M380,303.9c10.3,6.1,18.5,11,26.7,15.8c-12.2-7.3-23.6-14-33.4-19.9C375.8,301.4,378.2,302.9,380,303.9z
						"/>
					<path class="st115" d="M558.9,195.9c1.2,4,17.3,63.3,31.1,114.6c13.7,50.4,5.1,17.4-6.6-26.7c-0.5-1.6-0.5-1.5-14.6-53.4
						c4.9,18.2,31.1,115.2,19.1,71.4c-18.7-68.7-15.2-56.3-24.2-89.8c7.6,28.4-23.9-87.4-20-72.4l16.4,60.3
						C560.4,201,554.4,179.1,558.9,195.9z"/>
					<path class="st115" d="M610.2,382.6l5.8,21.3c-6.6-24.4-11.2-41.8-19.9-73.9c-9.7-35.5-11.7-42.9-12.4-45.3l28.5,105.1
						L610.2,382.6z"/>
					<path class="st115" d="M584.6,425.9c7.4,4.4,22.6,13.4,32.4,19.2c4.9,2.9,8.5,5,9.1,5.3c0.5,0.3-1.8-1.1-8.8-5.3
						c-55.8-33.2-39.1-23.2-72.4-43.1c90,53.7-25.9-15.4,39.1,23.5c-17.7-10.5-33.6-20-48.6-29c16.2,9.7,31.8,19,46.5,27.8
						c-0.8-0.5-1.4-0.8-2.1-1.2l-0.4-0.3l0.1,0.1c-3.9-2.3-5.1-3.1-0.8-0.5c0.3,0.2,1.4,0.8,1.9,1.1
						C581.1,423.9,582.8,424.9,584.6,425.9c26,15.6,4.1,2.5-4.1-2.4c-0.3-0.2-1-0.6-1.1-0.6c0.1,0.1,0.2,0.1,0.3,0.2l49.4,29.5
						L616,403.9c3.5,12.8,7.4,27.4,13.1,48.6C617.9,445.8,602.9,436.9,584.6,425.9z"/>
					<path class="st115" d="M132.6,155.6c2.8,1.7,2.7,1.6,2.9,1.7C141.4,160.8,143.6,162.1,132.6,155.6z"/>
					<path class="st115" d="M169.7,177.8c-6.6-3.9-12-7.2-33.3-19.8c-18.5-11.1,0.1,0-0.8-0.6c-12.8-7.6-45-26.7-4.7-2.7l6.4,3.8
						c36.2,21.7,70.1,42.1,76.5,45.8C203.1,197.9,193.8,192.3,169.7,177.8z"/>
					<path class="st115" d="M379.7,303.4l75.1,44.7l-38.2-22.9l1.9,1.2C375.9,300.9,385.1,306.5,379.7,303.4z"/>
					<polygon class="st115" points="579.6,269.6 582.8,280.8 569.4,232.1 					"/>
					<polygon class="st115" points="549.9,160 551.1,164 543.2,135.1 					"/>
					<path class="st115" d="M1004,444.7l19.9,16.2C1014.5,453.2,1008.4,448.3,1004,444.7z"/>
					<path class="st115" d="M860,327.1l-3.6-2.8C863.1,329.7,865.9,331.9,860,327.1z"/>
					<path class="st115" d="M171.6,316.7c-37.4,1-79.2,2-74.6,2l11.5-0.2C134.5,317.7,154.6,317.1,171.6,316.7z"/>
					<path class="st115" d="M798.9,478.6c3.2-1.6,6.5-3.3,9.8-5c8.1-4.2,15.7-8.1,22.4-11.6C821.4,467,810.4,472.6,798.9,478.6z"/>
					<path class="st115" d="M774.8,488l-48.6-8.1C737.1,481.7,752.8,484.3,774.8,488z"/>
					<path class="st115" d="M1241,419.6l-29.9,1.1C1257.9,419.1,1237.2,419.8,1241,419.6z"/>
					<path class="st115" d="M425,380.8c32-4.1,57.5-7.4,79.9-10.3C466.3,375.4,435.2,379.4,425,380.8z"/>
					<path class="st115" d="M946.6,399.3c12.2,9.9,17.4,14.1,17.1,13.8C951.1,402.9,944,397.1,946.6,399.3z"/>
					<path class="st115" d="M597.3,358.4c-5.6,0.7-11.2,1.4-16.9,2.2c-23.4,3.1-46.9,6.1-75.5,9.9
						C533.4,366.7,566,362.5,597.3,358.4z"/>
					<path class="st115" d="M135.6,78.6c-2.7-0.2-5.9-0.5-8.3-0.7C126.5,77.9,130.2,78.2,135.6,78.6z"/>
					<path class="st115" d="M986.8,57.4c-10.6,0.1-27.8,0.4-44,0.6C950.6,57.8,963.9,57.6,986.8,57.4z"/>
					<path class="st115" d="M256.5,245.4C275.4,230.4,259.5,243,256.5,245.4L256.5,245.4z"/>
					<path class="st115" d="M348.4,172.8c-4,3.2-7,5.6-7.5,6C342.5,177.6,345.1,175.5,348.4,172.8z"/>
					<path class="st115" d="M835.2,326.7c0.7-0.1,1.3-0.2,2.1-0.3C830.1,327.4,831.3,327.2,835.2,326.7z"/>
					<path class="st115" d="M284.9,222.9c-7.1,5.6-15.2,12.1-24.1,19.1C264.7,239,272,233.1,284.9,222.9z"/>
					<path class="st115" d="M281.1,225.9c6.5-5.2,11.6-9.2,16.5-13.1C299.9,210.9,297.8,212.6,281.1,225.9z"/>
					<path class="st115" d="M230.2,266.3c10.8-8.6,20.8-16.6,30.5-24.3c-3.7,2.9-5.3,4.2-4.3,3.4C251,249.8,243.2,256,230.2,266.3z"
						/>
					<path class="st115" d="M455.6,355.7c1.6-0.4,3.3-0.8,5-1.1C484.3,349.1,473.9,351.5,455.6,355.7z"/>
					<path class="st115" d="M358.9,48.6c-1.1-0.3-1.7-0.5-2.6-0.7c1.1,0.3,2.4,0.7,3.4,1L358.9,48.6z"/>
					<path class="st115" d="M442.1,72.3c-35.5-10-55.6-15.7-82.4-23.4l27.4,8.1L442.1,72.3z"/>
					<path class="st115" d="M1069.7,86.4l-4.1,60.6c4.7-73.2,8.3-126.1,4.4-69.2c-0.2,8.6-15.6,235.6-15.9,244.1l-2.7,40
						c0.8-11.4,0.9-13.3,1.6-24.6c-2.5,36.5-3.4,51.4-4.4,67.4c-0.5,8-1,16.2-1.7,27.6c-0.7,11.1-1.6,25.2-2.9,45.1
						c-3.8-3.1-7.9-6.5-12.4-10.1c-27.1-22.1-46-37.6-27.5-22.6l-60.4-49.2c-17.6-14.3-13.2-10.9,4.3,3.4l-92.1-75.1l0.7,0.6
						c-13.2-10.7-43-34.9-57.5-46.8c-23.4-19.1,11.8,9.6,5.8,4.6l-51-41.6c-20.7-17,21.6,17.4,56.8,46.2
						c-47.4-39.1-42.4-34.5-145-118.5l48.2,39.3c-30.9-25.5-68.5-56.1-122.9-100.6c12.9,10.6,108.8,89.2,53.4,44.1
						c-15.6-12.7-36.2-29.5-66-53.8c0,0-0.4-0.4-1.1-0.9c-0.7-0.6-1.7-1.4-3-2.5c-2.7-2.2-6.6-5.4-11.6-9.5
						c-12.2,9.3-31,23.7-52.2,39.9l2.5-2.1c-40.4,31-37.2,28.6-60.9,46.8c-45.1,34.4-54.5,41.5-65.2,49.5
						c-72.2,55.2,50-37.9-35.4,27.4c-60,45.9-102.1,78.2-173.9,133.1c-5,3.8-8.8,6.7-11.2,8.6c4.4,0.7,7.1,1.2,8.6,1.4
						c1.3,0.2,1.5,0.3,1,0.2c-1.2-0.2-5.6-0.9-9.7-1.6c2.7-2.1,5.2-4,6.2-4.8c0.8-0.6,0.3-0.3-2.6,2l-3.7,2.8l44.5,7.2
						c11.3,1.9,7.7,1.3,5.8,1c39,6.4,3.2,0.4,64.5,10.4c16.5,2.6,125.7,21,201.6,33.4c18.7,3.1-9-1.4-3.3-0.4
						c104.1,17,89.2,14.6,174.7,28.6l72.8,12.1c-47.2-7.9,0.5-0.1,53.6,8.5c6.3-3.3,12.8-6.6,19.1-9.8c-7.9,4-15.2,7.7-19.1,9.7
						c-11.6-1.9-19-3.2-24.9-4.2l24.9,4.1l63.6-32.6c10.4-5.3,1.8-0.8-12.3,6.5c5.9-3,11.4-5.9,15.8-8.1c30.8-15.7,14.9-7.5-7.1,3.9
						c-10.5,5.3-20.9,10.6-31.1,15.8c-11.2,5.8-22,11.4-28.8,14.9c-3.7-0.6-6.5-1-8.1-1.3c-1.6-0.2-1.9-0.3-0.8-0.1
						c2.1,0.3,4.9,0.8,8.9,1.5c5.1-2.6,12.5-6.4,20.4-10.5c-5.6,2.9-9.1,4.7-6.5,3.4c2.9-1.5,11.9-6.1,26-13.4l19.7-9.9l4.7-2.5
						l112.8-57.6c68.2-35,128.9-66.2,223.9-115c-18.3-5.2-38.1-10.8-59.5-16.9c34.3,9.7,7.4,1.9,9.3,2.3
						c13.4,3.8,30.8,8.8,50.9,14.6c-34,17.4-76.5,39.2-119.9,61.4c34.6-17.7,27.1-13.7,18.3-9.2l101.8-52.2l-19.8-5.6
						c2.9,0.7-27.1-7.8-60.5-17.4c25.2,7.4-95.3-27-147.4-41.7c-3.2-1,9.3,2.5,72.7,20.6c-70-20.1-90.6-25.5-159.2-45.2
						c15.5,4.4,23.9,6.8,30,8.5c-36.2-10.2-124.7-35.5-103.8-29.7l15.5,4.4C706.3,147.7,496,87.8,480.6,83.6
						c-1-0.3,13.6,3.6,19.8,5.3L316.7,37.3c16.2,4.4-45.7-13.7,39.6,10.5c-13.6-3.9-29.1-8.3-49.5-14.1
						c-11.6,11.3-25.6,24.9-42.9,41.7c12.5-12.1,31.2-30,14.2-13.4c-46.8,45.3-32.5,31.5-90.3,87.3c18.7-18.1-1.8,2.3-31.4,30.9
						c4.6-4.5-2.7,2.2,8.1-8.3l-73.3,71.6c18.3-17.9,3.1-3.3-13.4,12.6c-6.2,6-40.3,39.1-68.1,66.2c9.7-0.3,18-0.5,23.5-0.7
						l-23.4,0.6L26,306.7c-5.7,5.6-11.1,10.7-16,15.6c95.2-2.8,101-3,208.8-6.2c-13.9,0.4-34.3,1.3,24-0.3
						c26.7-0.9,118.3-4,219.8-6.9l19.5-0.5l77.8-2.3c-48.5,1.5-184.5,5.8-258.8,8.1c43.3-1.2,12-0.3,76.8-2.1
						c22.9-0.6-35.3,1.1-54.4,1.6l150.8-4.2c-6.7,0,115.3-3.4,109.6-3.4L420.3,311c-6.6,0,94.7-3.1,201.6-6.1
						c27.2-0.7-20.3,0.9-18.1,0.9c13.9-0.4,101.4-2.9,111.3-3.2l-45.3,1.4c59.5-1.6,97.1-2.9,168.6-4.8c24.7-0.7,73.7-1.8,78-2.1
						c-40.3,0.9-48.1,0.6-21.3-0.3c8.6-0.2,129.6-3.4,157.8-4.1c40.6-1-61,2.1-26.4,1.2c1.5,0,23.9-0.8,33.3-1
						c12.3-0.3,10.5-0.2,11.4-0.2c0.4,0,1.6,0,5.5-0.1c3.2-0.1,8.6-0.2,18-0.5c0.7,0,2.1-0.1,3.6-0.1c0.5,0,1.2,0,2.2-0.1
						c-1.3,0.2-3.1,0.4-5.2,0.7c-12.8,1.7-32.5,4.2-40.8,5.3c-9,1.2-5.5,0.7,30.4-3.9c-54.6,7.1-58.1,7.6-122.3,15.9
						c20.4-2.6-57.6,7.9-112.3,15.1c3.2-0.5-9.1,1.1-15,1.8c-112,14.6-172.2,22.4-276.6,36c-9.6,1.2-60,7.7-38.6,4.9
						c-15,2-28.8,3.8-61,8c-62.4,8,71.8-9.4,24.3-3.4c-4,0.6-83.3,11-129.2,17c14.1-1.7,106-13.8,152-19.8c0,0-0.3,0.1-0.9,0.2
						c-0.6,0.1-1.5,0.2-2.7,0.4c-2.4,0.3-5.9,0.8-10.5,1.4c-9.2,1.2-22.6,3-39.4,5.3c-33.6,4.4-80.9,10.7-135.5,17.9
						c-86.8,11.4-37.6,4.8-52.7,6.8c-149.6,19.6-142.6,18.7-243.8,32c7.7-6.1,16.6-13.2,26.5-21.1c42.5-33.6,2.1-1.3,11.5-8.7
						C45.1,414.4,33,424,22,432.8c43.4-5.6,74-9.6,110.3-14.3l-59,7.6c22.5-2.9,69.7-9.1,95.4-12.5c-20.2,2.6-77.7,10.1-146.4,19
						c66.4-52.8,146.2-116.2,200.9-159.7c17.6-14.1,48-38.3,33.6-26.9l-31.4,25c-28.9,22.9,59-47.1,19.2-15.5
						c42.1-33.5,89.3-71.1,148.6-118.3l11.2-8.7c-1.3,1-38.8,30.8-55.5,44.1c24.7-19.7,91.1-72.2,118-93.9l-41.6,33
						c27.3-21.8,58.7-46.8,91.6-73.1c6.2,22.9,12.6,46.3,18.9,69.9c-7.9-29.5-4-14.9-16.4-61c1.3,5,1.6,6.2,1.1,4.5
						c-0.5-1.8-1.8-6.6-3.7-13.4c-15.6,12.4-44.6,35.5-64.8,51.6c-20,15.9-31.2,24.9-11.7,9.4c-38.4,30.4-66.4,52.6-116.6,92.4
						c1.6-1.2,17.8-14-26.3,21c-2,1.6-6.7,5.3-9.7,7.7c-1.3,1.1-1.8,1.4-3,2.4c0.9-0.7,1.5-1.2,2.4-1.9c-1.9,1.5-2.1,1.7,0.9-0.7
						c10.5-8.3,19.1-15.1,22.5-17.8c-21.9,17.4-92,73.3-115.7,92.2c-26.2,20.8,10.9-8.8-3.4,2.6l-35.4,28.3
						c-3.6,2.7-69.7,55.2-8,6.1l-55.5,44.1c-21.9,17.4-49.1,39-73.1,58c17.3-2.3,33.1-4.3,46.1-6c33.2-4.3,83.8-11,54.9-7.2
						L231,406.1l1-0.1c108.8-14.2,224-29.2,348.4-45.4c36.6-4.8,74.5-9.7,135.8-17.7l12-1.5c47-6.1,141.3-18.4,161.5-21
						c17.2-2.2,49.1-6.3,86.9-11.2c40.2-5.2,86.7-11.3,130.3-17c0.5-0.3,1-0.7,1.5-1c-0.6-0.3-1.1-0.5-1.7-0.8
						c-35,1-67,1.9-91.5,2.6l-3.1,0.2c-57.4,1.6-112.4,3.2-183.7,5.2l4.4,0c-61.4,1.7-157.9,4.4-255.1,7c6.6-0.2,31.3-0.9,48.7-1.4
						c-116.1,3.2-244.9,6.8-350.2,9.8c-26.2,0.7-45.2,1.3-63.6,1.8c2.4-0.1,4.6-0.1,6.5-0.2c-2.7,0.1-6.7,0.2-10.8,0.3
						c-11.6,0.3-23.5,0.6-36.4,1c11-0.3,21.5-0.6,30.7-0.8c-20.2,0.6-50.9,1.4-81,2.3l-12.8,0.2c-2.4,0.1-4.4,0.1-7,0.2
						c-29.5,0.8-23.7,0.7-8,0.4c-15.1,0.5-29,0.9-39.8,1.2c-5,0.1-11.4,0.3-18.7,0.4c-6.9,0.2-14.6,0.4-22.7,0.6
						c8.1-7.9,16.8-16.3,25.1-24.4c8.6-8.3,16.8-16.2,23.6-22.8c14.5-14.2,108.5-105.5,119.8-116.8c0.8-0.7,7.1-6.9-4.5,4.5
						c24.1-23.4,48.1-46.7,69.7-67.7l10.3-9.8L307,34.6l2.1,0.6c42.8,12.3,60.5,17.4,18,5.4C429.7,69.7,410.3,64.2,497.6,89
						l-4.3-1.1c31.2,8.9,81.1,23.1,99.9,28.4c69.8,19.9,345.2,98.5,524.3,149.6c-12.3-3.6-5.3-1.6,9.1,2.5
						c14.1,4,35.5,10.2,52.6,15.1c-6.2,3.2-11.7,6-15.9,8.1c-4.5,2.3-7.5,3.9-8.5,4.4c-9.7,4.9-32.8,16.7-6,2.9
						c-84.6,43.3-127.2,64.9-185.5,95c-9.7,4.9,18.1-9.4,9.4-5c-6.8,3.5-26.9,13.8-35.7,18.3c-8.6,4.4,12.4-6.4,25.7-13.3
						c-86.4,44.2-95.1,48.9-101.3,52.3c-18.2,9.3-32.6,16.6-45.5,23.2c-12.9,6.6-24.2,12.4-36.3,18.6c-5.4-0.9-11-1.8-16.9-2.7
						c-16.9-2.9-45.1-7.6,14.5,2.2c-16.7-2.8-67.9-11.2-115.3-19.1c-23.7-3.9-46.4-7.7-63.5-10.5c-17-2.8-28.4-4.6-29.2-4.7
						c-10.5-1.7-46.8-7.7-55.6-9.2c-75.1-12.4-81.8-13.5-155.5-25.7l20.5,3.4c-29.2-4.6-61.3-10.1-120.8-19.9l1.7,0.3
						c-60.1-9.9-78.3-13-91.4-15.1c13.8-10.5,21.2-16.2,81.1-61.9l-6,4.4c9.9-7.9,96.1-73.3,158.9-121.4l-22.7,17.3
						c34.3-26.3,96.2-73.1,130.7-99.5c7.5-5.7-11.9,9.1-22.3,17.1c22.1-16.9,34.1-26,40.6-31c3.2-2.5,5.1-3.9,6.2-4.8
						c1.1-0.8,1.3-1.1,1.4-1.1c0.1-0.1-0.7,0.4,2.3-1.9c2.9-2.3,9.5-7.3,24.4-18.7c0.9,0.7,2.1,1.7,3.4,2.8
						c12.1,9.9-15.7-12.6,28.4,23.5c22,18,128.3,104.4,188.4,153.7c-13.2-10.9-26.4-21.7,4.1,3.1c46.7,38.1,126.1,103.3,168.5,137.6
						c5.9,4.9,8.2,6.7,8.4,6.9c19.4,15.8,51.9,42.3,80.9,66c2.1-32.4,4-61.6,4.8-74.6c1.6-21.2,6.3-92.7,10.7-158.8
						c2.2-33,4.3-64.7,5.8-88c0.8-11.7,1.4-21.3,1.9-27.9c0.2-3.3,0.4-5.9,0.5-7.6c0.1-1.7,0.2-2.6,0.2-2.6l7.1-106.4l14.4,28.3
						l-1.7-3.3c40.9,80.9,55.5,109.4,69.9,137.8c9.4,18.7,2.5,5.1,1.7,3.5c59.7,118.2,65.7,129.9,116,228.9l4.3,8.7l-0.7,0
						c-30.1,1-191.3,6.5-321,10.8c1.3,0,4-0.1,14.3-0.5c-146,5.1-349.7,11.5-403.2,13.8l-96.4,3.4c124.7-4.2-18.6,0.8,32.7-0.8
						c-49,1.7-126.8,4.2-66.5,2.1l9.4-0.3c22.1-1-154.9,5.2-151.6,4.9c-97.8,3.3-194.6,6.6-289.9,9.8c-0.9,0-1.8,0.1-2.7,0.1
						c0.9-0.2,1.8-0.4,2.6-0.6c136.1-31.3,269.4-62,399.6-92l-25.9,5.8l78.2-18c20.5-4.7,27.6-6.2-28.2,6.6c14.7-3.4,38-8.8,58-13.4
						c19.9-4.6,36.3-8.5,37.1-8.7c109.2-25.1-42.6,10-9.1,2.3l45.5-10.5l-10.3,2.3c36.8-8.5,40.1-9.3,107.1-24.8
						c42.4-9.7,21.8-4.9,38.5-8.7c0.1,0,5.5-1.3,25.6-5.9l98.5-22.7l-39.4,8.9c43.6-10.1,92.6-21.3,47.1-11
						c66.8-15.1,367.4-84.5,408.3-93.9c11.4-2.6,22.8-5.3,34.3-7.9c-52.5-4.2-106.4-8.5-170.4-13.6c19,1.5,30.4,2.6-35.6-2.7
						c24.1,1.6-120.8-9.8-174-14.3c47.6,4-187.5-14.9-112.8-8.7c-55-4.4-3.3-0.4-45.1-3.8c-131-10.5-288.7-23.1-450.6-36
						c-2.5-0.2,24.6,2.1-10.2-0.6l-85.5-7c-32-2.5-29.5-2.1-87.9-6.9c8.2,0.7,20.6,1.7-0.9,0c-19.8-1.6-39.6-3.2-59.6-4.8
						c-2-0.2-4.1-0.3-6.1-0.5c2.1,0,4.1-0.1,6.2-0.1c290.6-3.7,591-7.4,884.1-11.1c-43.8,0.5-14.6,0.1,18.8-0.3
						c-21.7,0.3,0.5-0.1-3.8-0.1l135.3-1.6c24.7-0.3,145-2,159.1-2.2l-42.8,0.6c57-0.9-79.7,0.6-71.4,0.3
						c-63.8,1-168.2,1.8-272.8,3.5c-23.1,0.2,19.7-0.3,7.3-0.2c-26.5,0.4-58.6,0.9-117.9,1.6l6.7-0.1c-166.8,2.1-238.3,3-425.7,5.3
						l13.9-0.1c-40.3,0.5-48.7,0.6-67.6,0.8c-46.2,0.8,113.1-1.4,71-0.7c-47.7,0.6-234.1,2.8-304,3.7c-1.9,0.2-3.6,0.4-5,0.6
						c1.9,0.4,3.3,0.7,4.2,0.9c0.3,0,0.7,0.1,1,0.1c19.2,1.5,27.4,2.2,30.1,2.4c2.2,0.2-0.1,0-2.4-0.2c-4.5-0.4-9.1-0.8,21.8,1.7
						l16.4,1.4l15.6,1.2c40.5,3.2,60.9,5,62.4,5.2c-9.8-0.8-27.9-2.2-38.5-3c52.5,4.2,148,11.8,166.1,13.2l-59.3-4.8
						c168.5,13.4,374.3,29.8,537.1,42.7l-12.4-1c124.3,9.9,99.6,8,236.1,18.9l-5-0.4c27.3,2.2,63.8,5,101.2,8
						c-34.5-2.7,64.8,5.3,19.6,1.8c65.8,5.2,83.3,6.5,94.4,7.4c10.8,0.8,15.4,1.2,54.6,4.2c-0.7,0.2-2.1,0.5-3.6,0.8l-19.8,4.5
						c-29.7,6.9-32.1,7.5-98.8,22.9c54.6-12.7-42.6,9.7,18.6-4.5c-139.9,32-207.6,48-271.8,62.5c-64.2,15,121.1-27.7,85.1-19.4
						c30.1-6.9-53,12.4-96.9,22.5c-44.7,10.3-76,17.2-188.4,43.1c11.2-2.6,11.9-2.8,23.1-5.3c-42.1,9.7-82.4,19-134,30.9
						c-28.9,6.8-67,15.4-75.3,17.5l103.1-23.8c-58.4,13.5-113.2,26.4-209.5,48.4c7.5-1.7,36.1-8.4,55.8-13
						c-28.2,6.5-54.2,12.5-83.4,19.2c8.3-2.1,125.3-28.9,187.9-43.5c-30.2,6.9-118.4,27.4-87,20c-45.2,10.7-110.7,25.5-186.8,43.2
						l5-1.3c-12,2.8-37,8.6-59.1,13.7l40.1-9.4c-61.6,14.2-118.8,27.3-177.9,40.9c123.7-28.5,27.8-6.3,80.1-18.2
						c-57.8,13.3-84.4,19.4-104.5,24c-21.1,4.8-35.3,8-68.7,15.6c-0.4,0.3-0.9,0.7-1.4,1c0.5,0.2,1,0.4,1.5,0.6
						c20.3-0.7,47.2-1.6,84.8-2.9c-23.7,0.8-89.1,3-52,1.6c33.4-1.1,77.4-2.5,97.9-3.2c116.1-4-17.8,0.5,31.6-1.3
						c39.5-1.2,57-2,107.9-3.8l0.4,0.1c132.3-4.4,35.1-1.4,154.2-5.4l-50.3,1.9l62.1-2.2l-12.8,0.6c67.6-2.3,88.6-3,154.8-5.3
						c-15.4,0.4,8.6-0.5,67.2-2.5c40-1.3-22.4,0.9,60.7-2c-18.8,0.7-39.3,1.5-75.4,2.6c-3.7,0.1-18.5,0.7-22.3,0.9
						c43-1.5,108.2-3.7,138.3-4.7c-11.6,0.4-25.4,0.8-32.5,1.1l120.4-4.3c19-0.6,3.9-0.1-11,0.5c24.4-0.9,41.3-1.4,77.1-2.7
						c-9.3,0.4-7,0.4-57.8,2.2l114.7-4c7.7-0.2,58.9-1.9,44-1.3c63.6-2.2,156-5.4,240.4-8.3c4.4-0.2,13.2-0.5,31.1-1.1
						c2.4-0.1,4.7-0.2,7-0.2c-34.9-68.9-66.2-130.8-107.7-212.8l-23.9-47.7c-33.3-65.7,32.4,64.5-23-44.8
						c-39.2-77.4-14.5-29-28.2-56.2c-6.6-13-14.8-29-24.2-47.5c-1.4,21.1-2.9,45.1-4.6,70.7c-1.7,24.8-3.4,51.2-5.2,78.1
						C1066.7,131.7,1068.1,111,1069.7,86.4z M645.5,152.1c13.6,11.1,40.9,33.2,50.8,41.4C680.7,180.9,668.7,171.1,645.5,152.1z
						 M918,417.9c-11.6,6-29.7,15.2-50,25.5C882.8,435.9,899.5,427.4,918,417.9z M50,409.8c-0.6,0.5-1,0.8-1.5,1.2
						C17.7,435.4,28.7,426.8,50,409.8z M113.8,359.2c6.4-5.1,5.9-4.8,3.2-2.6c-4.4,3.5-18.8,14.9-35.1,27.9
						C86.5,380.8,94.7,374.3,113.8,359.2z M706.5,298.7l-15.5,3.5C725.9,294.2,716.2,296.5,706.5,298.7z"/>
					<path class="st115" d="M778.4,488.5c-4.9-0.8-6.3-1.1-7.4-1.3C764.1,486.1,764,486.1,778.4,488.5z"/>
					<path class="st115" d="M1246.5,419.4c-0.9,0-1.8,0.1-2.8,0.1c-1.5,0.1-2.3,0.1-2.8,0.1L1246.5,419.4z"/>
					<path class="st115" d="M1058.6,293c-16.8,0.4-26.1,0.7-32.3,0.8C1025.4,293.9,1033,293.7,1058.6,293z"/>
					<path class="st115" d="M451.6,90.2l-40.8,32.5c19.8-15.7,26.8-21.3,36.8-29.2C446.6,94.2,438.8,100.3,451.6,90.2z"/>
					<path class="st115" d="M613.5,397.1c2,7.4,4.2,15.6,6.2,22.9l-0.5-2C610.7,386.5,604.7,364.6,613.5,397.1z"/>
					<path class="st115" d="M489.6,60.4c1-0.8,4.1-3.2,8.8-6.9c4.7-3.8,11-8.8,18.3-14.6c3,11.2,6.6,24.5,10.4,38.3
						c-0.6-2.1-1.1-4.1-1.7-6.2c1,3.6,0.5,1.4-1.1-4.5c-1.6-6.1-4.3-16-7.5-27.7C508.6,45.3,499.1,52.9,489.6,60.4z"/>
					<path class="st115" d="M529.4,85.4c2.9,10.9,6,22,8.8,32.6C539.4,122.1,534.6,104.8,529.4,85.4z"/>
					<path class="st115" d="M194.6,294.8c13.6-10.8,8.4-6.9,16.1-12.9C225.8,269.7,120.4,353.9,194.6,294.8z"/>
					<polygon class="st115" points="513,42.3 502.7,50.3 486.7,63.1 					"/>
					<path class="st115" d="M287,221.9l45.7-36.3c-0.7,0.5,5.1-4.1,12.2-9.8C316.8,198.2,288.1,221,287,221.9z"/>
					<path class="st115" d="M345,175.8c14.7-11.7,28.6-22.8,36.8-29.3C373.8,152.8,356.8,166.4,345,175.8z"/>
					<polygon class="st115" points="450.5,92 437,102.7 404.7,128.4 					"/>
					<path class="st115" d="M309.3,395.4l63.2-8.3c6.4-0.9-10.8,1.3-34.3,4.4C323,393.5,299.6,396.6,309.3,395.4z"/>
					<path class="st115" d="M118,420c17.1-2.2,18.3-2.3,27.9-3.5l1.9-0.4L118,420z"/>
					<path class="st115" d="M302.4,395.9c6.3-0.9,91.7-12.1,11.6-1.6C307.6,395.2,244.3,403.4,302.4,395.9z"/>
					<polygon class="st115" points="960.1,295.4 976.3,294.9 974,294.7 					"/>
					<path class="st115" d="M113.7,319.6c75.5-2.2,17.9-0.5,86.2-2.5c17.7-0.6-55.8,1.5-37.6,0.9C116.6,319.4,92.7,320,113.7,319.6z
						"/>
					<path class="st115" d="M162.2,318c7.3-0.2,15-0.4,23.3-0.7C172.3,317.7,166.1,317.9,162.2,318z"/>
					<polygon class="st115" points="1164.8,55.2 1213.3,54.6 1182,55 					"/>
					<path class="st115" d="M1258,53.8l3.4,0l3.8,6.5l15.3,24.9c-5-8.3-14.3-23.6-19-31.4C1259.9,53.8,1258.9,53.8,1258,53.8z"/>
					<path class="st115" d="M539.5,101.4l-2.9,2.3c5.1-3.9,12.4-9.5,25.9-19.7c2.2,1.8,5,4.1,8,6.6l-8-6.6L539.5,101.4z"/>
					<polygon class="st115" points="1044.1,469.5 1043.6,476.8 1042.7,476.1 1043.4,476.6 1043.6,476.8 1044.9,459.7 					"/>
					<path class="st115" d="M1118.6,94.9c-10.2-20.1-22.2-43.8-32.4-64C1108.4,74.8,1121.2,100.5,1118.6,94.9z"/>
				</g>
			</g>
		</g>
	</g>
</g>
<g>
	<g>
		<path class="st115" d="M545.7,122.3c-3.3,1.1-9.6,1.7-17.3,1.1c-28.8-2-40.6-23.7-38-51.5c3.4-37,28.3-49.8,50.2-48.3
			c7.7,0.5,12.9,2.2,15,3.7l-5.2,15.8c-2.4-1.2-5.2-2.3-10-2.6c-12.4-0.9-24.4,7.7-26.7,32c-2.2,23.5,7.2,33.4,20.6,34.3
			c3.7,0.3,7.9-0.2,10.7-0.7L545.7,122.3z"/>
		<path class="st115" d="M587.8,87.7L570,85l-3.5,18.2l32.1,4.9l-2.2,11.4l-47.2-7.2l13-67.6l38.6,5.9l-2.2,11.4l-23.5-3.6l-3,15.5
			l17.7,2.7L587.8,87.7z"/>
		<path class="st115" d="M611.8,114.7l-7.5-58.9l12-1.2l13.4,22.1c2.6,4.3,6.9,11.6,9.4,16.5l0.2,0c-1.2-6.2-3.4-16.3-4.8-27.1
			l-1.7-13l11.5-1.1l7.5,58.9l-12,1.2l-13.2-21.4c-2.8-4.8-6.9-11.9-9.1-17.1l-0.2,0c1.1,5.9,2.7,14.9,4.2,26.7l1.7,13.3
			L611.8,114.7z"/>
		<path class="st115" d="M668.5,48.5l-16.1-1.3l1.5-14.2l117.9,9.7l-1.5,14.2l-84.2-7l-6.9,70l-17.7-1.4L668.5,48.5z"/>
		<path class="st115" d="M687.9,57.1c4.2-1.2,9.7-2.2,15-2.7c7.6-0.8,14.5-0.5,19.7,2.7c4.8,3,6.6,7,7.3,12.4c0.9,6.6-2.1,13-9,16.7
			l0,0.2c5.1,1.2,8,4.9,10.3,11.4c2.3,6.8,5.2,14.3,6.8,16.4l-14.5,1.4c-1.1-1.7-3.5-7.8-5.4-14.5c-2.3-7.6-4.8-9.6-9.5-9.2l-2,0.2
			l3.2,26.1l-13.9,1.4L687.9,57.1z M705.4,82.8l2.4-0.2c6-0.6,9-5.2,8.3-10.6c-0.7-5.3-3.6-8.8-9.9-8.4c-1.2,0.1-2.5,0.3-3.2,0.7
			L705.4,82.8z"/>
		<path class="st115" d="M775.4,90.1c-8.1,19.3-19.1,24.7-30.1,21.2c-13.1-4.2-13.1-18.1-7.1-32.2c5.9-14,17.2-24.1,30-20
			C782.1,63.5,780.3,78.4,775.4,90.1z M749.8,82.9c-4.9,11.6-4.9,18.3-0.4,19.8c4.7,1.5,9.7-5.5,14.1-15.9c3.8-9,5.7-17.6,0.6-19.2
			C759.6,66.1,754.4,71.9,749.8,82.9z"/>
	</g>
	<g>
		<path class="st115" d="M507,148c2.7,0.2,6.4,1,10.3,2.1c6.4,1.9,10.3,4.5,12.5,8.1c3,4.7,3,11.2-0.4,19.8
			c-3.5,8.9-8.6,14.5-14.3,16.5c-4.5,1.9-10.1,1.8-17.1-0.3c-3.1-0.9-6.1-2.1-7.9-2.9L507,148z M502.5,187.6
			c0.4,0.3,1.2,0.5,1.7,0.6c4.7,1.4,10.4-1.4,15.2-13.6c3.5-9,3-15.3-3-17.1c-0.7-0.2-1.4-0.4-2-0.4L502.5,187.6z"/>
		<path class="st115" d="M552.4,191.9l-15-4.5l-3.9,10l16.3,4.8l-2.5,6.3l-24.5-7.3l14.5-37.1l23.8,7.1l-2.5,6.3l-15.5-4.6l-3.3,8.5
			l15,4.5L552.4,191.9z"/>
		<path class="st115" d="M590.2,204.2l-2.4,29.2l-20.8,1.8l15-104.9l25.7-2.2l29.6,92.6l-20.8,1.8l-6.4-20L590.2,204.2z
			 M606.8,188.2l-5.3-19.8c-1.6-5.7-3.9-15.2-5.5-21.5l-0.5,0c-0.6,6.5-1.4,16.6-2,22.3l-2.4,20.3L606.8,188.2z"/>
		<path class="st115" d="M635.7,152.5c4.1-1.3,9.3-2.5,14.4-3.2c7.3-1,14-1,19,1.9c4.6,2.7,6.4,6.5,7.1,11.7
			c0.9,6.4-1.9,12.7-8.5,16.5l0,0.2c4.9,1,7.8,4.4,10,10.7c2.2,6.5,5.1,13.6,6.6,15.6l-14,1.9c-1-1.6-3.4-7.4-5.3-13.8
			c-2.2-7.3-4.7-9.1-9.2-8.5l-1.9,0.3l5.3,38.8l-13.4,1.8L635.7,152.5z M652.6,176.8l2.3-0.3c5.8-0.8,8.6-5.3,7.9-10.6
			c-0.7-5.1-3.5-8.4-9.6-7.7c-1.1,0.2-2.4,0.4-3.1,0.8L652.6,176.8z"/>
		<path class="st115" d="M689.5,141.8h-55.8v-13.7h108.6v13.7h-35.7v82.2h-17V141.8z"/>
		<path class="st115" d="M754.8,189.6l-26.5,4.1l2.8,18.3l45.2-7l1.8,11.5l-57.9,9l-10.5-67.7l49.6-8l1.8,11.5l-37,6l2.4,15.6
			l26.5-4.1L754.8,189.6z"/>
	</g>
	<g>
		<g>
			<path class="st115" d="M514.5,257.2l-10.8-1.9l-2.6,11.1l12.1,2.1l-1.6,6.9l-21.3-3.8l9.6-41l20.5,3.6l-1.6,6.9l-11.3-2l-2.2,9.4
				l10.8,1.9L514.5,257.2z"/>
		</g>
		<path class="st115" d="M566.4,316.8c-2.5,1-7.4,1.8-13.5,1.8c-22.8,0-33.7-16.3-33.7-38.1c0-29.1,18.7-40.4,36.1-40.4
			c6.1,0,10.3,1,12.1,2.1l-2.9,12.6c-2-0.8-4.2-1.5-8.1-1.5c-9.8,0-18.7,7.3-18.7,26.4c0,18.4,8.1,25.6,18.7,25.6
			c2.9,0,6.2-0.6,8.4-1.1L566.4,316.8z"/>
		<path class="st115" d="M619.2,248.5h12.6l-0.1,61h63.7v9.6h-76.1V248.5z"/>
		<path class="st115" d="M590.5,258.5l-6.8,36.8c-1.5,8.3,0.9,11.4,4.2,12c3.7,0.7,6.7-1.1,8.3-9.7l6.8-36.8l12.6,2.4l-6.5,34.9
			c-2.7,14.6-10.4,21.3-23,19c-13.6-2.5-17.4-11.7-14.8-25.9l6.5-35L590.5,258.5z"/>
		<path class="st115" d="M646.1,249.4h-8.5v-9.5h64.8v9.5h-45.6v51.7h-10.8V249.4z"/>
		<path class="st115" d="M674.1,254.4l3,30.1c0.7,6.8,3,8.6,5.4,8.3c2.7-0.3,4.5-2.4,3.8-9.4l-3-30.1l9.4-1.1l2.8,28.5
			c1.2,11.9-2.8,18.9-12.1,20c-10.1,1.2-14.7-5-15.8-16.6l-2.8-28.6L674.1,254.4z"/>
		<path class="st115" d="M697.7,258.6c4.4-1.3,9.9-2.4,15.4-3c7.8-0.9,14.9-0.7,20.1,2.5c4.8,3,6.6,7.1,7.3,12.6
			c0.8,6.8-2.3,13.4-9.4,17.3l0,0.2c5.2,1.1,8.1,4.9,10.3,11.5c2.2,6.9,5.1,14.5,6.6,16.8l-14.9,1.7c-1.1-1.7-3.4-7.9-5.3-14.8
			c-2.2-7.8-4.8-9.8-9.5-9.2l-2.1,0.2l2.9,25.4l-14.2,1.6L697.7,258.6z M715.1,284.8l2.5-0.3c6.2-0.7,9.3-5.5,8.6-11
			c-0.6-5.4-3.6-9-10-8.4c-1.2,0.1-2.6,0.4-3.3,0.8L715.1,284.8z"/>
		<path class="st115" d="M753.7,283.4l-3.1,8l-10.1-0.9l15.7-43.2l12.5,1.2l9.1,57l-10.1-0.9l-1.8-19.9L753.7,283.4z M763,277.1
			l-0.8-9.9c-0.3-2.9-0.6-7.6-0.8-10.8l-0.2,0c-0.8,3.1-2.1,7.8-2.9,10.5l-2.9,9.5L763,277.1z"/>
	</g>
</g>
<text transform="matrix(1 0 0 1 431.3867 442.6587)" class="st115 st116 st117">Dashboard</text>
</svg>
