<?xml version="1.0" encoding="utf-8"?>
<!-- Generator: Adobe Illustrator 21.1.0, SVG Export Plug-In . SVG Version: 6.00 Build 0)  -->
<svg version="1.1" id="Camada_1" xmlns="http://www.w3.org/2000/svg" xmlns:xlink="http://www.w3.org/1999/xlink" x="0px" y="0px"
	 viewBox="0 0 828 315" style="enable-background:new 0 0 828 315;" xml:space="preserve">
<style type="text/css">
	.st0{clip-path:url(#SVGID_2_);fill:#2B2A55;}
	.st1{opacity:0.3;clip-path:url(#SVGID_2_);}
	.st2{opacity:0.3;}
	.st3{clip-path:url(#SVGID_4_);}
	.st4{fill:#305495;}
	.st5{fill:#8499B5;}
	.st6{fill:#10141B;}
	.st7{fill:#2F323B;}
	.st8{fill:#BFDBF5;}
	.st9{fill:#2A4982;}
	.st10{fill:#F4F7FD;}
	.st11{fill:#597FBE;}
	.st12{fill:#141823;}
	.st13{fill:#75A1D6;}
	.st14{fill:#191D2D;}
	.st15{fill:#FFFFFE;}
	.st16{fill:#557ABB;}
	.st17{fill:#252E4A;}
	.st18{fill:#9BBEE7;}
	.st19{fill:#F8F9FC;}
	.st20{fill:#263252;}
	.st21{fill:#273D5F;}
	.st22{fill:#1B2233;}
	.st23{fill:#1D2335;}
	.st24{fill:#21293F;}
	.st25{fill:#CCE2F7;}
	.st26{fill:#C7DEF5;}
	.st27{fill:#2B457B;}
	.st28{fill:#1C2234;}
	.st29{fill:#BAD5F2;}
	.st30{fill:#4C75B8;}
	.st31{fill:#E6EFFA;}
	.st32{fill:#B2CDED;}
	.st33{fill:#1E2438;}
	.st34{fill:#30539B;}
	.st35{fill:#29395F;}
	.st36{fill:#242E49;}
	.st37{fill:#2A477D;}
	.st38{fill:#2F4F9A;}
	.st39{fill:#2A4880;}
	.st40{fill:#253351;}
	.st41{fill:#5E88C5;}
	.st42{fill:#3861A7;}
	.st43{fill:#222B44;}
	.st44{fill:#2D4E90;}
	.st45{fill:#5578BA;}
	.st46{fill:#F4F8FD;}
	.st47{fill:#F3F9FC;}
	.st48{fill:#E3EDFA;}
	.st49{fill:#3F62A9;}
	.st50{fill:#5980BF;}
	.st51{fill:#2B4170;}
	.st52{fill:#2C4E8B;}
	.st53{fill:#4566AB;}
	.st54{fill:#FEFFFF;}
	.st55{fill:#25314D;}
	.st56{fill:#345AA2;}
	.st57{fill:#232C46;}
	.st58{fill:#C9E1F8;}
	.st59{fill:#466AAF;}
	.st60{fill:#2B4377;}
	.st61{fill:#222A42;}
	.st62{fill:#5A80BF;}
	.st63{fill:#2B4273;}
	.st64{fill:#6E98D0;}
	.st65{fill:#222B43;}
	.st66{fill:#98BDE6;}
	.st67{fill:#9AC0E9;}
	.st68{fill:#293A61;}
	.st69{fill:#4B70B4;}
	.st70{fill:#5073B6;}
	.st71{fill:#648BC7;}
	.st72{fill:#537BBC;}
	.st73{fill:#252F4A;}
	.st74{fill:#2C3E6B;}
	.st75{fill:#2A3A61;}
	.st76{fill:#B8D7F4;}
	.st77{fill:#2C4070;}
	.st78{fill:#779FD4;}
	.st79{fill:#6690CB;}
	.st80{fill:#20283D;}
	.st81{fill:#242D48;}
	.st82{fill:#E9F3FD;}
	.st83{fill:#557CBC;}
	.st84{fill:#385074;}
	.st85{fill:#2A467B;}
	.st86{fill:#B6D2F0;}
	.st87{fill:#2B467E;}
	.st88{fill:#1D2437;}
	.st89{fill:#BFDAF4;}
	.st90{fill:#25314E;}
	.st91{fill:#2E518D;}
	.st92{fill:#F0F7FE;}
	.st93{fill:#E4F0FB;}
	.st94{fill:#77A3D8;}
	.st95{fill:#87B2E1;}
	.st96{fill:#283759;}
	.st97{fill:#2B4884;}
	.st98{fill:#273454;}
	.st99{fill:#4D70B3;}
	.st100{fill:#86B0E0;}
	.st101{fill:#C4DAF3;}
	.st102{fill:#6691CB;}
	.st103{fill:#3F66AC;}
	.st104{fill:#BBD6F2;}
	.st105{fill:#2B406D;}
	.st106{fill:#2A3F69;}
	.st107{fill:#232B45;}
	.st108{fill:#85888F;}
	.st109{fill:#2E5190;}
	.st110{fill:#2A3D66;}
	.st111{fill:#1F283C;}
	.st112{fill:#2A3E68;}
	.st113{fill:#1C2535;}
	.st114{opacity:0.2;}
	.st115{fill:#FFFFFF;}
</style>
<g>
	<defs>
		<rect id="SVGID_1_" width="828" height="315"/>
	</defs>
	<clipPath id="SVGID_2_">
		<use xlink:href="#SVGID_1_"  style="overflow:visible;"/>
	</clipPath>
	<rect x="-9" y="-135.3" class="st0" width="855.5" height="776.3"/>
	<g class="st1">
		<defs>
			<rect id="SVGID_3_" x="-9" y="-135.5" class="st2" width="855.5" height="776.6"/>
		</defs>
		<clipPath id="SVGID_4_">
			<use xlink:href="#SVGID_3_"  style="overflow:visible;"/>
		</clipPath>
		<g class="st3">
			<polygon class="st4" points="-42.4,84.8 -42.4,140.6 -14.1,137.8 			"/>
			<polygon class="st5" points="-42.4,140.6 -42.4,196.4 -14.1,137.8 			"/>
			<polygon class="st6" points="-42.4,-138.5 -42.4,-193.8 -42.4,-193.8 			"/>
			<polygon class="st7" points="-42.4,698.2 -42.4,699.3 18.5,699.3 			"/>
			<polygon class="st8" points="-42.4,252.2 -42.4,308 30.1,246.1 			"/>
			<polygon class="st9" points="-42.4,196.4 -42.4,252.2 30.1,246.1 			"/>
			<polygon class="st10" points="-42.4,438.6 -42.4,474.9 24.6,481.6 			"/>
			<polygon class="st11" points="-42.4,474.9 -42.4,530.7 24.6,481.6 			"/>
			<polygon class="st7" points="-42.4,642.4 -42.4,698.2 18.5,699.3 			"/>
			<polygon class="st12" points="-42.4,-193.8 -42.4,-138.5 18.5,-193.8 			"/>
			<polygon class="st13" points="-42.4,419.1 -42.4,438.6 24.6,481.6 			"/>
			<polygon class="st14" points="-42.4,586.5 -42.4,642.4 82.4,666.4 			"/>
			<polygon class="st15" points="-42.4,642.4 18.5,699.3 82.4,666.4 			"/>
			<polygon class="st7" points="18.5,699.3 79.9,699.3 82.4,666.4 			"/>
			<polygon class="st16" points="30.1,246.1 -42.4,308 71.3,267.8 			"/>
			<polygon class="st17" points="-14.1,137.8 -42.4,196.4 30.1,246.1 			"/>
			<polygon class="st18" points="71.3,267.8 -42.4,363.3 113.8,308.6 			"/>
			<polygon class="st19" points="-42.4,308 -42.4,363.3 71.3,267.8 			"/>
			<polygon class="st20" points="-42.4,530.7 -42.4,586.5 24.6,481.6 			"/>
			<polygon class="st21" points="-42.4,-82.7 -42.4,-26.9 134.1,-48.6 			"/>
			<polygon class="st22" points="18.5,-193.8 -42.4,-193.8 134.1,-48.6 			"/>
			<polygon class="st22" points="-42.4,-193.8 18.5,-193.8 134.1,-48.6 			"/>
			<polygon class="st7" points="82.4,666.4 79.9,699.3 141.4,699.3 			"/>
			<polygon class="st23" points="79.9,-193.8 -42.4,-82.7 134.1,-48.6 			"/>
			<polygon class="st16" points="-42.4,-26.9 -42.4,28.9 134.1,-48.6 			"/>
			<polygon class="st24" points="-42.4,-193.8 -42.4,-193.8 134.1,-48.6 			"/>
			<polygon class="st25" points="-42.4,363.3 24.6,481.6 131.6,322 			"/>
			<polygon class="st26" points="113.8,308.6 -42.4,363.3 131.6,322 			"/>
			<polygon class="st27" points="24.6,481.6 -42.4,586.5 82.4,666.4 			"/>
			<polygon class="st28" points="-42.4,-138.5 -42.4,-82.7 79.9,-193.8 			"/>
			<polygon class="st28" points="18.5,-193.8 -42.4,-138.5 79.9,-193.8 			"/>
			<polygon class="st29" points="-42.4,363.3 -42.4,419.1 24.6,481.6 			"/>
			<polygon class="st30" points="24.6,481.6 82.4,666.4 180.2,554.7 			"/>
			<polygon class="st31" points="131.6,322 24.6,481.6 188.2,416.3 			"/>
			<polygon class="st32" points="186.9,353.8 131.6,322 188.2,416.3 			"/>
			<polygon class="st33" points="79.9,-193.8 134.1,-48.6 141.4,-193.8 			"/>
			<polygon class="st34" points="188.2,416.3 180.2,554.7 199.2,546.9 			"/>
			<polygon class="st35" points="24.6,481.6 180.2,554.7 188.2,416.3 			"/>
			<polygon class="st36" points="82.4,666.4 141.4,699.3 180.2,554.7 			"/>
			<polygon class="st37" points="-42.4,28.9 -42.4,84.8 134.1,-48.6 			"/>
			<polygon class="st38" points="-42.4,84.8 -14.1,137.8 134.1,-48.6 			"/>
			<polygon class="st39" points="188.2,416.3 199.2,546.9 238,490.5 			"/>
			<polygon class="st40" points="141.4,-193.8 134.1,-48.6 202.9,-193.8 			"/>
			<polygon class="st7" points="180.2,554.7 141.4,699.3 202.9,699.3 			"/>
			<polygon class="st41" points="-14.1,137.8 30.1,246.1 71.3,267.8 			"/>
			<polygon class="st42" points="134.1,-48.6 -14.1,137.8 275.5,23.4 			"/>
			<polygon class="st7" points="199.2,546.9 202.9,699.3 264.4,699.3 			"/>
			<polygon class="st43" points="199.2,546.9 180.2,554.7 202.9,699.3 			"/>
			<polygon class="st44" points="-14.1,137.8 71.3,267.8 275.5,23.4 			"/>
			<polygon class="st45" points="186.9,353.8 188.2,416.3 328.4,360.5 			"/>
			<polygon class="st46" points="131.6,322 186.9,353.8 345,202.5 			"/>
			<polygon class="st47" points="71.3,267.8 113.8,308.6 345,202.5 			"/>
			<polygon class="st43" points="275.5,23.4 71.3,267.8 345,202.5 			"/>
			<polygon class="st48" points="113.8,308.6 131.6,322 345,202.5 			"/>
			<polygon class="st49" points="188.2,416.3 238,490.5 328.4,360.5 			"/>
			<polygon class="st50" points="264.4,-193.8 134.1,-48.6 275.5,23.4 			"/>
			<polygon class="st51" points="202.9,-193.8 134.1,-48.6 264.4,-193.8 			"/>
			<polygon class="st52" points="238,490.5 199.2,546.9 376.9,591 			"/>
			<polygon class="st53" points="199.2,546.9 264.4,699.3 376.9,591 			"/>
			<polygon class="st7" points="264.4,699.3 325.9,699.3 376.9,591 			"/>
			<polygon class="st54" points="186.9,353.8 328.4,360.5 345,202.5 			"/>
			<polygon class="st55" points="387.4,-193.8 325.9,-193.8 394.2,-105.6 			"/>
			<polygon class="st56" points="264.4,-193.8 275.5,23.4 394.2,-105.6 			"/>
			<polygon class="st57" points="325.9,-193.8 264.4,-193.8 394.2,-105.6 			"/>
			<polygon class="st7" points="376.9,591 325.9,699.3 387.4,699.3 			"/>
			<polygon class="st58" points="345,202.5 328.4,360.5 430.4,337.6 			"/>
			<polygon class="st59" points="328.4,360.5 376.9,591 463.6,394 			"/>
			<polygon class="st60" points="430.4,337.6 328.4,360.5 463.6,394 			"/>
			<polygon class="st61" points="387.4,-193.8 394.2,-105.6 448.9,-193.8 			"/>
			<polygon class="st7" points="376.9,591 387.4,699.3 448.9,699.3 			"/>
			<polygon class="st62" points="328.4,360.5 238,490.5 376.9,591 			"/>
			<polygon class="st63" points="448.9,-193.8 394.2,-105.6 500.5,-160.3 			"/>
			<polygon class="st64" points="463.6,394 376.9,591 510.4,503.4 			"/>
			<polygon class="st65" points="448.9,-193.8 500.5,-160.3 510.4,-193.8 			"/>
			<polygon class="st66" points="500.5,-160.3 394.2,-105.6 530,-88.3 			"/>
			<polygon class="st67" points="345,202.5 430.4,337.6 578.6,241.6 			"/>
			<polygon class="st68" points="510.4,-193.8 500.5,-160.3 571.2,-193.8 			"/>
			<polygon class="st62" points="500.5,-160.3 530,-88.3 571.2,-193.8 			"/>
			<polygon class="st69" points="394.2,-105.6 275.5,23.4 530,-88.3 			"/>
			<polygon class="st70" points="376.9,591 510.4,699.3 510.4,503.4 			"/>
			<polygon class="st7" points="376.9,591 448.9,699.3 510.4,699.3 			"/>
			<polygon class="st71" points="463.6,394 510.4,503.4 629,467.7 			"/>
			<polygon class="st72" points="430.4,337.6 463.6,394 578.6,241.6 			"/>
			<polygon class="st73" points="510.4,503.4 510.4,699.3 571.2,699.3 			"/>
			<polygon class="st74" points="275.5,23.4 345,202.5 530,-88.3 			"/>
			<polygon class="st75" points="530,-88.3 345,202.5 667.2,116 			"/>
			<polygon class="st76" points="345,202.5 578.6,241.6 667.2,116 			"/>
			<polygon class="st77" points="578.6,241.6 463.6,394 677.6,304.7 			"/>
			<polygon class="st45" points="571.2,-193.8 530,-88.3 632.7,-193.8 			"/>
			<polygon class="st78" points="463.6,394 629,467.7 677.6,304.7 			"/>
			<polygon class="st79" points="677.6,304.7 629,467.7 713.3,352.7 			"/>
			<polygon class="st80" points="510.4,503.4 571.2,699.3 632.7,699.3 			"/>
			<polygon class="st59" points="629,467.7 510.4,503.4 632.7,699.3 			"/>
			<polygon class="st81" points="629,467.7 694.2,699.3 750.8,483.8 			"/>
			<polygon class="st82" points="713.3,352.7 629,467.7 750.8,483.8 			"/>
			<polygon class="st83" points="632.7,-193.8 530,-88.3 694.2,-193.8 			"/>
			<polygon class="st84" points="629,467.7 632.7,699.3 694.2,699.3 			"/>
			<polygon class="st85" points="667.2,116 578.6,241.6 677.6,304.7 			"/>
			<polygon class="st86" points="713.3,352.7 750.8,483.8 830.7,358.3 			"/>
			<polygon class="st87" points="750.8,483.8 694.2,699.3 755.7,699.3 			"/>
			<polygon class="st88" points="530,-88.3 667.2,116 694.2,-193.8 			"/>
			<polygon class="st89" points="677.6,304.7 713.3,352.7 830.7,358.3 			"/>
			<polygon class="st90" points="878.7,-193.8 817.2,-193.8 879.9,-138.5 			"/>
			<polygon class="st28" points="879.9,-193.8 878.7,-193.8 879.9,-138.5 			"/>
			<polygon class="st91" points="755.7,-193.8 694.2,-193.8 879.9,-26.9 			"/>
			<polygon class="st92" points="667.2,116 828.9,75.8 879.9,-26.9 			"/>
			<polygon class="st61" points="694.2,-193.8 667.2,116 879.9,-26.9 			"/>
			<polygon class="st93" points="879.9,-26.9 828.9,75.8 879.9,28.9 			"/>
			<polygon class="st94" points="879.9,28.9 828.9,75.8 879.9,84.8 			"/>
			<polygon class="st95" points="828.9,75.8 667.2,116 879.9,140.6 			"/>
			<polygon class="st96" points="879.9,84.8 828.9,75.8 879.9,140.6 			"/>
			<polygon class="st97" points="879.9,140.6 667.2,116 879.9,196.4 			"/>
			<polygon class="st98" points="667.2,116 677.6,304.7 879.9,196.4 			"/>
			<polygon class="st99" points="879.9,196.4 677.6,304.7 879.9,252.2 			"/>
			<polygon class="st100" points="677.6,304.7 830.7,358.3 879.9,252.2 			"/>
			<polygon class="st101" points="879.9,252.2 830.7,358.3 879.9,308 			"/>
			<polygon class="st102" points="879.9,308 830.7,358.3 879.9,363.3 			"/>
			<polygon class="st7" points="879.9,642.4 817.2,699.3 879.9,698.2 			"/>
			<polygon class="st7" points="817.2,699.3 878.7,699.3 879.9,698.2 			"/>
			<polygon class="st103" points="879.9,363.3 830.7,358.3 879.9,419.1 			"/>
			<polygon class="st104" points="830.7,358.3 750.8,483.8 879.9,419.1 			"/>
			<polygon class="st105" points="879.9,419.1 750.8,483.8 879.9,474.9 			"/>
			<polygon class="st106" points="879.9,474.9 750.8,483.8 879.9,530.7 			"/>
			<polygon class="st107" points="817.2,699.3 879.9,642.4 879.9,586.5 			"/>
			<polygon class="st108" points="755.7,699.3 817.2,699.3 879.9,586.5 			"/>
			<polygon class="st109" points="750.8,483.8 755.7,699.3 879.9,586.5 			"/>
			<polygon class="st110" points="879.9,530.7 750.8,483.8 879.9,586.5 			"/>
			<polygon class="st7" points="879.9,698.2 878.7,699.3 879.9,699.3 			"/>
			<polygon class="st111" points="879.9,-138.5 817.2,-193.8 879.9,-82.7 			"/>
			<polygon class="st112" points="817.2,-193.8 755.7,-193.8 879.9,-82.7 			"/>
			<polygon class="st113" points="755.7,-193.8 879.9,-26.9 879.9,-82.7 			"/>
		</g>
	</g>
</g>
<g class="st114">
	<g>
		<g>
			<g>
				<g>
					<path class="st115" d="M805.2,64.2c14.1-0.1,9-0.2,11.2-0.2C792.8,64.2,805.8,64.2,805.2,64.2z"/>
					<polygon class="st115" points="572.6,66.3 576.7,66.2 542.4,66.5 					"/>
					<path class="st115" d="M355,68c20.6,0,78.8-0.6,117.6-0.9l6.4,0l17.5-0.3C449.4,67.2,388.2,67.7,355,68z"/>
					<path class="st115" d="M239.1,68.5c7.2,0-25.1,0.3,27-0.2c-2.6,0-3.4,0-4.9,0C256.5,68.3,250.1,68.4,239.1,68.5z"/>
					<path class="st115" d="M261.2,68.3C284.1,68.1,246.2,68.4,261.2,68.3L261.2,68.3z"/>
					<path class="st115" d="M155.4,69.2l30.2-0.3c-6.3,0-33.2,0.2-23.2,0.1C131.4,69.3,137.8,69.2,155.4,69.2z"/>
					<path class="st115" d="M126.8,69.5l15.6-0.1C139.7,69.4,135.6,69.4,126.8,69.5z"/>
					<path class="st115" d="M175.6,69.1l-33.2,0.3c4.4,0,4.8,0,15.2-0.1C155,69.3,161.5,69.2,175.6,69.1z"/>
					<path class="st115" d="M194.4,68.9c16.9-0.1,38.8-0.2,8.5,0.1C260.6,68.5,252.1,68.5,194.4,68.9z"/>
					<path class="st115" d="M343.9,68.2l22.6-0.1l19.6-0.2C376.4,68,345.4,68.2,343.9,68.2z"/>
					<path class="st115" d="M88.7,105.1c1.6,0.9-8.7-5.3-10.6-6.5L59,87.2C68.8,93.1,87.4,104.3,88.7,105.1z"/>
					<path class="st115" d="M78.1,98.6l28.7,17C81.2,100.4,76.5,97.6,78.1,98.6z"/>
					<polygon class="st115" points="121.4,69.8 176.2,69.2 110.9,69.9 					"/>
					<polygon class="st115" points="198.1,170.4 181.8,160.7 210.8,177.9 					"/>
					<path class="st115" d="M270.6,213.6c-12.1-7.1,16.4,9.9,3.7,2.4c19.7,11.7,36.6,21.7,51.8,30.7
						C310,237.2,292.8,226.9,270.6,213.6z"/>
					<path class="st115" d="M351.6,261.9c-8.1-4.8-16.4-9.7-25.5-15.1C334.6,251.9,343.1,256.8,351.6,261.9z"/>
					<path class="st115" d="M155.6,144.8c2.2,1.3,6.4,3.9,22.5,13.5l-11.2-6.8C163.4,149.4,159.5,147.1,155.6,144.8z"/>
					<path class="st115" d="M166.5,151.3l0.4,0.2c12.2,7.3,20.7,12.4,24.3,14.5C188.1,164.2,180.6,159.7,166.5,151.3z"/>
					<path class="st115" d="M152.7,143.1c1,0.6,1.8,1.1,2.8,1.7C154.5,144.1,153.8,143.7,152.7,143.1z"/>
					<path class="st115" d="M32.8,70.4c-0.5,0-1,0-1.6,0c9,5.3,22.3,13.2,28.9,17.2c6.3,3.7,6.3,3.7-10.3-6.3
						c-5.9-3.5-4.3-2.5-4.1-2.4c0.1,0.1-0.2-0.1-2-1.1c-2-1.2-5.7-3.4-12.4-7.4C31.3,70.4,32,70.4,32.8,70.4z"/>
					<path class="st115" d="M138.8,134.6l-30.4-18.2c0.6,0.4,6,3.7-2.3-1.3L138.8,134.6z"/>
					<polygon class="st115" points="153.7,143.5 138.8,134.6 150.1,141.3 					"/>
					<path class="st115" d="M299.5,230.7c13.1,7.8,27.5,16.4,43.8,26.1c-17.4-10.4-35.4-21.1-52.5-31.3
						C288.4,224,280.9,219.6,299.5,230.7z"/>
					<path class="st115" d="M234.9,192.1c0.9,0.5,2.1,1.2,2.9,1.7C236,192.7,234.5,191.9,234.9,192.1z"/>
					<path class="st115" d="M374.1,180.2c0.3,1,0.5,1.9,0.8,2.9c0.1,0.2,0.1,0.4,0.2,0.7L374.1,180.2z"/>
					<path class="st115" d="M287.9,223.7c-13.1-7.8-20.9-12.4-28.4-16.9c9.8,5.8,20.1,12,31.3,18.6
						C291.9,226.1,292.1,226.2,287.9,223.7z"/>
					<path class="st115" d="M396.2,288.5c-6.8-4.1-14.5-8.7-22.6-13.6C380.2,278.9,393.8,287,396.2,288.5z"/>
					<path class="st115" d="M242.2,196.5c-0.7-0.4-1.2-0.7-2-1.2C244.5,197.9,244,197.6,242.2,196.5z"/>
					<path class="st115" d="M242.2,196.5c6.7,4,12,7.1,17.4,10.3c-8-4.7-15.4-9.1-21.8-12.9C239.4,194.8,241,195.8,242.2,196.5z"/>
					<path class="st115" d="M358.7,125.9c0.8,2.6,11.4,41.2,20.3,74.6c9,32.8,3.5,11.3-4.1-17.4c-0.3-1-0.4-1-9.6-34.8
						c3.2,11.8,20.2,75,12.4,46.5c-12.2-44.7-9.9-36.7-15.7-58.5c4.9,18.5-15.6-56.9-13.1-47.1l10.7,39.2
						C359.7,129.2,355.8,115,358.7,125.9z"/>
					<path class="st115" d="M392.3,247.5l3.8,13.9c-4.3-15.9-7.3-27.2-12.9-48.1c-6.3-23.1-7.6-27.9-8.1-29.5l18.5,68.5L392.3,247.5
						z"/>
					<path class="st115" d="M375.4,275.9c4.8,2.9,14.7,8.7,21.1,12.4c3.4,2,5.8,3.4,6.2,3.6c0.1,0.1,0.1,0-0.1-0.1
						c-0.2-0.1-0.6-0.4-1.2-0.7c-0.9-0.6-2.4-1.5-4.7-2.8c-36.3-21.7-25.5-15.1-47.2-28c58.6,34.9-16.9-10,25.4,15.3
						c-11.5-6.9-21.9-13-31.7-18.9c10.5,6.3,20.7,12.4,30.3,18.1c-0.5-0.3-0.9-0.5-1.3-0.8l-0.3-0.2l0.1,0c-2.5-1.5-3.3-2-0.5-0.3
						c0.2,0.1,0.9,0.5,1.2,0.7C373.1,274.6,374.2,275.2,375.4,275.9c17,10.1,2.7,1.6-2.7-1.5c-0.2-0.1-0.7-0.4-0.7-0.4
						c0.1,0,0.1,0.1,0.2,0.1l32.6,19.4l-8.7-32.2c2.3,8.4,4.9,18.1,8.7,32.1C397.4,289,387.5,283.1,375.4,275.9z"/>
					<path class="st115" d="M81.2,99.7c1.8,1.1,1.7,1.1,1.9,1.1C86.9,103.1,88.3,104,81.2,99.7z"/>
					<path class="st115" d="M105.3,114.2c-4.3-2.5-7.8-4.7-21.7-12.9c-12-7.2,0.1,0-0.5-0.4c-8.4-5-29.3-17.4-3.1-1.7l4.2,2.5
						c23.6,14.1,53.9,32.4,49.8,29.9C127,127.3,121,123.6,105.3,114.2z"/>
					<path class="st115" d="M242,196l48.9,29.1l-24.8-14.9l1.2,0.8C239.6,194.4,245.5,198,242,196z"/>
					<polygon class="st115" points="372.5,173.9 374.6,181.1 365.8,149.5 					"/>
					<polygon class="st115" points="353.1,102.5 353.9,105.1 348.8,86.3 					"/>
					<path class="st115" d="M648.7,287.8l13,10.6C655.5,293.3,651.6,290.1,648.7,287.8z"/>
					<path class="st115" d="M554.9,211.2l-2.3-1.8C557,212.9,558.8,214.3,554.9,211.2z"/>
					<path class="st115" d="M106.6,204.4c-24.3,0.6-51.5,1.2-48.6,1.2l7.5-0.1C82.4,205,95.5,204.7,106.6,204.4z"/>
					<path class="st115" d="M515,310c2.1-1,4.2-2.1,6.4-3.2c5.3-2.7,10.2-5.3,14.6-7.6C529.7,302.5,522.5,306.1,515,310z"/>
					<path class="st115" d="M499.3,316.3l-31.7-5.3C474.8,312.2,485,313.9,499.3,316.3z"/>
					<path class="st115" d="M802.9,271.9l-19.5,0.8C813.9,271.6,800.5,272,802.9,271.9z"/>
					<path class="st115" d="M271.6,246.5c20.8-2.7,37.4-4.8,52-6.7C298.5,243,278.2,245.6,271.6,246.5z"/>
					<path class="st115" d="M611.1,258.5c7.9,6.5,11.3,9.2,11.1,9C614,260.9,609.4,257.1,611.1,258.5z"/>
					<path class="st115" d="M383.8,232c-3.7,0.5-7.3,0.9-11,1.4c-15.2,2-30.6,4-49.2,6.4C342.2,237.5,363.4,234.7,383.8,232z"/>
					<path class="st115" d="M83.1,49.8c-1.7-0.1-3.8-0.3-5.4-0.4C77.2,49.3,79.6,49.5,83.1,49.8z"/>
					<path class="st115" d="M637.4,35.9c-6.9,0.1-18.1,0.2-28.7,0.4C613.8,36.2,622.5,36.1,637.4,35.9z"/>
					<path class="st115" d="M161.7,158C174,148.2,163.6,156.4,161.7,158L161.7,158z"/>
					<path class="st115" d="M221.7,110.9c-2.6,2.1-4.6,3.7-4.9,3.9C217.8,114,219.5,112.6,221.7,110.9z"/>
					<path class="st115" d="M538.6,211.1c0.5-0.1,0.8-0.1,1.3-0.2C535.4,211.5,536.1,211.4,538.6,211.1z"/>
					<path class="st115" d="M180.2,143.4c-4.6,3.7-9.9,7.9-15.7,12.5C167,153.8,171.8,150,180.2,143.4z"/>
					<path class="st115" d="M177.7,145.3c4.2-3.4,7.6-6,10.7-8.5C190,135.5,188.6,136.6,177.7,145.3z"/>
					<path class="st115" d="M144.6,171.6c7-5.6,13.6-10.8,19.9-15.8c-2.4,1.9-3.4,2.7-2.8,2.2C158.1,160.9,153,164.9,144.6,171.6z"
						/>
					<path class="st115" d="M291.5,229.9c1-0.2,2.2-0.5,3.3-0.7C310.2,225.6,303.4,227.1,291.5,229.9z"/>
					<path class="st115" d="M228.6,29.9c-0.7-0.2-1.1-0.3-1.7-0.5c0.7,0.2,1.6,0.5,2.2,0.6L228.6,29.9z"/>
					<path class="st115" d="M282.8,45.2C259.7,38.8,246.6,35,229.1,30l17.8,5.4L282.8,45.2z"/>
					<path class="st115" d="M691.1,54.7l-2.7,39.5c3-47.7,5.4-82.1,2.8-45.1c0,5.6-10.2,153.4-10.2,158.9l-1.8,26
						c0.5-7.5,0.6-8.6,1.1-16c-1.7,23.8-2.3,33.5-2.9,43.9c-0.3,5.2-0.6,10.6-1.1,17.9c-0.5,7.1-1,16.2-1.9,29c-2.4-2-5-4.1-7.8-6.4
						c-17.6-14.4-29.9-24.5-17.9-14.7l-39.4-32c-11.4-9.3-8.6-7.1,2.8,2.2l-60-48.9l0.5,0.4c-8.6-7-28-22.7-37.5-30.4
						c-15.2-12.5,7.7,6.2,3.8,3l-33.3-27c-13.5-11.1,14.1,11.3,37,30c-30.8-25.6-27.6-22.4-94.4-77.2l31.4,25.6
						c-20.1-16.6-44.6-36.6-80-65.6c8.4,6.9,70.8,58.2,34.7,28.8c-10.2-8.3-23.5-19.2-43-35.1c0,0-0.2-0.2-0.7-0.6
						c-0.5-0.4-1.1-0.9-2-1.6c-1.8-1.5-4.4-3.6-7.7-6.3c-8,6.1-20.3,15.5-34.1,26.1l1.6-1.4c-26.3,20.2-24.2,18.6-39.6,30.5
						c-29.4,22.4-35.5,27-42.5,32.2c-47,35.9,32.6-24.7-23,17.9c-39.1,29.9-66.5,50.9-113.2,86.7c-3.4,2.6-6,4.6-7.6,5.8
						c3.1,0.5,5,0.8,6,1c0.8,0.1,1,0.2,0.6,0.1c-0.8-0.1-3.9-0.6-6.8-1.1c1.9-1.5,3.7-2.9,4.4-3.4c0.3-0.2,0.3-0.3,0.1-0.1
						c-0.3,0.2-0.8,0.6-1.8,1.4l-2.7,2.1l29.4,4.7c7.4,1.2,5,0.9,3.8,0.7c25.4,4.1,2.1,0.2,42,6.7c10.8,1.6,81.9,13.8,131.3,21.7
						c12.2,2.1-5.9-0.9-2.2-0.2c67.8,11,58.1,9.5,113.7,18.5l47.4,7.9c-30.7-5.2,0.4-0.2,34.9,5.4c4.1-2.1,8.3-4.3,12.4-6.4
						c-5.1,2.6-9.9,5-12.4,6.3c-7.5-1.3-12.4-2.1-16.2-2.7l16.2,2.6l41.4-21.3c6.8-3.4,1.2-0.5-8,4.3c3.8-2,7.4-3.8,10.3-5.3
						c20.1-10.2,9.7-4.8-4.6,2.6c-6.9,3.5-13.7,6.9-20.3,10.3c-7.3,3.8-14.3,7.5-18.8,9.8c-2.4-0.4-4.3-0.6-5.3-0.8
						c-1-0.1-1.3-0.2-0.5,0c1.4,0.2,3.2,0.5,5.8,0.9c3.3-1.7,8.2-4.2,13.3-6.8c-3.6,1.9-5.9,3.1-4.2,2.2c1.9-1,7.7-4,16.9-8.7
						l12.8-6.4l3.1-1.6l73.5-37.4c44.4-22.9,83.9-43.2,145.7-75.1c-11.9-3.4-24.9-7.1-38.8-11c22.4,6.2,4.9,1.2,6.1,1.4
						c8.8,2.5,20.2,5.8,33.4,9.6c-22.2,11.4-50,25.6-78.3,40.1c22.6-11.5,17.6-8.9,11.9-6l66.6-34.2l-13.3-3.8
						c1.9,0.4-17.7-5.1-39.4-11.4c16.4,4.9-62.1-17.5-96-27.1c-2.1-0.7,6.1,1.6,47.4,13.3c-45.5-13.2-59-16.5-103.7-29.4
						c10.1,2.9,15.5,4.4,19.5,5.5c-23.6-6.6-81.2-23.1-67.6-19.3l10.1,2.9c-67-19.1-203.9-58.1-213.9-60.8
						c-0.7-0.2,8.8,2.3,12.9,3.4L201,22.8c10.6,2.8-29.7-9.1,25.9,6.6c-8.9-2.5-19-5.4-32.3-9.2c-7.5,7.3-16.7,16.3-28,27.3
						c8.1-7.9,20.4-19.5,9.3-8.7c-30.5,29.5-21.2,20.5-58.8,56.8c12.2-11.8-1.1,1.5-20.3,20.2c3-2.9-1.8,1.4,5.2-5.5l-47.6,46.7
						c11.9-11.6,1.9-2.2-8.8,8.1c2-1.9-4.4,4.3-13.5,13.2c-9.5,9.2-21.8,21.1-31.1,30.2c6.5-0.2,12.1-0.3,15.8-0.4l-15.7,0.4
						L11.7,198c-3.8,3.7-7.4,7.2-10.7,10.4c15.9-0.5,28-0.8,38.5-1.1c10.1-0.3,18.5-0.6,27.2-0.9c17.4-0.6,35.8-1.2,70.7-2.2
						c-9,0.3-22.3,1,15.7,0c17.4-0.6,77.1-2.8,143.1-4.8l12.7-0.3l50.7-1.5c-31.6,1-120.1,4-168.5,5.6c28.2-0.7,7.8-0.1,50-1.3
						c14.9-0.3-23,0.8-35.4,1.1l98.2-2.7c-4.4,0,75.1-2.3,71.4-2.3l-106.7,3.2c-4.3,0,61.7-2.2,131.3-4.1
						c17.7-0.4-13.2,0.7-11.8,0.7c9-0.3,66-1.9,72.4-2.1l-29.5,0.9c38.7-1,63.2-2,109.8-3.1c16.1-0.4,48-1.1,50.8-1.3
						c-26.2,0.5-31.4,0.1-13.9-0.5c5.6-0.1,84.4-2.1,102.7-2.6c26.5-0.6-39.7,1.5-17.2,1c1-0.1,15.6-0.5,21.7-0.7
						c7.7-0.2,6.9-0.1,7.4-0.1c0.2,0,0.7,0,2.8,0c1.3,0,3.7-0.1,7.8-0.2c1,0,2.5-0.1,4.2-0.1c0.3,0,0.9,0,1.7-0.1
						c-1.1,0.2-3,0.4-5.1,0.7c-8.2,1.1-19,2.5-23,3c-2.3,0.3-2.6,0.3,0.4,0c2.8-0.4,8.8-1.1,19.3-2.5c-35.1,4.6-37.3,4.8-78.6,10.2
						c13.3-1.6-37.5,5.3-73.1,10c2.1-0.3-5.9,0.7-9.8,1.2c-72.9,9.5-112.1,14.5-180.1,23.4c-6.3,0.8-39.1,5-25.1,3.1
						c-9.8,1.3-18.8,2.5-39.7,5.3c-40.6,5.1,46.8-6.1,15.8-2.3c-2.6,0.4-54.2,7.2-84.1,11.2c9.2-1,69-9,99-12.9c0,0-0.2,0.1-0.6,0.1
						c-0.4,0.1-1,0.1-1.7,0.3c-1.5,0.2-3.8,0.5-6.8,1c-6,0.8-14.7,2-25.6,3.5c-21.9,2.9-52.7,7-88.2,11.7
						c-56.5,7.4-24.5,3.1-34.3,4.4c-97.7,12.9-93.2,12.3-159.3,21c5.2-4.1,11.1-8.8,17.7-14.1c27.7-21.8,1.4-0.8,7.6-5.6
						c-8.9,7.1-16.8,13.3-23.9,19c28.3-3.7,48.2-6.2,71.9-9.3l-38.4,4.9c14.6-1.9,45.4-5.9,62.1-8.1c-13.1,1.7-50.6,6.6-95.3,12.3
						c43.3-34.4,95.2-75.6,130.8-103.9c11.5-9.2,31.2-25,21.8-17.5l-20.4,16.3c-18.9,14.9,38.4-30.7,12.5-10.2
						c27.4-21.9,58.1-46.4,96.7-77.1l7.4-5.7c-0.9,0.6-25.3,20-36.1,28.7c16.1-12.9,59.3-46.9,76.8-61.1L271.7,71
						c17.8-14.2,38.3-30.6,59.8-47.8c4.1,15,8.2,30.3,12.4,45.8c-5.1-19.2-2.6-9.7-10.6-39.8c0.9,3.3,1,4,0.7,2.9
						c-0.3-1.2-1.2-4.5-2.5-9.1c-10.2,8.1-29.2,23.3-42.5,33.8c-13,10.4-20.3,16.2-7.6,6.2c-25,19.8-43.3,34.2-76,60.1
						c1-0.8,11.6-9.1-17.1,13.7c-1.3,1-4.3,3.5-6.3,5c-0.9,0.7-1.2,0.9-1.9,1.5c0.6-0.5,1-0.8,1.6-1.3c-1.2,1-1.4,1.1,0.6-0.5
						c6.9-5.4,12.4-9.8,14.7-11.6c-14.2,11.4-59.9,47.8-75.3,60.1c-17.1,13.5,7.1-5.7-2.2,1.6l-23,18.4c-2.4,1.7-45.4,35.9-5.3,3.9
						l-36.1,28.7c-14.5,11.5-32.5,25.8-48.3,38.3c11.6-1.5,22.2-2.9,30.9-4.1c21.6-2.8,54.5-7.2,35.7-4.7l71.8-9.4l0.7-0.1
						c70.9-9.2,145.8-19.2,226.9-29.6c23.9-3.1,48.5-6.3,88.4-11.6l7.8-0.9c30.6-4,92-12,105.1-13.7c11-1.3,31.1-3.9,55-7
						c26.4-3.4,56.9-7.4,85.8-11.2c0.5-0.3,1-0.7,1.4-1c-0.6-0.3-1.1-0.5-1.7-0.8c-22.5,0.6-43.1,1.2-59,1.6l-2,0.2
						c-37.4,1.1-73.2,2.1-119.6,3.4l2.9,0c-40,1.1-102.8,2.8-166.1,4.6c4.3-0.2,20.3-0.6,31.7-0.9c-75.6,1.9-159.5,4.6-228,6.4
						c-17.1,0.5-29.5,0.8-41.4,1.2c1.6,0,3-0.1,4.2-0.1c-1.8,0-4.4,0.1-7,0.2c-7.5,0.2-15.3,0.4-23.7,0.6c7.2-0.2,14-0.3,20-0.5
						c-13.2,0.4-33.2,1-52.7,1.5l-8.3,0.1c-1.6,0-2.9,0.1-4.5,0.1c-19.2,0.5-15.5,0.5-5.2,0.3c-9.9,0.3-18.9,0.6-25.9,0.8
						c-3.3,0.1-7.4,0.2-12.1,0.3c-4.3,0.1-9.2,0.3-14.3,0.4c5.2-5.1,10.7-10.4,16-15.6c5.6-5.4,10.9-10.6,15.4-14.9
						c9.4-9.3,70.6-68.7,77.9-76.1c0.5-0.4,4.6-4.5-2.9,2.9c15.7-15.2,31.3-30.4,45.4-44.1l6.8-6.4L194.8,21l1.3,0.4
						c27.8,8,39.4,11.4,11.7,3.6c66.9,18.9,54.2,15.3,111.1,31.4l-2.8-0.7c20.3,5.8,52.8,14.9,65,18.5
						c45.4,13,224.8,64.2,341.4,97.5c-8-2.4-3.5-1.1,5.9,1.6c9.1,2.6,22.9,6.6,33.8,9.7c-3.9,2-7.3,3.7-10,5.1
						c-2.9,1.5-4.9,2.5-5.5,2.9c-6.3,3.2-21.4,10.8-3.9,1.8C687.8,221,660,235,622.1,254.7c-6.3,3.2,11.7-6.1,6.1-3.3
						c-4.4,2.3-17.5,9-23.2,11.9c-5.6,2.8,8-4.2,16.8-8.7c-56.3,28.8-61.9,31.9-65.9,34.2c-11.9,6-21.2,10.8-29.7,15.1
						c-8.4,4.3-15.7,8.1-23.6,12.1c-3.5-0.6-7.2-1.1-11-1.8c-11-1.9-29.3-5,9.4,1.4c-10.9-1.8-44.2-7.3-75.1-12.4
						c-15.4-2.5-30.2-5-41.3-6.8c-11.1-1.8-18.5-3-19-3.1c-6.8-1.1-30.5-5-36.2-6c-48.9-8.1-53.2-8.8-101.3-16.7l13.3,2.2
						c-19-2.9-39.9-6.6-78.7-12.9l1.1,0.2c-39-6.5-50.8-8.4-59.3-9.8c8.9-6.8,13.7-10.5,52.6-40.1l-3.9,2.8
						c6.4-5.2,62.6-47.7,103.5-79.1l-14.8,11.2c22.3-17.2,62.7-47.5,85.2-64.7c4.9-3.7-7.7,5.9-14.5,11.2
						c14.4-11,22.2-16.9,26.4-20.2c2.1-1.6,3.3-2.6,4-3.1c0.7-0.5,0.9-0.7,0.9-0.7c0.1-0.1-0.5,0.3,1.5-1.2
						c1.9-1.5,6.2-4.8,15.8-12.1c0.5,0.4,1.3,1.1,2.1,1.7c7.8,6.5-10.3-8.1,18.5,15.4c14.3,11.7,83.6,67.9,122.7,100
						c-8.6-7.1-17.1-14.2,2.7,2c30.4,24.8,82.1,67.3,109.7,89.6c3.9,3.2,5.3,4.4,5.5,4.5c12.7,10.3,33.9,27.6,52.9,43.1
						c1.4-21.2,2.6-40.4,3.1-48.8c1.1-13.8,4.2-60.4,7-103.4c1.4-21.5,2.8-42.1,3.8-57.3c0.5-7.6,0.9-13.8,1.2-18.2
						c0.2-2.2,0.3-3.8,0.4-5c0.1-1.1,0.2-1.7,0.2-1.7l4.6-68.7l9.1,17.9l-1.1-2.1c26.6,52.7,36.1,71.2,45.6,89.7
						c6.1,12.2,1.6,3.3,1.1,2.3c38.9,77,42.8,84.6,75.6,149l2.7,5.5l-0.5,0c-19.6,0.7-124.4,4.2-208.8,7c0.8,0,2.6-0.1,9.3-0.4
						c-95.1,3.4-227.7,7.4-262.5,9l-62.7,2.2c81.2-2.7-12.1,0.6,21.3-0.5c-31.9,1.1-82.5,2.7-43.3,1.3l6.1-0.2
						c14.4-0.7-100.9,3.3-98.7,3.1c-62.8,2.1-125,4.2-186.3,6.3c-0.9,0-1.8,0.1-2.7,0.1c0.9-0.2,1.8-0.4,2.6-0.6
						c87.8-20.2,173.7-40,257.7-59.3l-16.9,3.7l50.9-11.7c13.4-3,18-4-18.3,4.4c9.6-2.1,24.8-5.7,37.7-8.7c13-3,23.6-5.6,24.2-5.7
						c71.1-16.3-27.7,6.6-5.9,1.6l29.6-6.8l-6.7,1.5c24-5.6,26.1-6.2,69.7-16.2c27.6-6.3,14.2-3.2,25.1-5.7c0.1,0,3.6-0.8,16.7-3.8
						l64.1-14.8l-25.7,5.8c28.4-6.6,60.3-13.9,30.7-7.2c43.5-9.8,239.2-55,265.9-61.1c7.7-1.8,15.4-3.6,23.1-5.4
						c-34.4-2.7-69.8-5.5-111.8-8.9c12.4,1,19.8,1.8-23.2-1.7c15.7,0.9-78.6-6.4-113.3-9.4c31,2.6-122.1-9.7-73.4-5.6
						c-35.8-2.9-2.2-0.3-29.3-2.5c-85.3-6.8-188-15-293.4-23.5c-1.6-0.1,16,1.4-6.6-0.4l-55.6-4.7c-20.8-1.6-19.2-1.3-57.2-4.5
						c5.4,0.5,13.4,1.2-0.6,0.1C48.3,46,37,45.1,25.7,44.2c-2-0.2-4.1-0.3-6.1-0.5c2.1,0,4.2,0,6.2-0.1
						c93.1-1.2,187.7-2.4,282.5-3.6c96.3-1.2,192.7-2.3,288-3.5c-28.5,0.3-9.5,0,12.3-0.3c-14.1,0.2,0.3-0.1-2.5-0.1l88.1-1
						c16-0.4,94.4-1.2,103.6-1.5L770,34.1c37.1-0.7-51.9,0.2-46.5-0.1C682,34.8,614,35.1,545.9,36.3c-15,0.1,12.8-0.2,4.8-0.2
						c-17.3,0.3-38.1,0.6-76.8,1.1l4.4-0.1c-108.6,1.3-155.2,1.9-277.2,3.4l9,0c-26.2,0.3-31.7,0.3-44,0.5
						c-30.1,0.6,73.6-0.9,46.2-0.4c-14.9,0.1-50.8,0.5-89,1c-40.1,0.5-82.5,1-107.1,1.3c-2.1,0.2-3.8,0.4-5.1,0.6
						c1.4,0.3,2.3,0.5,2.8,0.6c0.6,0.1,1.1,0.2,1.3,0.3c12.5,1,17.5,1.4,18.8,1.5c0.9,0.1-0.6-0.1-2-0.2c-1-0.1-1.9-0.2-2.3-0.2
						c-0.4,0-0.2,0,0.9,0.1c1.6,0.1,6,0.5,16,1.3l10.7,0.9l10.2,0.7c26.4,2.1,39.6,3.3,40.6,3.4c-6.4-0.5-18.2-1.4-25-2
						c34.2,2.7,96.4,7.7,108.1,8.6l-38.6-3.1C262.4,64,396.3,74.7,502.4,83.1l-8-0.7c81,6.5,64.8,5.2,153.7,12.3l-3.2-0.2
						c17.8,1.4,41.5,3.3,65.9,5.2c-22.4-1.7,42.2,3.5,12.8,1.2c42.8,3.3,54.2,4.2,61.5,4.8c6.9,0.5,9.9,0.7,34.9,2.6
						c-0.4,0.1-1.4,0.3-2.3,0.6l-12.4,2.8c-19.3,4.5-20.9,4.9-64.3,15c35.6-8.3-27.7,6.2,12.1-3c-91.1,20.8-135.2,31.4-177,40.7
						c-41.8,9.9,78.8-18,55.4-12.6c19.6-4.4-34.5,8.1-63.1,14.7c-29.1,6.7-49.5,11.1-122.7,27.9c7.3-1.7,7.8-1.8,15-3.5
						c-27.4,6.3-53.7,12.4-87.3,20.1c-18.8,4.5-43.6,10-49,11.5l67.1-15.5c-38,8.8-73.7,17.3-136.4,31.6c4.9-1.1,23.5-5.5,36.3-8.5
						c-18.3,4.2-35.3,8.1-54.3,12.5c5.4-1.4,81.6-18.8,122.3-28.4c-19.7,4.5-77.1,17.9-56.6,13c-29.4,7.1-72.1,16.6-121.6,28.2
						l3.2-0.9c-7.8,1.8-24.1,5.6-38.5,8.9l26.1-6.2c-40.1,9.4-77.4,17.7-115.8,26.6c80.6-18.6,18.1-4,52.2-11.8
						c-37.1,8.6-54.5,12.6-67.5,15.5c-14.1,3.2-23.4,5.3-44.7,10.1c-0.5,0.3-0.9,0.7-1.4,1c0.5,0.2,1,0.4,1.5,0.6
						c13.4-0.4,30.8-1,54.7-1.8c-15.5,0.5-58,1.9-33.8,1c21.7-0.7,50.4-1.6,63.7-2c75.6-2.6-11.6,0.3,20.6-0.9
						c25.7-0.7,37.1-1.3,70.3-2.5l0.2,0.1c86.2-2.8,22.8-1,100.4-3.6l-32.8,1.3l40.4-1.4l-8.3,0.4c44-1.6,57.7-2,100.8-3.5
						c-10,0.3,5.6-0.4,43.8-1.7c26-0.8-14.6,0.6,39.5-1.2c-12.2,0.5-25.6,1-49.1,1.7c-2.4,0.1-12,0.5-14.5,0.6c28-0.9,70.4-2.4,90-3
						c-7.5,0.2-16.6,0.5-21.2,0.7l78.4-2.8c12.3-0.4,2.6,0-7.1,0.4c15.9-0.6,26.9-1,50.2-1.8c-6,0.3-4.6,0.4-37.6,1.5l74.7-2.6
						c5-0.1,38.3-1.2,28.6-0.8c41.4-1.4,101.6-3.5,156.5-5.4c2.9-0.1,8.6-0.3,20.3-0.7c1.7-0.1,3.3-0.1,4.9-0.2
						c-11.4-22.6-22.3-44.1-33.7-66.7c-11.3-22.3-23.1-45.6-36.6-72.2L744,100.9c-21.7-42.7,21,42-15.1-29.1
						c-25.6-50.4-9.4-18.9-18.3-36.6c-4.4-8.6-9.8-19.3-16.1-31.7c-0.9,14-1.9,29.9-3,46.8c-1.1,16.1-2.2,33.3-3.4,50.9
						C689.2,84.1,690.1,70.7,691.1,54.7z M415.3,97.3c8.9,7.2,26.6,21.6,33.1,27C438.1,116.1,430.4,109.6,415.3,97.3z M592.6,270.6
						c-7.6,3.9-19.3,9.9-32.6,16.6C569.7,282.3,580.6,276.7,592.6,270.6z M27.2,265.1c-0.4,0.3-0.6,0.5-1,0.8
						C6.3,281.7,13.4,276.1,27.2,265.1z M68.8,232.1c4.2-3.3,3.9-3.1,2.1-1.7c-2.9,2.3-12.2,9.7-22.8,18.2
						C51,246.2,56.4,242,68.8,232.1z M454.9,193.1l-10.1,2.3C467.5,190.1,461.2,191.6,454.9,193.1z"/>
					<path class="st115" d="M501.6,316.6c-3.2-0.5-4.1-0.7-4.8-0.9C492.4,315,492.3,315,501.6,316.6z"/>
					<path class="st115" d="M806.5,271.7c-0.6,0-1.2,0-1.8,0.1c-1,0-1.5,0.1-1.8,0.1L806.5,271.7z"/>
					<path class="st115" d="M684.2,189.4c-10.9,0.3-17,0.4-21.1,0.5C662.5,189.9,667.5,189.8,684.2,189.4z"/>
					<path class="st115" d="M288.7,56.9l-26.6,21.2c12.9-10.2,17.5-13.9,24-19C285.5,59.5,280.4,63.5,288.7,56.9z"/>
					<path class="st115" d="M394.3,256.9c1.3,4.8,2.8,10.2,4.1,14.9l-0.3-1.3C392.5,250.1,388.6,235.8,394.3,256.9z"/>
					<path class="st115" d="M313.6,37.6c0.7-0.5,2.7-2.1,5.7-4.5c3.1-2.5,7.2-5.8,12.1-9.6c2,7.3,4.4,16,6.8,25.1
						c-0.4-1.4-0.7-2.7-1.1-4.1c0.7,2.3,0.3,0.9-0.7-2.9c-1.1-4-2.8-10.5-4.9-18.2C326,27.7,319.8,32.7,313.6,37.6z"/>
					<path class="st115" d="M339.6,54c1.9,7.1,3.9,14.3,5.8,21.2C346.2,77.9,343.1,66.6,339.6,54z"/>
					<path class="st115" d="M121.4,190.2c8.8-7,5.5-4.5,10.5-8.5C141.7,173.8,73.1,228.7,121.4,190.2z"/>
					<polygon class="st115" points="328.9,25.9 322.1,31.1 311.7,39.5 					"/>
					<path class="st115" d="M181.7,142.9l29.8-23.7c-0.5,0.3,3.3-2.7,8-6.4C201.1,127.4,182.4,142.3,181.7,142.9z"/>
					<path class="st115" d="M219.4,112.8c9.6-7.6,18.6-14.8,23.9-19.1C238.2,97.9,227.1,106.7,219.4,112.8z"/>
					<polygon class="st115" points="288.2,58.3 279.4,65.3 258.4,82 					"/>
					<path class="st115" d="M196.2,255.9l41.2-5.4c4.2-0.6-7,0.8-22.4,2.9C205.2,254.7,189.9,256.7,196.2,255.9z"/>
					<path class="st115" d="M71.7,271.8c11.1-1.4,11.9-1.5,18.2-2.3l1.2-0.3L71.7,271.8z"/>
					<path class="st115" d="M191.7,256.1c4.1-0.6,59.7-7.9,7.6-1.1C195.1,255.6,153.9,261,191.7,256.1z"/>
					<polygon class="st115" points="620,190.7 630.5,190.4 629,190.2 					"/>
					<path class="st115" d="M68.8,206.7c49.2-1.3,11.7-0.5,56.1-1.6c11.5-0.4-36.3,1-24.5,0.6C70.8,206.5,55.2,206.9,68.8,206.7z"/>
					<path class="st115" d="M100.5,205.6c4.8-0.1,9.8-0.3,15.2-0.5C107,205.4,103,205.6,100.5,205.6z"/>
					<polygon class="st115" points="753.3,34.6 784.9,34.2 764.5,34.4 					"/>
					<path class="st115" d="M814,33.6l2.1,0l2.4,4.2l10,16.2c-3.3-5.4-9.3-15.3-12.3-20.4C815.1,33.6,814.5,33.6,814,33.6z"/>
					<path class="st115" d="M345.9,64.2l-1.9,1.5c3.4-2.6,8.2-6.2,17-13c1.5,1.2,3.4,2.7,5.4,4.4l-5.4-4.4L345.9,64.2z"/>
					<polygon class="st115" points="674.4,304.1 674.1,308.3 673.9,308.1 674.2,308.3 674.2,308 674.3,306.7 674.5,303.7 675,297.7 
											"/>
					<path class="st115" d="M723.5,60.1c-6.6-13.1-14.5-28.5-21.1-41.7C716.8,46.9,725.1,63.7,723.5,60.1z"/>
				</g>
			</g>
		</g>
	</g>
</g>
<g>
	<g>
		<path class="st115" d="M68.7,105.8c-3.3,1.1-9.5,1.7-17.1,1.1c-28.5-2-40.2-23.4-37.7-51c3.4-36.7,28-49.3,49.7-47.8
			c7.6,0.5,12.8,2.2,14.8,3.6l-5.1,15.6c-2.4-1.2-5.1-2.2-9.9-2.6C51.2,24,39.2,32.5,37,56.6c-2.1,23.2,7.1,33,20.4,34
			c3.6,0.3,7.9-0.2,10.6-0.7L68.7,105.8z"/>
		<path class="st115" d="M110.3,71.5l-17.6-2.7l-3.5,18.1l31.8,4.9l-2.2,11.3l-46.7-7.2L85,29l38.2,5.9L121,46.2l-23.2-3.6l-3,15.4
			l17.6,2.7L110.3,71.5z"/>
		<path class="st115" d="M134.1,98.3L126.6,40l11.9-1.2l13.2,21.8c2.6,4.3,6.8,11.5,9.3,16.4l0.2,0c-1.2-6.1-3.4-16.1-4.7-26.9
			l-1.6-12.9l11.4-1.1l7.4,58.3l-11.9,1.2l-13-21.2c-2.8-4.7-6.8-11.8-9-16.9l-0.2,0c1,5.9,2.7,14.8,4.2,26.5l1.7,13.1L134.1,98.3z"
			/>
		<path class="st115" d="M190.2,32.7l-15.9-1.3l1.5-14.1l116.8,9.6L291.1,41l-83.4-6.9l-6.8,69.3l-17.5-1.4L190.2,32.7z"/>
		<path class="st115" d="M209.5,41.2c4.2-1.2,9.6-2.2,14.8-2.7c7.6-0.7,14.4-0.5,19.5,2.7c4.7,3,6.5,6.9,7.2,12.2
			c0.9,6.6-2,12.9-8.9,16.5l0,0.2c5,1.2,8,4.9,10.2,11.3c2.3,6.7,5.1,14.1,6.7,16.3l-14.4,1.4c-1.1-1.7-3.5-7.7-5.4-14.4
			c-2.3-7.5-4.8-9.5-9.4-9.1l-2,0.2l3.2,25.8l-13.7,1.4L209.5,41.2z M226.7,66.7l2.4-0.2c6-0.6,8.9-5.1,8.2-10.5
			c-0.7-5.2-3.6-8.7-9.8-8.3c-1.2,0.1-2.5,0.3-3.2,0.7L226.7,66.7z"/>
		<path class="st115" d="M296.1,73.9c-8.1,19.1-18.9,24.4-29.8,21c-13-4.1-12.9-18-7.1-31.9c5.8-13.8,17.1-23.8,29.7-19.8
			C302.7,47.5,301,62.3,296.1,73.9z M270.7,66.8c-4.8,11.5-4.9,18.2-0.4,19.6c4.7,1.5,9.6-5.5,14-15.8c3.7-8.9,5.6-17.4,0.6-19
			C280.5,50.2,275.3,55.9,270.7,66.8z"/>
	</g>
	<g>
		<path class="st115" d="M30.2,131.3c2.7,0.2,6.4,0.9,10.2,2.1c6.3,1.9,10.2,4.5,12.4,8c3,4.6,3,11.1-0.4,19.6
			c-3.4,8.8-8.5,14.3-14.2,16.4c-4.5,1.9-10,1.7-17-0.3c-3-0.9-6-2.1-7.9-2.8L30.2,131.3z M25.8,170.4c0.4,0.3,1.1,0.5,1.7,0.6
			c4.7,1.4,10.3-1.4,15.1-13.5c3.5-8.9,2.9-15.2-2.9-16.9c-0.7-0.2-1.3-0.4-2-0.4L25.8,170.4z"/>
		<path class="st115" d="M75.2,174.7l-14.9-4.4l-3.9,9.9l16.1,4.8l-2.4,6.2l-24.3-7.2l14.4-36.7l23.6,7l-2.4,6.2l-15.4-4.6l-3.3,8.4
			l14.9,4.4L75.2,174.7z"/>
		<path class="st115" d="M112.7,186.9l-2.4,28.9l-20.6,1.8l14.9-103.9l25.4-2.2l29.3,91.7l-20.6,1.8l-6.4-19.8L112.7,186.9z
			 M129.1,171l-5.3-19.6c-1.6-5.7-3.9-15-5.4-21.3l-0.5,0c-0.6,6.4-1.4,16.5-2,22.1l-2.3,20.1L129.1,171z"/>
		<path class="st115" d="M157.7,135.7c4-1.3,9.2-2.4,14.3-3.1c7.3-1,13.8-1,18.8,1.9c4.6,2.7,6.3,6.5,7,11.6
			c0.9,6.3-1.9,12.5-8.5,16.3l0,0.2c4.9,0.9,7.7,4.4,9.9,10.6c2.2,6.4,5,13.5,6.6,15.5l-13.8,1.9c-1-1.6-3.4-7.3-5.3-13.7
			c-2.2-7.2-4.6-9-9.1-8.4l-1.9,0.3L181,207l-13.2,1.8L157.7,135.7z M174.5,159.7l2.3-0.3c5.8-0.8,8.5-5.3,7.8-10.5
			c-0.7-5-3.5-8.3-9.5-7.7c-1.1,0.2-2.4,0.4-3.1,0.8L174.5,159.7z"/>
		<path class="st115" d="M211,125.1h-55.3v-13.6h107.5v13.6h-35.3v81.4H211V125.1z"/>
		<path class="st115" d="M275.7,172.4l-26.2,4.1l2.8,18.1l44.8-6.9l1.8,11.3l-57.3,8.9l-10.4-67.1l49.2-7.9l1.8,11.3l-36.6,5.9
			l2.4,15.4l26.2-4.1L275.7,172.4z"/>
	</g>
	<g>
		<g>
			<path class="st115" d="M37.7,239.4L27,237.5l-2.6,11l12,2.1l-1.6,6.9l-21.1-3.7l9.5-40.6l20.3,3.6l-1.6,6.9l-11.2-2l-2.2,9.3
				l10.6,1.9L37.7,239.4z"/>
		</g>
		<path class="st115" d="M89.2,298.4c-2.5,1-7.4,1.8-13.4,1.8c-22.6,0-33.4-16.1-33.4-37.8c0-28.8,18.5-40,35.7-40c6,0,10.2,1,12,2
			L87.2,237c-2-0.8-4.2-1.5-8-1.5c-9.7,0-18.5,7.3-18.5,26.2c0,18.3,8,25.4,18.5,25.4c2.9,0,6.2-0.6,8.3-1.1L89.2,298.4z"/>
		<path class="st115" d="M141.4,230.8h12.4l-0.1,60.4h63.1v9.5h-75.4V230.8z"/>
		<path class="st115" d="M113,240.6l-6.8,36.5c-1.5,8.2,0.9,11.3,4.1,11.9c3.6,0.7,6.6-1.1,8.2-9.6l6.8-36.5l12.5,2.3l-6.4,34.6
			c-2.7,14.4-10.3,21.1-22.8,18.8C95.1,296.1,91.4,287,94,273l6.4-34.7L113,240.6z"/>
		<path class="st115" d="M168.1,231.7h-8.4v-9.5h64.2v9.5h-45.2v51.2h-10.7V231.7z"/>
		<path class="st115" d="M195.8,236.6l2.9,29.8c0.7,6.7,3,8.5,5.4,8.2c2.7-0.3,4.4-2.4,3.7-9.3l-2.9-29.8l9.3-1.1l2.8,28.2
			c1.2,11.8-2.8,18.7-12,19.8c-10,1.2-14.5-4.9-15.7-16.4l-2.8-28.3L195.8,236.6z"/>
		<path class="st115" d="M219.2,240.8c4.3-1.3,9.8-2.4,15.2-3c7.7-0.9,14.7-0.7,19.9,2.5c4.8,3,6.6,7,7.2,12.4
			c0.8,6.7-2.3,13.3-9.4,17.1l0,0.2c5.1,1.1,8.1,4.9,10.2,11.4c2.2,6.9,5,14.4,6.6,16.6l-14.7,1.7c-1.1-1.7-3.4-7.9-5.3-14.7
			c-2.2-7.7-4.7-9.7-9.4-9.2l-2,0.2l2.9,25.2l-14.1,1.6L219.2,240.8z M236.4,266.7l2.5-0.3c6.1-0.7,9.2-5.4,8.5-10.9
			c-0.6-5.3-3.5-8.9-9.9-8.3c-1.2,0.1-2.6,0.4-3.3,0.8L236.4,266.7z"/>
		<path class="st115" d="M274.6,265.3l-3.1,8l-10-0.9l15.5-42.8l12.4,1.1l9,56.4l-10-0.9l-1.8-19.7L274.6,265.3z M283.8,259.1
			l-0.8-9.8c-0.3-2.9-0.6-7.5-0.8-10.7l-0.2,0c-0.8,3-2.1,7.8-2.9,10.4l-2.9,9.4L283.8,259.1z"/>
	</g>
</g>
</svg>
