<?xml version="1.0" encoding="utf-8"?>
<!-- Generator: Adobe Illustrator 21.1.0, SVG Export Plug-In . SVG Version: 6.00 Build 0)  -->
<svg version="1.1" id="Camada_1" xmlns="http://www.w3.org/2000/svg" xmlns:xlink="http://www.w3.org/1999/xlink" x="0px" y="0px"
	 viewBox="0 0 1278.1 547.1" style="enable-background:new 0 0 1278.1 547.1;" xml:space="preserve">
<style type="text/css">
	.st0{clip-path:url(#SVGID_2_);fill:#2B2A55;}
	.st1{opacity:0.3;clip-path:url(#SVGID_2_);}
	.st2{opacity:0.3;}
	.st3{clip-path:url(#SVGID_4_);}
	.st4{fill:#305495;}
	.st5{fill:#8499B5;}
	.st6{fill:#10141B;}
	.st7{fill:#2F323B;}
	.st8{fill:#BFDBF5;}
	.st9{fill:#2A4982;}
	.st10{fill:#F4F7FD;}
	.st11{fill:#597FBE;}
	.st12{fill:#141823;}
	.st13{fill:#75A1D6;}
	.st14{fill:#191D2D;}
	.st15{fill:#FFFFFE;}
	.st16{fill:#557ABB;}
	.st17{fill:#252E4A;}
	.st18{fill:#9BBEE7;}
	.st19{fill:#F8F9FC;}
	.st20{fill:#263252;}
	.st21{fill:#273D5F;}
	.st22{fill:#1B2233;}
	.st23{fill:#1D2335;}
	.st24{fill:#21293F;}
	.st25{fill:#CCE2F7;}
	.st26{fill:#C7DEF5;}
	.st27{fill:#2B457B;}
	.st28{fill:#1C2234;}
	.st29{fill:#BAD5F2;}
	.st30{fill:#4C75B8;}
	.st31{fill:#E6EFFA;}
	.st32{fill:#B2CDED;}
	.st33{fill:#1E2438;}
	.st34{fill:#30539B;}
	.st35{fill:#29395F;}
	.st36{fill:#242E49;}
	.st37{fill:#2A477D;}
	.st38{fill:#2F4F9A;}
	.st39{fill:#2A4880;}
	.st40{fill:#253351;}
	.st41{fill:#5E88C5;}
	.st42{fill:#3861A7;}
	.st43{fill:#222B44;}
	.st44{fill:#2D4E90;}
	.st45{fill:#5578BA;}
	.st46{fill:#F4F8FD;}
	.st47{fill:#F3F9FC;}
	.st48{fill:#E3EDFA;}
	.st49{fill:#3F62A9;}
	.st50{fill:#5980BF;}
	.st51{fill:#2B4170;}
	.st52{fill:#2C4E8B;}
	.st53{fill:#4566AB;}
	.st54{fill:#FEFFFF;}
	.st55{fill:#25314D;}
	.st56{fill:#345AA2;}
	.st57{fill:#232C46;}
	.st58{fill:#C9E1F8;}
	.st59{fill:#466AAF;}
	.st60{fill:#2B4377;}
	.st61{fill:#222A42;}
	.st62{fill:#5A80BF;}
	.st63{fill:#2B4273;}
	.st64{fill:#6E98D0;}
	.st65{fill:#222B43;}
	.st66{fill:#98BDE6;}
	.st67{fill:#9AC0E9;}
	.st68{fill:#293A61;}
	.st69{fill:#4B70B4;}
	.st70{fill:#5073B6;}
	.st71{fill:#648BC7;}
	.st72{fill:#537BBC;}
	.st73{fill:#252F4A;}
	.st74{fill:#2C3E6B;}
	.st75{fill:#2A3A61;}
	.st76{fill:#B8D7F4;}
	.st77{fill:#2C4070;}
	.st78{fill:#779FD4;}
	.st79{fill:#6690CB;}
	.st80{fill:#20283D;}
	.st81{fill:#242D48;}
	.st82{fill:#E9F3FD;}
	.st83{fill:#557CBC;}
	.st84{fill:#385074;}
	.st85{fill:#2A467B;}
	.st86{fill:#B6D2F0;}
	.st87{fill:#2B467E;}
	.st88{fill:#1D2437;}
	.st89{fill:#BFDAF4;}
	.st90{fill:#25314E;}
	.st91{fill:#2E518D;}
	.st92{fill:#F0F7FE;}
	.st93{fill:#E4F0FB;}
	.st94{fill:#77A3D8;}
	.st95{fill:#87B2E1;}
	.st96{fill:#283759;}
	.st97{fill:#2B4884;}
	.st98{fill:#273454;}
	.st99{fill:#4D70B3;}
	.st100{fill:#86B0E0;}
	.st101{fill:#C4DAF3;}
	.st102{fill:#6691CB;}
	.st103{fill:#3F66AC;}
	.st104{fill:#BBD6F2;}
	.st105{fill:#2B406D;}
	.st106{fill:#2A3F69;}
	.st107{fill:#232B45;}
	.st108{fill:#85888F;}
	.st109{fill:#2E5190;}
	.st110{fill:#2A3D66;}
	.st111{fill:#1F283C;}
	.st112{fill:#2A3E68;}
	.st113{fill:#1C2535;}
	.st114{opacity:0.2;}
	.st115{fill:#FFFFFF;}
	.st116{font-family:'Streamster';}
	.st117{font-size:134.6267px;}
</style>
<g>
	<defs>
		<rect id="SVGID_1_" x="0.9" y="0.6" width="1277.8" height="546.5"/>
	</defs>
	<clipPath id="SVGID_2_">
		<use xlink:href="#SVGID_1_"  style="overflow:visible;"/>
	</clipPath>
	<rect x="-13" y="-234.1" class="st0" width="1320.3" height="1346.9"/>
	<g class="st1">
		<defs>
			<rect id="SVGID_3_" x="-13" y="-234.6" class="st2" width="1320.3" height="1347.4"/>
		</defs>
		<clipPath id="SVGID_4_">
			<use xlink:href="#SVGID_3_"  style="overflow:visible;"/>
		</clipPath>
		<g class="st3">
			<polygon class="st4" points="-64.6,147.6 -64.6,244.5 -20.9,239.6 			"/>
			<polygon class="st5" points="-64.6,244.5 -64.6,341.3 -20.9,239.6 			"/>
			<polygon class="st6" points="-64.6,-239.8 -64.6,-335.6 -64.6,-335.6 			"/>
			<polygon class="st7" points="-64.6,1211.9 -64.6,1213.9 29.3,1213.9 			"/>
			<polygon class="st8" points="-64.6,438.1 -64.6,535 47.4,427.5 			"/>
			<polygon class="st9" points="-64.6,341.3 -64.6,438.1 47.4,427.5 			"/>
			<polygon class="st10" points="-64.6,761.6 -64.6,824.5 38.8,836.2 			"/>
			<polygon class="st11" points="-64.6,824.5 -64.6,921.4 38.8,836.2 			"/>
			<polygon class="st7" points="-64.6,1115.1 -64.6,1211.9 29.3,1213.9 			"/>
			<polygon class="st12" points="-64.6,-335.6 -64.6,-239.8 29.3,-335.6 			"/>
			<polygon class="st13" points="-64.6,727.7 -64.6,761.6 38.8,836.2 			"/>
			<polygon class="st14" points="-64.6,1018.2 -64.6,1115.1 128,1156.7 			"/>
			<polygon class="st15" points="-64.6,1115.1 29.3,1213.9 128,1156.7 			"/>
			<polygon class="st7" points="29.3,1213.9 124.2,1213.9 128,1156.7 			"/>
			<polygon class="st16" points="47.4,427.5 -64.6,535 111,465.3 			"/>
			<polygon class="st17" points="-20.9,239.6 -64.6,341.3 47.4,427.5 			"/>
			<polygon class="st18" points="111,465.3 -64.6,630.9 176.4,536 			"/>
			<polygon class="st19" points="-64.6,535 -64.6,630.9 111,465.3 			"/>
			<polygon class="st20" points="-64.6,921.4 -64.6,1018.2 38.8,836.2 			"/>
			<polygon class="st21" points="-64.6,-142.9 -64.6,-46.1 207.7,-83.8 			"/>
			<polygon class="st22" points="29.3,-335.6 -64.6,-335.6 207.7,-83.8 			"/>
			<polygon class="st22" points="-64.6,-335.6 29.3,-335.6 207.7,-83.8 			"/>
			<polygon class="st7" points="128,1156.7 124.2,1213.9 219.1,1213.9 			"/>
			<polygon class="st23" points="124.2,-335.6 -64.6,-142.9 207.7,-83.8 			"/>
			<polygon class="st16" points="-64.6,-46.1 -64.6,50.8 207.7,-83.8 			"/>
			<polygon class="st24" points="-64.6,-335.6 -64.6,-335.6 207.7,-83.8 			"/>
			<polygon class="st25" points="-64.6,630.9 38.8,836.2 204,559.2 			"/>
			<polygon class="st26" points="176.4,536 -64.6,630.9 204,559.2 			"/>
			<polygon class="st27" points="38.8,836.2 -64.6,1018.2 128,1156.7 			"/>
			<polygon class="st28" points="-64.6,-239.8 -64.6,-142.9 124.2,-335.6 			"/>
			<polygon class="st28" points="29.3,-335.6 -64.6,-239.8 124.2,-335.6 			"/>
			<polygon class="st29" points="-64.6,630.9 -64.6,727.7 38.8,836.2 			"/>
			<polygon class="st30" points="38.8,836.2 128,1156.7 278.9,963 			"/>
			<polygon class="st31" points="204,559.2 38.8,836.2 291.3,722.9 			"/>
			<polygon class="st32" points="289.4,614.4 204,559.2 291.3,722.9 			"/>
			<polygon class="st33" points="124.2,-335.6 207.7,-83.8 219.1,-335.6 			"/>
			<polygon class="st34" points="291.3,722.9 278.9,963 308.3,949.5 			"/>
			<polygon class="st35" points="38.8,836.2 278.9,963 291.3,722.9 			"/>
			<polygon class="st36" points="128,1156.7 219.1,1213.9 278.9,963 			"/>
			<polygon class="st37" points="-64.6,50.8 -64.6,147.6 207.7,-83.8 			"/>
			<polygon class="st38" points="-64.6,147.6 -20.9,239.6 207.7,-83.8 			"/>
			<polygon class="st39" points="291.3,722.9 308.3,949.5 368.1,851.7 			"/>
			<polygon class="st40" points="219.1,-335.6 207.7,-83.8 314,-335.6 			"/>
			<polygon class="st7" points="278.9,963 219.1,1213.9 314,1213.9 			"/>
			<polygon class="st41" points="-20.9,239.6 47.4,427.5 111,465.3 			"/>
			<polygon class="st42" points="207.7,-83.8 -20.9,239.6 426,41.1 			"/>
			<polygon class="st7" points="308.3,949.5 314,1213.9 408.9,1213.9 			"/>
			<polygon class="st43" points="308.3,949.5 278.9,963 314,1213.9 			"/>
			<polygon class="st44" points="-20.9,239.6 111,465.3 426,41.1 			"/>
			<polygon class="st45" points="289.4,614.4 291.3,722.9 507.6,626 			"/>
			<polygon class="st46" points="204,559.2 289.4,614.4 533.2,352 			"/>
			<polygon class="st47" points="111,465.3 176.4,536 533.2,352 			"/>
			<polygon class="st43" points="426,41.1 111,465.3 533.2,352 			"/>
			<polygon class="st48" points="176.4,536 204,559.2 533.2,352 			"/>
			<polygon class="st49" points="291.3,722.9 368.1,851.7 507.6,626 			"/>
			<polygon class="st50" points="408.9,-335.6 207.7,-83.8 426,41.1 			"/>
			<polygon class="st51" points="314,-335.6 207.7,-83.8 408.9,-335.6 			"/>
			<polygon class="st52" points="368.1,851.7 308.3,949.5 582.6,1026 			"/>
			<polygon class="st53" points="308.3,949.5 408.9,1213.9 582.6,1026 			"/>
			<polygon class="st7" points="408.9,1213.9 503.8,1213.9 582.6,1026 			"/>
			<polygon class="st54" points="289.4,614.4 507.6,626 533.2,352 			"/>
			<polygon class="st55" points="598.7,-335.6 503.8,-335.6 609.2,-182.6 			"/>
			<polygon class="st56" points="408.9,-335.6 426,41.1 609.2,-182.6 			"/>
			<polygon class="st57" points="503.8,-335.6 408.9,-335.6 609.2,-182.6 			"/>
			<polygon class="st7" points="582.6,1026 503.8,1213.9 598.7,1213.9 			"/>
			<polygon class="st58" points="533.2,352 507.6,626 665.1,586.3 			"/>
			<polygon class="st59" points="507.6,626 582.6,1026 716.4,684.1 			"/>
			<polygon class="st60" points="665.1,586.3 507.6,626 716.4,684.1 			"/>
			<polygon class="st61" points="598.7,-335.6 609.2,-182.6 693.6,-335.6 			"/>
			<polygon class="st7" points="582.6,1026 598.7,1213.9 693.6,1213.9 			"/>
			<polygon class="st62" points="507.6,626 368.1,851.7 582.6,1026 			"/>
			<polygon class="st63" points="693.6,-335.6 609.2,-182.6 773.3,-277.5 			"/>
			<polygon class="st64" points="716.4,684.1 582.6,1026 788.5,873.9 			"/>
			<polygon class="st65" points="693.6,-335.6 773.3,-277.5 788.5,-335.6 			"/>
			<polygon class="st66" points="773.3,-277.5 609.2,-182.6 818.9,-152.6 			"/>
			<polygon class="st67" points="533.2,352 665.1,586.3 893.8,419.7 			"/>
			<polygon class="st68" points="788.5,-335.6 773.3,-277.5 882.4,-335.6 			"/>
			<polygon class="st62" points="773.3,-277.5 818.9,-152.6 882.4,-335.6 			"/>
			<polygon class="st69" points="609.2,-182.6 426,41.1 818.9,-152.6 			"/>
			<polygon class="st70" points="582.6,1026 788.5,1213.9 788.5,873.9 			"/>
			<polygon class="st7" points="582.6,1026 693.6,1213.9 788.5,1213.9 			"/>
			<polygon class="st71" points="716.4,684.1 788.5,873.9 971.6,812 			"/>
			<polygon class="st72" points="665.1,586.3 716.4,684.1 893.8,419.7 			"/>
			<polygon class="st73" points="788.5,873.9 788.5,1213.9 882.4,1213.9 			"/>
			<polygon class="st74" points="426,41.1 533.2,352 818.9,-152.6 			"/>
			<polygon class="st75" points="818.9,-152.6 533.2,352 1030.5,201.8 			"/>
			<polygon class="st76" points="533.2,352 893.8,419.7 1030.5,201.8 			"/>
			<polygon class="st77" points="893.8,419.7 716.4,684.1 1046.6,529.2 			"/>
			<polygon class="st45" points="882.4,-335.6 818.9,-152.6 977.3,-335.6 			"/>
			<polygon class="st78" points="716.4,684.1 971.6,812 1046.6,529.2 			"/>
			<polygon class="st79" points="1046.6,529.2 971.6,812 1101.6,612.5 			"/>
			<polygon class="st80" points="788.5,873.9 882.4,1213.9 977.3,1213.9 			"/>
			<polygon class="st59" points="971.6,812 788.5,873.9 977.3,1213.9 			"/>
			<polygon class="st81" points="971.6,812 1072.2,1213.9 1159.5,840 			"/>
			<polygon class="st82" points="1101.6,612.5 971.6,812 1159.5,840 			"/>
			<polygon class="st83" points="977.3,-335.6 818.9,-152.6 1072.2,-335.6 			"/>
			<polygon class="st84" points="971.6,812 977.3,1213.9 1072.2,1213.9 			"/>
			<polygon class="st85" points="1030.5,201.8 893.8,419.7 1046.6,529.2 			"/>
			<polygon class="st86" points="1101.6,612.5 1159.5,840 1282.9,622.1 			"/>
			<polygon class="st87" points="1159.5,840 1072.2,1213.9 1167.1,1213.9 			"/>
			<polygon class="st88" points="818.9,-152.6 1030.5,201.8 1072.2,-335.6 			"/>
			<polygon class="st89" points="1046.6,529.2 1101.6,612.5 1282.9,622.1 			"/>
			<polygon class="st90" points="1356.9,-335.6 1262,-335.6 1358.8,-239.8 			"/>
			<polygon class="st28" points="1358.8,-335.6 1356.9,-335.6 1358.8,-239.8 			"/>
			<polygon class="st91" points="1167.1,-335.6 1072.2,-335.6 1358.8,-46.1 			"/>
			<polygon class="st92" points="1030.5,201.8 1280,132.1 1358.8,-46.1 			"/>
			<polygon class="st61" points="1072.2,-335.6 1030.5,201.8 1358.8,-46.1 			"/>
			<polygon class="st93" points="1358.8,-46.1 1280,132.1 1358.8,50.8 			"/>
			<polygon class="st94" points="1358.8,50.8 1280,132.1 1358.8,147.6 			"/>
			<polygon class="st95" points="1280,132.1 1030.5,201.8 1358.8,244.5 			"/>
			<polygon class="st96" points="1358.8,147.6 1280,132.1 1358.8,244.5 			"/>
			<polygon class="st97" points="1358.8,244.5 1030.5,201.8 1358.8,341.3 			"/>
			<polygon class="st98" points="1030.5,201.8 1046.6,529.2 1358.8,341.3 			"/>
			<polygon class="st99" points="1358.8,341.3 1046.6,529.2 1358.8,438.1 			"/>
			<polygon class="st100" points="1046.6,529.2 1282.9,622.1 1358.8,438.1 			"/>
			<polygon class="st101" points="1358.8,438.1 1282.9,622.1 1358.8,535 			"/>
			<polygon class="st102" points="1358.8,535 1282.9,622.1 1358.8,630.9 			"/>
			<polygon class="st7" points="1358.8,1115.1 1262,1213.9 1358.8,1211.9 			"/>
			<polygon class="st7" points="1262,1213.9 1356.9,1213.9 1358.8,1211.9 			"/>
			<polygon class="st103" points="1358.8,630.9 1282.9,622.1 1358.8,727.7 			"/>
			<polygon class="st104" points="1282.9,622.1 1159.5,840 1358.8,727.7 			"/>
			<polygon class="st105" points="1358.8,727.7 1159.5,840 1358.8,824.5 			"/>
			<polygon class="st106" points="1358.8,824.5 1159.5,840 1358.8,921.4 			"/>
			<polygon class="st107" points="1262,1213.9 1358.8,1115.1 1358.8,1018.2 			"/>
			<polygon class="st108" points="1167.1,1213.9 1262,1213.9 1358.8,1018.2 			"/>
			<polygon class="st109" points="1159.5,840 1167.1,1213.9 1358.8,1018.2 			"/>
			<polygon class="st110" points="1358.8,921.4 1159.5,840 1358.8,1018.2 			"/>
			<polygon class="st7" points="1358.8,1211.9 1356.9,1213.9 1358.8,1213.9 			"/>
			<polygon class="st111" points="1358.8,-239.8 1262,-335.6 1358.8,-142.9 			"/>
			<polygon class="st112" points="1262,-335.6 1167.1,-335.6 1358.8,-142.9 			"/>
			<polygon class="st113" points="1167.1,-335.6 1358.8,-46.1 1358.8,-142.9 			"/>
		</g>
	</g>
</g>
<g class="st114">
	<g>
		<g>
			<g>
				<g>
					<path class="st115" d="M1242.4,131c21.6-0.2,13.9-0.2,17.1-0.2C1223.3,131,1243.3,131,1242.4,131z"/>
					<polygon class="st115" points="885.2,134 891.5,133.9 838.8,134.4 					"/>
					<path class="st115" d="M551.1,136.6c31.6-0.1,121.1-1,180.6-1.4l9.8,0l26.9-0.4C696,135.4,602,136.2,551.1,136.6z"/>
					<path class="st115" d="M372.9,137.6c11,0-38.5,0.4,41.5-0.3c-4,0-5.2,0-7.5,0C399.8,137.4,389.8,137.5,372.9,137.6z"/>
					<path class="st115" d="M407,137.3C442.1,137.1,383.9,137.5,407,137.3L407,137.3z"/>
					<path class="st115" d="M244.5,138.7l46.3-0.4c-9.7,0-50.9,0.3-35.6,0.2C207.7,138.8,217.5,138.8,244.5,138.7z"/>
					<path class="st115" d="M200.6,139.1l24-0.2C220.4,139,214,139,200.6,139.1z"/>
					<path class="st115" d="M275.5,138.5l-50.9,0.5c6.7,0,7.4,0,23.4-0.2C243.8,138.8,253.8,138.7,275.5,138.5z"/>
					<path class="st115" d="M304.3,138.3c26-0.2,59.6-0.4,13.1,0C406.1,137.6,393,137.5,304.3,138.3z"/>
					<path class="st115" d="M534,136.9l34.8-0.2l30.1-0.3C583.8,136.5,536.2,136.9,534,136.9z"/>
					<path class="st115" d="M142.3,193.1c2.5,1.5-13.3-8.1-16.3-9.9l-29.4-17.5C111.7,174.7,140.3,191.9,142.3,193.1z"/>
					<path class="st115" d="M126,183.2l44,26.2C130.7,185.9,123.5,181.7,126,183.2z"/>
					<polygon class="st115" points="192.3,139.4 276.4,138.6 176.1,139.5 					"/>
					<polygon class="st115" points="310.2,293.3 285.2,278.5 329.7,304.9 					"/>
					<path class="st115" d="M421.7,359.8c-18.5-10.9,25.2,15.2,5.7,3.6c30.3,18,56.2,33.4,79.4,47.3
						C482.1,395.9,455.7,380.1,421.7,359.8z"/>
					<path class="st115" d="M545.9,433.9c-12.4-7.3-25.2-15-39.1-23.2C519.9,418.5,532.9,426.1,545.9,433.9z"/>
					<path class="st115" d="M244.9,254.1c3.4,2,9.9,6,34.6,20.7l-17.2-10.4C256.9,261.3,251,257.7,244.9,254.1z"/>
					<path class="st115" d="M261.6,264.1l0.6,0.4c18.8,11.2,31.8,19,37.4,22.3C294.8,283.9,283.4,277,261.6,264.1z"/>
					<path class="st115" d="M240.5,251.5c1.6,1,2.8,1.7,4.4,2.6C243.2,253.1,242.2,252.5,240.5,251.5z"/>
					<path class="st115" d="M57.2,140.4c-0.8,0-1.5,0-2.5,0c13.6,8.1,33.6,20,43.6,25.9c9.7,5.7,9.7,5.7-15.9-9.6
						c-9.1-5.4-6.6-3.9-6.3-3.7c0.1,0.1-0.3-0.1-3.1-1.8c-3-1.8-8.4-5-18.3-10.9C54.8,140.4,55.8,140.4,57.2,140.4z"/>
					<path class="st115" d="M219.1,238.6l-46.7-27.9c0.9,0.6,9.3,5.6-3.5-2L219.1,238.6z"/>
					<polygon class="st115" points="242,252.2 219.1,238.6 236.4,248.9 					"/>
					<path class="st115" d="M465.9,386c20.2,12,42.3,25.2,67.2,40c-26.7-16-54.3-32.5-80.6-48.1C448.9,375.8,437.3,369,465.9,386z"
						/>
					<path class="st115" d="M366.7,326.8c1.4,0.8,3.2,1.9,4.5,2.7C368.4,327.8,366.2,326.5,366.7,326.8z"/>
					<path class="st115" d="M580.1,308.8c0.4,1.5,0.8,2.9,1.2,4.4c0.1,0.3,0.2,0.6,0.3,1L580.1,308.8z"/>
					<path class="st115" d="M448.1,375.3c-20.1-12-32.1-19.1-43.6-25.9c15,9,30.9,18.5,48,28.6C454.3,379,454.6,379.1,448.1,375.3z"
						/>
					<path class="st115" d="M614.4,474.7c-10.5-6.3-22.3-13.4-34.8-20.8C589.9,460,610.7,472.5,614.4,474.7z"/>
					<path class="st115" d="M377.9,333.5c-1-0.6-1.9-1.1-3-1.8C381.5,335.7,380.7,335.2,377.9,333.5z"/>
					<path class="st115" d="M377.9,333.5c10.3,6.1,18.5,11,26.7,15.8c-12.2-7.3-23.6-14-33.4-19.9
						C373.6,330.9,376.1,332.4,377.9,333.5z"/>
					<path class="st115" d="M556.8,225.4c1.2,4,17.3,63.3,31.1,114.6c13.7,50.4,5.1,17.4-6.6-26.7c-0.5-1.6-0.5-1.5-14.6-53.4
						c4.9,18.2,31.1,115.2,19.1,71.4c-18.7-68.7-15.2-56.3-24.2-89.8c7.6,28.4-23.9-87.4-20-72.4l16.4,60.3
						C558.2,230.5,552.3,208.7,556.8,225.4z"/>
					<path class="st115" d="M608,412.2l5.8,21.3c-6.6-24.4-11.2-41.8-19.9-73.9c-9.7-35.5-11.7-42.9-12.4-45.3L610,419.5L608,412.2z
						"/>
					<path class="st115" d="M582.5,455.5c7.4,4.4,22.6,13.4,32.4,19.2c4.9,2.9,8.5,5,9.1,5.3c0.5,0.3-1.8-1.1-8.8-5.3
						c-55.8-33.2-39.1-23.2-72.4-43.1c90,53.7-25.9-15.4,39.1,23.5c-17.7-10.5-33.6-20-48.6-29c16.2,9.7,31.8,19,46.5,27.8
						c-0.8-0.5-1.4-0.8-2.1-1.2l-0.4-0.3l0.1,0.1c-3.9-2.3-5.1-3.1-0.8-0.5c0.3,0.2,1.4,0.8,1.9,1.1
						C579,453.5,580.7,454.4,582.5,455.5c26,15.6,4.1,2.5-4.1-2.4c-0.3-0.2-1-0.6-1.1-0.6c0.1,0.1,0.2,0.1,0.3,0.2l49.4,29.5
						l-13.2-48.6c3.5,12.8,7.4,27.4,13.1,48.6C615.8,475.4,600.8,466.4,582.5,455.5z"/>
					<path class="st115" d="M130.5,185.2c2.8,1.7,2.7,1.6,2.9,1.7C139.2,190.4,141.4,191.7,130.5,185.2z"/>
					<path class="st115" d="M167.6,207.3c-6.6-3.9-12-7.2-33.3-19.8c-18.5-11.1,0.1,0-0.8-0.6c-12.8-7.6-45-26.7-4.7-2.7l6.4,3.8
						c36.2,21.7,70.1,42.1,76.5,45.8C200.9,227.5,191.6,221.9,167.6,207.3z"/>
					<path class="st115" d="M377.6,332.9l75.1,44.7l-38.2-22.9l1.9,1.2C373.8,330.5,382.9,336.1,377.6,332.9z"/>
					<polygon class="st115" points="577.5,299.2 580.7,310.3 567.3,261.7 					"/>
					<polygon class="st115" points="547.8,189.6 549,193.6 541.1,164.7 					"/>
					<path class="st115" d="M1001.9,474.2l19.9,16.2C1012.4,482.8,1006.3,477.8,1001.9,474.2z"/>
					<path class="st115" d="M857.9,356.7l-3.6-2.8C861,359.2,863.7,361.5,857.9,356.7z"/>
					<path class="st115" d="M169.4,346.2c-37.4,1-79.2,2-74.6,2l11.5-0.2C132.4,347.3,152.4,346.7,169.4,346.2z"/>
					<path class="st115" d="M796.8,508.1c3.2-1.6,6.5-3.3,9.8-5c8.1-4.2,15.7-8.1,22.4-11.6C819.3,496.5,808.3,502.2,796.8,508.1z"
						/>
					<path class="st115" d="M772.7,517.5l-48.6-8.1C735,511.2,750.6,513.8,772.7,517.5z"/>
					<path class="st115" d="M1238.8,449.2l-29.9,1.1C1255.7,448.7,1235.1,449.4,1238.8,449.2z"/>
					<path class="st115" d="M422.9,410.4c32-4.1,57.5-7.4,79.9-10.3C464.2,405,433.1,408.9,422.9,410.4z"/>
					<path class="st115" d="M944.5,428.9c12.2,9.9,17.4,14.1,17.1,13.8C949,432.5,941.9,426.7,944.5,428.9z"/>
					<path class="st115" d="M595.2,388c-5.6,0.7-11.2,1.4-16.9,2.2c-23.4,3.1-46.9,6.1-75.5,9.9C531.2,396.3,563.9,392,595.2,388z"
						/>
					<path class="st115" d="M133.5,108.2c-2.7-0.2-5.9-0.5-8.3-0.7C124.4,107.5,128.1,107.8,133.5,108.2z"/>
					<path class="st115" d="M984.6,86.9c-10.6,0.1-27.8,0.4-44,0.6C948.5,87.4,961.8,87.2,984.6,86.9z"/>
					<path class="st115" d="M254.4,275C273.2,260,257.4,272.6,254.4,275L254.4,275z"/>
					<path class="st115" d="M346.3,202.4c-4,3.2-7,5.6-7.5,6C340.4,207.2,343,205.1,346.3,202.4z"/>
					<path class="st115" d="M833,356.3c0.7-0.1,1.3-0.2,2.1-0.3C828,356.9,829.2,356.8,833,356.3z"/>
					<path class="st115" d="M282.8,252.5c-7.1,5.6-15.2,12.1-24.1,19.1C262.5,268.5,269.9,262.7,282.8,252.5z"/>
					<path class="st115" d="M278.9,255.5c6.5-5.2,11.6-9.2,16.5-13.1C297.8,240.5,295.7,242.1,278.9,255.5z"/>
					<path class="st115" d="M228.1,295.9c10.8-8.6,20.8-16.6,30.5-24.3c-3.7,2.9-5.3,4.2-4.3,3.4C248.8,279.4,241,285.6,228.1,295.9
						z"/>
					<path class="st115" d="M453.5,385.3c1.6-0.4,3.3-0.8,5-1.1C482.2,378.6,471.8,381,453.5,385.3z"/>
					<path class="st115" d="M356.8,78.2c-1.1-0.3-1.7-0.5-2.6-0.7c1.1,0.3,2.4,0.7,3.4,1L356.8,78.2z"/>
					<path class="st115" d="M440,101.8c-35.5-10-55.6-15.7-82.4-23.4l27.4,8.1L440,101.8z"/>
					<path class="st115" d="M1067.6,116l-4.1,60.6c4.7-73.2,8.3-126.1,4.4-69.2c-0.2,8.6-15.6,235.6-15.9,244.1l-2.7,40
						c0.8-11.4,0.9-13.3,1.6-24.6c-2.5,36.5-3.4,51.4-4.4,67.4c-0.5,8-1,16.2-1.7,27.6c-0.7,11.1-1.6,25.2-2.9,45.1
						c-3.8-3.1-7.9-6.5-12.4-10.1c-27.1-22.1-46-37.6-27.5-22.6L941.5,425c-17.6-14.3-13.2-10.9,4.3,3.4l-92.1-75.1l0.7,0.6
						c-13.2-10.7-43-34.9-57.5-46.8c-23.4-19.1,11.8,9.6,5.8,4.6l-51-41.6c-20.7-17,21.6,17.4,56.8,46.2
						c-47.4-39.1-42.4-34.5-145-118.5l48.2,39.3C680.6,211.6,643,181,588.6,136.4c12.9,10.6,108.8,89.2,53.4,44.1
						c-15.6-12.7-36.2-29.5-66-53.8c0,0-0.4-0.4-1.1-0.9c-0.7-0.6-1.7-1.4-3-2.5c-2.7-2.2-6.6-5.4-11.6-9.5
						c-12.2,9.3-31,23.7-52.2,39.9l2.5-2.1c-40.4,31-37.2,28.6-60.9,46.8c-45.1,34.4-54.5,41.5-65.2,49.5
						c-72.2,55.2,50-37.9-35.4,27.4c-60,45.9-102.1,78.2-173.9,133.1c-5,3.8-8.8,6.7-11.2,8.6c4.4,0.7,7.1,1.2,8.6,1.4
						c1.3,0.2,1.5,0.3,1,0.2c-1.2-0.2-5.6-0.9-9.7-1.6c2.7-2.1,5.2-4,6.2-4.8c0.8-0.6,0.3-0.3-2.6,2l-3.7,2.8l44.5,7.2
						c11.3,1.9,7.7,1.3,5.8,1c39,6.4,3.2,0.4,64.5,10.4c16.5,2.6,125.7,21,201.6,33.4c18.7,3.1-9-1.4-3.3-0.4
						c104.1,17,89.2,14.6,174.7,28.6l72.8,12.1c-47.2-7.9,0.5-0.1,53.6,8.5c6.3-3.3,12.8-6.6,19.1-9.8c-7.9,4-15.2,7.7-19.1,9.7
						c-11.6-1.9-19-3.2-24.9-4.2l24.9,4.1l63.6-32.6c10.4-5.3,1.8-0.8-12.3,6.5c5.9-3,11.4-5.9,15.8-8.1c30.8-15.7,14.9-7.5-7.1,3.9
						c-10.5,5.3-20.9,10.6-31.1,15.8c-11.2,5.8-22,11.4-28.8,14.9c-3.7-0.6-6.5-1-8.1-1.3c-1.6-0.2-1.9-0.3-0.8-0.1
						c2.1,0.3,4.9,0.8,8.9,1.5c5.1-2.6,12.5-6.4,20.4-10.5c-5.6,2.9-9.1,4.7-6.5,3.4c2.9-1.5,11.9-6.1,26-13.4l19.7-9.9l4.7-2.5
						l112.8-57.6c68.2-35,128.9-66.2,223.9-115c-18.3-5.2-38.1-10.8-59.5-16.9c34.3,9.7,7.4,1.9,9.3,2.3
						c13.4,3.8,30.8,8.8,50.9,14.6c-34,17.4-76.5,39.2-119.9,61.4c34.6-17.7,27.1-13.7,18.3-9.2l101.8-52.2l-19.8-5.6
						c2.9,0.7-27.1-7.8-60.5-17.4c25.2,7.4-95.3-27-147.4-41.7c-3.2-1,9.3,2.5,72.7,20.6c-70-20.1-90.6-25.5-159.2-45.2
						c15.5,4.4,23.9,6.8,30,8.5c-36.2-10.2-124.7-35.5-103.8-29.7l15.5,4.4c-102.9-29.3-313.1-89.2-328.5-93.4
						c-1-0.3,13.6,3.6,19.8,5.3L314.5,66.9c16.2,4.4-45.7-13.7,39.6,10.5c-13.6-3.9-29.1-8.3-49.5-14.1
						C293.1,74.6,279,88.3,261.8,105C274.3,92.9,293,75,276,91.6c-46.8,45.3-32.5,31.5-90.3,87.3c18.7-18.1-1.8,2.3-31.4,30.9
						c4.6-4.5-2.7,2.2,8.1-8.3l-73.3,71.6c18.3-17.9,3.1-3.3-13.4,12.6c-6.2,6-40.3,39.1-68.1,66.2c9.7-0.3,18-0.5,23.5-0.7
						l-23.4,0.6l16.1-15.6c-5.7,5.6-11.1,10.7-16,15.6c95.2-2.8,101-3,208.8-6.2c-13.9,0.4-34.3,1.3,24-0.3
						c26.7-0.9,118.3-4,219.8-6.9l19.5-0.5l77.8-2.3c-48.5,1.5-184.5,5.8-258.8,8.1c43.3-1.2,12-0.3,76.8-2.1
						c22.9-0.6-35.3,1.1-54.4,1.6l150.8-4.2c-6.7,0,115.3-3.4,109.6-3.4l-163.8,4.7c-6.6,0,94.7-3.1,201.6-6.1
						c27.2-0.7-20.3,0.9-18.1,0.9c13.9-0.4,101.4-2.9,111.3-3.2l-45.3,1.4c59.5-1.6,97.1-2.9,168.6-4.8c24.7-0.7,73.7-1.8,78-2.1
						c-40.3,0.9-48.1,0.6-21.3-0.3c8.6-0.2,129.6-3.4,157.8-4.1c40.6-1-61,2.1-26.4,1.2c1.5,0,23.9-0.8,33.3-1
						c12.3-0.3,10.5-0.2,11.4-0.2c0.4,0,1.6,0,5.5-0.1c3.2-0.1,8.6-0.2,18-0.5c0.7,0,2.1-0.1,3.6-0.1c0.5,0,1.2,0,2.2-0.1
						c-1.3,0.2-3.1,0.4-5.2,0.7c-12.8,1.7-32.5,4.2-40.8,5.3c-9,1.2-5.5,0.7,30.4-3.9c-54.6,7.1-58.1,7.6-122.3,15.9
						c20.4-2.6-57.6,7.9-112.3,15.1c3.2-0.5-9.1,1.1-15,1.8c-112,14.6-172.2,22.4-276.6,36c-9.6,1.2-60,7.7-38.6,4.9
						c-15,2-28.8,3.8-61,8c-62.4,8,71.8-9.4,24.3-3.4c-4,0.6-83.3,11-129.2,17c14.1-1.7,106-13.8,152-19.8c0,0-0.3,0.1-0.9,0.2
						c-0.6,0.1-1.5,0.2-2.7,0.4c-2.4,0.3-5.9,0.8-10.5,1.4c-9.2,1.2-22.6,3-39.4,5.3c-33.6,4.4-80.9,10.7-135.5,17.9
						c-86.8,11.4-37.6,4.8-52.7,6.8c-149.6,19.6-142.6,18.7-243.8,32c7.7-6.1,16.6-13.2,26.5-21.1c42.5-33.6,2.1-1.3,11.5-8.7
						c-13.6,10.8-25.7,20.5-36.7,29.2c43.4-5.6,74-9.6,110.3-14.3l-59,7.6c22.5-2.9,69.7-9.1,95.4-12.5
						c-20.2,2.6-77.7,10.1-146.4,19C86.6,409.4,166.3,346,221,302.5c17.6-14.1,48-38.3,33.6-26.9l-31.4,25
						c-28.9,22.9,59-47.1,19.2-15.5c42.1-33.5,89.3-71.1,148.6-118.3l11.2-8.7c-1.3,1-38.8,30.8-55.5,44.1
						c24.7-19.7,91.1-72.2,118-93.9l-41.6,33c27.3-21.8,58.7-46.8,91.6-73.1c6.2,22.9,12.6,46.3,18.9,69.9c-7.9-29.5-4-14.9-16.4-61
						c1.3,5,1.6,6.2,1.1,4.5c-0.5-1.8-1.8-6.6-3.7-13.4c-15.6,12.4-44.6,35.5-64.8,51.6c-20,15.9-31.2,24.9-11.7,9.4
						c-38.4,30.4-66.4,52.6-116.6,92.4c1.6-1.2,17.8-14-26.3,21c-2,1.6-6.7,5.3-9.7,7.7c-1.3,1.1-1.8,1.4-3,2.4
						c0.9-0.7,1.5-1.2,2.4-1.9c-1.9,1.5-2.1,1.7,0.9-0.7c10.5-8.3,19.1-15.1,22.5-17.8c-21.9,17.4-92,73.3-115.7,92.2
						c-26.2,20.8,10.9-8.8-3.4,2.6l-35.4,28.3c-3.6,2.7-69.7,55.2-8,6.1l-55.5,44.1c-21.9,17.4-49.1,39-73.1,58
						c17.3-2.3,33.1-4.3,46.1-6c33.2-4.3,83.8-11,54.9-7.2l110.3-14.4l1-0.1c108.8-14.2,224-29.2,348.4-45.4
						c36.6-4.8,74.5-9.7,135.8-17.7l12-1.5c47-6.1,141.3-18.4,161.5-21c17.2-2.2,49.1-6.3,86.9-11.2c40.2-5.2,86.7-11.3,130.3-17
						c0.5-0.3,1-0.7,1.5-1c-0.6-0.3-1.1-0.5-1.7-0.8c-35,1-67,1.9-91.5,2.6l-3.1,0.2c-57.4,1.6-112.4,3.2-183.7,5.2l4.4,0
						c-61.4,1.7-157.9,4.4-255.1,7c6.6-0.2,31.3-0.9,48.7-1.4c-116.1,3.2-244.9,6.8-350.2,9.8c-26.2,0.7-45.2,1.3-63.6,1.8
						c2.4-0.1,4.6-0.1,6.5-0.2c-2.7,0.1-6.7,0.2-10.8,0.3c-11.6,0.3-23.5,0.6-36.4,1c11-0.3,21.5-0.6,30.7-0.8
						c-20.2,0.6-50.9,1.4-81,2.3l-12.8,0.2c-2.4,0.1-4.4,0.1-7,0.2c-29.5,0.8-23.7,0.7-8,0.4c-15.1,0.5-29,0.9-39.8,1.2
						c-5,0.1-11.4,0.3-18.7,0.4c-6.9,0.2-14.6,0.4-22.7,0.6c8.1-7.9,16.8-16.3,25.1-24.4c8.6-8.3,16.8-16.2,23.6-22.8
						c14.5-14.2,108.5-105.5,119.8-116.8c0.8-0.7,7.1-6.9-4.5,4.5c24.1-23.4,48.1-46.7,69.7-67.7l10.3-9.8l50.7-49.5l2.1,0.6
						c42.8,12.3,60.5,17.4,18,5.4c102.7,29.1,83.3,23.6,170.6,48.4l-4.3-1.1c31.2,8.9,81.1,23.1,99.9,28.4
						c69.8,19.9,345.2,98.5,524.3,149.6c-12.3-3.6-5.3-1.6,9.1,2.5c14.1,4,35.5,10.2,52.6,15.1c-6.2,3.2-11.7,6-15.9,8.1
						c-4.5,2.3-7.5,3.9-8.5,4.4c-9.7,4.9-32.8,16.7-6,2.9c-84.6,43.3-127.2,64.9-185.5,95c-9.7,4.9,18.1-9.4,9.4-5
						c-6.8,3.5-26.9,13.8-35.7,18.3c-8.6,4.4,12.4-6.4,25.7-13.3c-86.4,44.2-95.1,48.9-101.3,52.3c-18.2,9.3-32.6,16.6-45.5,23.2
						c-12.9,6.6-24.2,12.4-36.3,18.6c-5.4-0.9-11-1.8-16.9-2.7c-16.9-2.9-45.1-7.6,14.5,2.2c-16.7-2.8-67.9-11.2-115.3-19.1
						c-23.7-3.9-46.4-7.7-63.5-10.5c-17-2.8-28.4-4.6-29.2-4.7c-10.5-1.7-46.8-7.7-55.6-9.2c-75.1-12.4-81.8-13.5-155.5-25.7
						l20.5,3.4c-29.2-4.6-61.3-10.1-120.8-19.9l1.7,0.3c-60.1-9.9-78.3-13-91.4-15.1c13.8-10.5,21.2-16.2,81.1-61.9l-6,4.4
						c9.9-7.9,96.1-73.3,158.9-121.4l-22.7,17.3c34.3-26.3,96.2-73.1,130.7-99.5c7.5-5.7-11.9,9.1-22.3,17.1
						c22.1-16.9,34.1-26,40.6-31c3.2-2.5,5.1-3.9,6.2-4.8c1.1-0.8,1.3-1.1,1.4-1.1c0.1-0.1-0.7,0.4,2.3-1.9
						c2.9-2.3,9.5-7.3,24.4-18.7c0.9,0.7,2.1,1.7,3.4,2.8c12.1,9.9-15.7-12.6,28.4,23.5c22,18,128.3,104.4,188.4,153.7
						c-13.2-10.9-26.4-21.7,4.1,3.1c46.7,38.1,126.1,103.3,168.5,137.6c5.9,4.9,8.2,6.7,8.4,6.9c19.4,15.8,51.9,42.3,80.9,66
						c2.1-32.4,4-61.6,4.8-74.6c1.6-21.2,6.3-92.7,10.7-158.8c2.2-33,4.3-64.7,5.8-88c0.8-11.7,1.4-21.3,1.9-27.9
						c0.2-3.3,0.4-5.9,0.5-7.6c0.1-1.7,0.2-2.6,0.2-2.6l7.1-106.4l14.4,28.3l-1.7-3.3c40.9,80.9,55.5,109.4,69.9,137.8
						c9.4,18.7,2.5,5.1,1.7,3.5c59.7,118.2,65.7,129.9,116,228.9l4.3,8.7l-0.7,0c-30.1,1-191.3,6.5-321,10.8c1.3,0,4-0.1,14.3-0.5
						c-146,5.1-349.7,11.5-403.2,13.8l-96.4,3.4c124.7-4.2-18.6,0.8,32.7-0.8c-49,1.7-126.8,4.2-66.5,2.1l9.4-0.3
						c22.1-1-154.9,5.2-151.6,4.9c-97.8,3.3-194.6,6.6-289.9,9.8c-0.9,0-1.8,0.1-2.7,0.1c0.9-0.2,1.8-0.4,2.6-0.6
						c136.1-31.3,269.4-62,399.6-92l-25.9,5.8l78.2-18c20.5-4.7,27.6-6.2-28.2,6.6c14.7-3.4,38-8.8,58-13.4
						c19.9-4.6,36.3-8.5,37.1-8.7c109.2-25.1-42.6,10-9.1,2.3l45.5-10.5l-10.3,2.3c36.8-8.5,40.1-9.3,107.1-24.8
						c42.4-9.7,21.8-4.9,38.5-8.7c0.1,0,5.5-1.3,25.6-5.9l98.5-22.7l-39.4,8.9c43.6-10.1,92.6-21.3,47.1-11
						c66.8-15.1,367.4-84.5,408.3-93.9c11.4-2.6,22.8-5.3,34.3-7.9c-52.5-4.2-106.4-8.5-170.4-13.6c19,1.5,30.4,2.6-35.6-2.7
						c24.1,1.6-120.8-9.8-174-14.3c47.6,4-187.5-14.9-112.8-8.7c-55-4.4-3.3-0.4-45.1-3.8c-131-10.5-288.7-23.1-450.6-36
						c-2.5-0.2,24.6,2.1-10.2-0.6l-85.5-7c-32-2.5-29.5-2.1-87.9-6.9c8.2,0.7,20.6,1.7-0.9,0c-19.8-1.6-39.6-3.2-59.6-4.8
						c-2-0.2-4.1-0.3-6.1-0.5c2.1,0,4.1-0.1,6.2-0.1c290.6-3.7,591-7.4,884.1-11.1c-43.8,0.5-14.6,0.1,18.8-0.3
						c-21.7,0.3,0.5-0.1-3.8-0.1l135.3-1.6c24.7-0.3,145-2,159.1-2.2l-42.8,0.6c57-0.9-79.7,0.6-71.4,0.3
						c-63.8,1-168.2,1.8-272.8,3.5c-23.1,0.2,19.7-0.3,7.3-0.2c-26.5,0.4-58.6,0.9-117.9,1.6l6.7-0.1c-166.8,2.1-238.3,3-425.7,5.3
						l13.9-0.1c-40.3,0.5-48.7,0.6-67.6,0.8c-46.2,0.8,113.1-1.4,71-0.7c-47.7,0.6-234.1,2.8-304,3.7c-1.9,0.2-3.6,0.4-5,0.6
						c1.9,0.4,3.3,0.7,4.2,0.9c0.3,0,0.7,0.1,1,0.1c19.2,1.5,27.4,2.2,30.1,2.4c2.2,0.2-0.1,0-2.4-0.2c-4.5-0.4-9.1-0.8,21.8,1.7
						l16.4,1.4l15.6,1.2c40.5,3.2,60.9,5,62.4,5.2c-9.8-0.8-27.9-2.2-38.5-3c52.5,4.2,148,11.8,166.1,13.2l-59.3-4.8
						c168.5,13.4,374.3,29.8,537.1,42.7l-12.4-1c124.3,9.9,99.6,8,236.1,18.9l-5-0.4c27.3,2.2,63.8,5,101.2,8
						c-34.5-2.7,64.8,5.3,19.6,1.8c65.8,5.2,83.3,6.5,94.4,7.4c10.8,0.8,15.4,1.2,54.6,4.2c-0.7,0.2-2.1,0.5-3.6,0.8l-19.8,4.5
						c-29.7,6.9-32.1,7.5-98.8,22.9c54.6-12.7-42.6,9.7,18.6-4.5c-139.9,32-207.6,48-271.8,62.5c-64.2,15,121.1-27.7,85.1-19.4
						c30.1-6.9-53,12.4-96.9,22.5c-44.7,10.3-76,17.2-188.4,43.1c11.2-2.6,11.9-2.8,23.1-5.3c-42.1,9.7-82.4,19-134,30.9
						c-28.9,6.8-67,15.4-75.3,17.5l103.1-23.8c-58.4,13.5-113.2,26.4-209.5,48.4c7.5-1.7,36.1-8.4,55.8-13
						c-28.2,6.5-54.2,12.5-83.4,19.2c8.3-2.1,125.3-28.9,187.9-43.5c-30.2,6.9-118.4,27.4-87,20c-45.2,10.7-110.7,25.5-186.8,43.2
						l5-1.3c-12,2.8-37,8.6-59.1,13.7l40.1-9.4c-61.6,14.2-118.8,27.3-177.9,40.9c123.7-28.5,27.8-6.3,80.1-18.2
						c-57.8,13.3-84.4,19.4-104.5,24c-21.1,4.8-35.3,8-68.7,15.6c-0.4,0.3-0.9,0.7-1.4,1c0.5,0.2,1,0.4,1.5,0.6
						c20.3-0.7,47.2-1.6,84.8-2.9c-23.7,0.8-89.1,3-52,1.6c33.4-1.1,77.4-2.5,97.9-3.2c116.1-4-17.8,0.5,31.6-1.3
						c39.5-1.2,57-2,107.9-3.8l0.4,0.1c132.3-4.4,35.1-1.4,154.2-5.4l-50.3,1.9l62.1-2.2l-12.8,0.6c67.6-2.3,88.6-3,154.8-5.3
						c-15.4,0.4,8.6-0.5,67.2-2.5c40-1.3-22.4,0.9,60.7-2c-18.8,0.7-39.3,1.5-75.4,2.6c-3.7,0.1-18.5,0.7-22.3,0.9
						c43-1.5,108.2-3.7,138.3-4.7c-11.6,0.4-25.4,0.8-32.5,1.1l120.4-4.3c19-0.6,3.9-0.1-11,0.5c24.4-0.9,41.3-1.4,77.1-2.7
						c-9.3,0.4-7,0.4-57.8,2.2l114.7-4c7.7-0.2,58.9-1.9,44-1.3c63.6-2.2,156-5.4,240.4-8.3c4.4-0.2,13.2-0.5,31.1-1.1
						c2.4-0.1,4.7-0.2,7-0.2c-34.9-68.9-66.2-130.8-107.7-212.8l-23.9-47.7c-33.3-65.7,32.4,64.5-23-44.8
						c-39.2-77.4-14.5-29-28.2-56.2c-6.6-13-14.8-29-24.2-47.5c-1.4,21.1-2.9,45.1-4.6,70.7c-1.7,24.8-3.4,51.2-5.2,78.1
						C1064.6,161.2,1065.9,140.6,1067.6,116z M643.4,181.6c13.6,11.1,40.9,33.2,50.8,41.4C678.5,210.5,666.6,200.6,643.4,181.6z
						 M915.9,447.5c-11.6,6-29.7,15.2-50,25.5C880.6,465.5,897.3,456.9,915.9,447.5z M47.8,439.4c-0.6,0.5-1,0.8-1.5,1.2
						C15.6,465,26.5,456.3,47.8,439.4z M111.6,388.7c6.4-5.1,5.9-4.8,3.2-2.6c-4.4,3.5-18.8,14.9-35.1,27.9
						C84.3,410.4,92.6,403.9,111.6,388.7z M704.4,328.3l-15.5,3.5C723.8,323.8,714,326,704.4,328.3z"/>
					<path class="st115" d="M776.2,518.1c-4.9-0.8-6.3-1.1-7.4-1.3C762,515.7,761.8,515.7,776.2,518.1z"/>
					<path class="st115" d="M1244.4,449c-0.9,0-1.8,0.1-2.8,0.1c-1.5,0.1-2.3,0.1-2.8,0.1L1244.4,449z"/>
					<path class="st115" d="M1056.5,322.6c-16.8,0.4-26.1,0.7-32.3,0.8C1023.3,323.5,1030.9,323.3,1056.5,322.6z"/>
					<path class="st115" d="M449.4,119.8l-40.8,32.5c19.8-15.7,26.8-21.3,36.8-29.2C444.5,123.7,436.7,129.9,449.4,119.8z"/>
					<path class="st115" d="M611.4,426.6c2,7.4,4.2,15.6,6.2,22.9l-0.5-2C608.6,416.1,602.6,394.2,611.4,426.6z"/>
					<path class="st115" d="M487.5,90c1-0.8,4.1-3.2,8.8-6.9c4.7-3.8,11-8.8,18.3-14.6c3,11.2,6.6,24.5,10.4,38.3
						c-0.6-2.1-1.1-4.1-1.7-6.2c1,3.6,0.5,1.4-1.1-4.5c-1.6-6.1-4.3-16-7.5-27.7C506.5,74.9,497,82.4,487.5,90z"/>
					<path class="st115" d="M527.2,115c2.9,10.9,6,22,8.8,32.6C537.3,151.7,532.5,134.4,527.2,115z"/>
					<path class="st115" d="M192.5,324.3c13.6-10.8,8.4-6.9,16.1-12.9C223.7,299.2,118.2,383.5,192.5,324.3z"/>
					<polygon class="st115" points="510.9,71.8 500.6,79.9 484.6,92.7 					"/>
					<path class="st115" d="M284.9,251.5l45.7-36.3c-0.7,0.5,5.1-4.1,12.2-9.8C314.7,227.8,286,250.6,284.9,251.5z"/>
					<path class="st115" d="M342.9,205.3c14.7-11.7,28.6-22.8,36.8-29.3C371.7,182.4,354.6,196,342.9,205.3z"/>
					<polygon class="st115" points="448.4,121.6 434.9,132.3 402.6,158 					"/>
					<path class="st115" d="M307.1,425l63.2-8.3c6.4-0.9-10.8,1.3-34.3,4.4C320.9,423.1,297.4,426.2,307.1,425z"/>
					<path class="st115" d="M115.9,449.5c17.1-2.2,18.3-2.3,27.9-3.5l1.9-0.4L115.9,449.5z"/>
					<path class="st115" d="M300.3,425.5c6.3-0.9,91.7-12.1,11.6-1.6C305.5,424.7,242.1,433,300.3,425.5z"/>
					<polygon class="st115" points="958,324.9 974.2,324.5 971.8,324.3 					"/>
					<path class="st115" d="M111.5,349.1c75.5-2.2,17.9-0.5,86.2-2.5c17.7-0.6-55.8,1.5-37.6,0.9
						C114.5,348.9,90.6,349.6,111.5,349.1z"/>
					<path class="st115" d="M160.1,347.6c7.3-0.2,15-0.4,23.3-0.7C170.2,347.3,163.9,347.5,160.1,347.6z"/>
					<polygon class="st115" points="1162.6,84.8 1211.2,84.2 1179.8,84.5 					"/>
					<path class="st115" d="M1255.9,83.4l3.4,0l3.8,6.5l15.3,24.9c-5-8.3-14.3-23.6-19-31.4C1257.7,83.4,1256.7,83.4,1255.9,83.4z"
						/>
					<path class="st115" d="M537.4,131l-2.9,2.3c5.1-3.9,12.4-9.5,25.9-19.7c2.2,1.8,5,4.1,8,6.6l-8-6.6L537.4,131z"/>
					<polygon class="st115" points="1042,499.1 1041.5,506.3 1040.6,505.6 1041.3,506.2 1041.5,506.4 1042.8,489.2 					"/>
					<path class="st115" d="M1116.5,124.5c-10.2-20.1-22.2-43.8-32.4-64C1106.3,104.4,1119,130,1116.5,124.5z"/>
				</g>
			</g>
		</g>
	</g>
</g>
<g>
	<g>
		<path class="st115" d="M229.1,213.9c-3.9,1.3-11.5,2-20.7,1.4c-34.4-2.4-48.5-28.3-45.5-61.6c4.1-44.3,33.9-59.6,60.1-57.8
			c9.2,0.6,15.5,2.7,17.9,4.4l-6.2,18.9c-2.9-1.4-6.2-2.7-12-3.1c-14.8-1-29.2,9.2-31.9,38.3c-2.6,28.1,8.6,39.9,24.6,41
			c4.4,0.3,9.5-0.2,12.8-0.9L229.1,213.9z"/>
		<path class="st115" d="M279.4,172.4l-21.2-3.3L254,191l38.4,5.9l-2.6,13.7l-56.4-8.7l15.5-80.8l46.1,7.1l-2.6,13.7l-28.1-4.3
			l-3.6,18.6l21.2,3.3L279.4,172.4z"/>
		<path class="st115" d="M308.2,204.8l-9-70.4l14.4-1.4l16,26.4c3.1,5.2,8.2,13.9,11.3,19.8l0.2,0c-1.4-7.4-4.1-19.5-5.7-32.5
			l-2-15.6l13.8-1.3l9,70.4l-14.4,1.4L326,176c-3.4-5.7-8.2-14.2-10.9-20.4l-0.2,0c1.3,7.1,3.2,17.9,5,32l2,15.9L308.2,204.8z"/>
		<path class="st115" d="M376,125.5l-19.2-1.5l1.8-17l141.1,11.6l-1.8,17l-100.7-8.3l-8.2,83.8l-21.2-1.7L376,125.5z"/>
		<path class="st115" d="M399.2,135.8c5.1-1.4,11.6-2.6,17.9-3.2c9.1-0.9,17.4-0.6,23.5,3.3c5.7,3.6,7.9,8.4,8.7,14.8
			c1,7.9-2.5,15.6-10.7,20l0,0.2c6.1,1.4,9.6,5.9,12.3,13.6c2.7,8.1,6.2,17.1,8.1,19.7l-17.4,1.7c-1.3-2-4.2-9.3-6.5-17.4
			c-2.7-9.1-5.7-11.5-11.3-11l-2.4,0.2l3.9,31.2l-16.6,1.6L399.2,135.8z M420.1,166.6l2.9-0.3c7.2-0.7,10.7-6.2,9.9-12.7
			c-0.8-6.3-4.3-10.5-11.8-10c-1.4,0.1-3,0.4-3.9,0.8L420.1,166.6z"/>
		<path class="st115" d="M503.9,175.2c-9.7,23.1-22.9,29.5-36,25.3c-15.7-5-15.6-21.7-8.5-38.5c7-16.7,20.6-28.8,35.9-23.9
			C511.9,143.5,509.8,161.2,503.9,175.2z M473.2,166.7c-5.9,13.9-5.9,22-0.4,23.7c5.6,1.8,11.6-6.6,16.9-19.1
			c4.5-10.7,6.8-21,0.7-23C485,146.6,478.8,153.5,473.2,166.7z"/>
	</g>
	<g>
		<path class="st115" d="M182.8,244.6c3.2,0.3,7.7,1.1,12.3,2.5c7.6,2.3,12.3,5.4,15,9.7c3.6,5.6,3.6,13.4-0.4,23.6
			c-4.2,10.6-10.3,17.3-17.2,19.8c-5.4,2.2-12,2.1-20.5-0.4c-3.7-1.1-7.2-2.5-9.5-3.4L182.8,244.6z M177.4,291.9
			c0.5,0.3,1.4,0.6,2,0.8c5.7,1.7,12.5-1.7,18.2-16.3c4.2-10.8,3.6-18.3-3.5-20.4c-0.8-0.2-1.6-0.5-2.4-0.5L177.4,291.9z"/>
		<path class="st115" d="M237.1,297l-18-5.3l-4.7,12l19.5,5.8l-2.9,7.5l-29.4-8.7l17.3-44.3l28.5,8.5l-2.9,7.5l-18.6-5.5l-4,10.2
			l18,5.3L237.1,297z"/>
		<path class="st115" d="M282.4,311.8l-2.9,34.9l-24.8,2.1l18-125.5l30.7-2.6l35.4,110.8l-24.9,2.1l-7.7-23.9L282.4,311.8z
			 M302.2,292.6l-6.4-23.7c-2-6.9-4.7-18.1-6.5-25.7l-0.6,0.1c-0.7,7.8-1.6,19.9-2.4,26.7l-2.8,24.3L302.2,292.6z"/>
		<path class="st115" d="M336.7,249.9c4.9-1.5,11.1-2.9,17.2-3.8c8.8-1.2,16.7-1.2,22.7,2.3c5.5,3.2,7.7,7.8,8.5,14
			c1.1,7.6-2.3,15.1-10.2,19.7l0,0.2c5.9,1.1,9.3,5.3,11.9,12.8c2.7,7.7,6.1,16.3,7.9,18.7l-16.7,2.3c-1.3-1.9-4.1-8.9-6.4-16.5
			c-2.7-8.7-5.6-10.9-11-10.2l-2.3,0.3l6.4,46.4l-16,2.2L336.7,249.9z M357,279l2.8-0.4c6.9-1,10.3-6.4,9.4-12.7
			c-0.8-6.1-4.2-10-11.5-9.2c-1.3,0.2-2.9,0.5-3.7,0.9L357,279z"/>
		<path class="st115" d="M401.1,237.1h-66.8v-16.4h129.9v16.4h-42.7v98.3h-20.4V237.1z"/>
		<path class="st115" d="M479.3,294.3l-31.7,4.9l3.4,21.9l54.1-8.4l2.1,13.7L438,337.1l-12.5-81l59.4-9.5l2.1,13.7l-44.2,7.2
			l2.9,18.6l31.7-4.9L479.3,294.3z"/>
	</g>
	<g>
		<g>
			<path class="st115" d="M191.7,375.2l-12.9-2.3l-3.1,13.2l14.5,2.6l-1.9,8.3l-25.5-4.5l11.4-49.1l24.5,4.3l-1.9,8.3l-13.5-2.4
				l-2.6,11.3l12.9,2.3L191.7,375.2z"/>
		</g>
		<path class="st115" d="M253.9,446.5c-3,1.2-8.9,2.2-16.2,2.2c-27.3,0-40.3-19.4-40.3-45.6c0-34.8,22.4-48.3,43.2-48.3
			c7.3,0,12.4,1.2,14.4,2.5l-3.5,15.1c-2.4-1-5.1-1.8-9.7-1.8c-11.7,0-22.4,8.8-22.4,31.6c0,22.1,9.7,30.7,22.4,30.7
			c3.5,0,7.5-0.7,10-1.4L253.9,446.5z"/>
		<path class="st115" d="M317,364.8h15l-0.2,72.9h76.2v11.5H317V364.8z"/>
		<path class="st115" d="M282.7,376.7l-8.2,44.1c-1.9,10,1.1,13.6,5,14.4c4.4,0.8,8-1.3,9.9-11.6l8.2-44.1l15.1,2.8l-7.8,41.8
			c-3.2,17.4-12.5,25.5-27.5,22.7c-16.3-3-20.8-14-17.7-31l7.8-41.9L282.7,376.7z"/>
		<path class="st115" d="M349.2,365.9h-10.1v-11.4h77.5v11.4h-54.6v61.8h-12.9V365.9z"/>
		<path class="st115" d="M382.7,371.8l3.5,36c0.8,8.1,3.6,10.3,6.5,9.9c3.3-0.4,5.3-2.9,4.5-11.3l-3.5-36l11.2-1.3l3.4,34.1
			c1.4,14.2-3.4,22.6-14.5,23.9c-12.1,1.4-17.5-6-18.9-19.8l-3.4-34.2L382.7,371.8z"/>
		<path class="st115" d="M411,376.9c5.2-1.5,11.9-2.9,18.4-3.6c9.3-1.1,17.8-0.9,24,3c5.8,3.6,7.9,8.5,8.7,15
			c0.9,8.1-2.8,16-11.3,20.7l0,0.2c6.2,1.3,9.7,5.9,12.4,13.8c2.7,8.3,6.1,17.4,8,20l-17.8,2c-1.3-2-4.1-9.5-6.4-17.7
			c-2.6-9.3-5.7-11.7-11.4-11.1l-2.5,0.3l3.5,30.4l-17,2L411,376.9z M431.8,408.2l3-0.3c7.4-0.8,11.1-6.5,10.3-13.2
			c-0.7-6.4-4.3-10.7-11.9-10.1c-1.4,0.2-3.1,0.5-4,0.9L431.8,408.2z"/>
		<path class="st115" d="M477.9,406.5l-3.8,9.6L462,415l18.8-51.7l14.9,1.4l10.9,68.2l-12.1-1.1l-2.2-23.9L477.9,406.5z M489,399
			l-1-11.9c-0.4-3.5-0.7-9.1-0.9-12.9l-0.3,0c-1,3.7-2.5,9.4-3.5,12.6l-3.4,11.4L489,399z"/>
	</g>
</g>
<text transform="matrix(1 0 0 1 593.1434 318.781)" class="st115 st116 st117">Dashboard</text>
</svg>
