<?xml version="1.0" encoding="utf-8"?>
<!-- Generator: Adobe Illustrator 21.1.0, SVG Export Plug-In . SVG Version: 6.00 Build 0)  -->
<svg version="1.1" id="Camada_1" xmlns="http://www.w3.org/2000/svg" xmlns:xlink="http://www.w3.org/1999/xlink" x="0px" y="0px"
	 viewBox="0 0 646 593.9" style="enable-background:new 0 0 646 593.9;" xml:space="preserve">
<style type="text/css">
	.st0{fill:none;}
	.st1{fill:#FFFFFF;}
</style>
<rect x="0" y="0" class="st0" width="646" height="593.9"/>
<g>
	<path class="st1" d="M642,4v585.9H4V4H642 M646,0H0v593.9h646V0L646,0z"/>
</g>
<g id="Preparação">
</g>
<g>
	<g>
		<path class="st1" d="M163.6,207c-5.9,2-17.2,3-31,2c-51.6-3.6-72.8-42.5-68.3-92.4c6.1-66.4,50.8-89.4,90.1-86.6
			c13.8,1,23.2,4,26.9,6.6l-9.2,28.3c-4.3-2.1-9.3-4.1-18-4.7c-22.2-1.5-43.9,13.8-47.9,57.5c-3.9,42.1,12.9,59.9,36.9,61.5
			c6.6,0.5,14.2-0.3,19.2-1.3L163.6,207z"/>
		<path class="st1" d="M239.1,144.8l-31.8-4.9l-6.3,32.8l57.6,8.8l-3.9,20.5L170,189l23.3-121.3l69.2,10.6l-3.9,20.5l-42.1-6.5
			l-5.3,27.9l31.8,4.9L239.1,144.8z"/>
		<path class="st1" d="M282.2,193.3L268.8,87.6l21.6-2.1l24,39.6c4.6,7.8,12.3,20.9,16.9,29.6h0.4c-2.1-11.1-6.1-29.2-8.6-48.7
			l-3-23.4l20.7-2l13.4,105.7l-21.6,2.1L309,150.1c-5.1-8.6-12.4-21.3-16.3-30.6h-0.4c1.9,10.6,4.9,26.8,7.6,48l3,23.8L282.2,193.3z
			"/>
		<path class="st1" d="M384,74.4l-28.8-2.3l2.7-25.6l211.7,17.3l-2.7,25.6L415.7,77l-12.3,125.7l-31.8-2.5L384,74.4z"/>
		<path class="st1" d="M418.8,89.8c7.6-2.1,17.4-3.9,26.9-4.9c13.7-1.4,26.1-0.9,35.3,4.9c8.6,5.4,11.8,12.6,13.1,22.2
			c1.6,11.9-3.7,23.4-16.1,30v0.3c9.1,2.1,14.4,8.8,18.5,20.5c4.1,12.2,9.3,25.6,12.1,29.5l-26,2.6c-1.9-3-6.3-14-9.8-26
			c-4.1-13.7-8.6-17.3-17-16.4l-3.6,0.4l5.8,46.8l-24.9,2.5L418.8,89.8z M450.1,136l4.4-0.4c10.8-1.1,16.1-9.3,14.8-19.1
			c-1.2-9.4-6.5-15.8-17.8-15c-2.1,0.2-4.5,0.6-5.8,1.2L450.1,136z"/>
		<path class="st1" d="M575.8,149c-14.6,34.6-34.3,44.3-54,38c-23.5-7.5-23.4-32.6-12.8-57.8c10.6-25.1,30.9-43.2,53.8-35.9
			C587.9,101.3,584.7,128,575.8,149z M529.8,136.2c-8.8,20.9-8.8,32.9-0.7,35.5c8.5,2.7,17.4-9.9,25.3-28.6
			c6.8-16.1,10.2-31.6,1.1-34.5C547.5,106.1,538.1,116.4,529.8,136.2z"/>
	</g>
	<g>
		<path class="st1" d="M94,253.1c4.8,0.4,11.5,1.7,18.5,3.8c11.4,3.4,18.5,8.1,22.4,14.5c5.4,8.4,5.4,20.1-0.6,35.4
			c-6.2,16-15.4,25.9-25.7,29.7c-8.1,3.4-18.1,3.1-30.7-0.6c-5.5-1.6-10.9-3.8-14.2-5.1L94,253.1z M86,324c0.7,0.5,2.1,0.9,3,1.2
			c8.5,2.5,18.7-2.6,27.3-24.4c6.3-16.2,5.3-27.5-5.3-30.7c-1.2-0.4-2.4-0.7-3.6-0.7L86,324z"/>
		<path class="st1" d="M175.5,331.7l-27-8l-7,18l29.2,8.7l-4.4,11.2l-44.1-13.1l26-66.5l42.7,12.7l-4.4,11.2l-27.9-8.3l-6,15.3l27,8
			L175.5,331.7z"/>
		<path class="st1" d="M243.5,353.9l-4.4,52.4l-37.3,3.2l26.9-188.3l46.1-4l53,166.2l-37.4,3.2L279,350.9L243.5,353.9z M273.3,325.1
			l-9.6-35.5c-3-10.3-7.1-27.2-9.8-38.6l-0.9,0.1c-1.1,11.7-2.5,29.8-3.7,40l-4.3,36.4L273.3,325.1z"/>
		<path class="st1" d="M325,261.1c7.3-2.3,16.7-4.4,25.9-5.7c13.2-1.8,25.1-1.8,34,3.4c8.3,4.9,11.5,11.7,12.8,21
			c1.6,11.5-3.4,22.7-15.3,29.6v0.3c8.8,1.7,14,8,17.9,19.1c4,11.6,9.1,24.4,11.9,28.1l-25.1,3.4c-1.9-2.8-6.1-13.3-9.6-24.8
			c-4-13.1-8.4-16.4-16.5-15.3l-3.5,0.5l9.6,69.6l-24,3.3L325,261.1z M355.5,304.6l4.2-0.6c10.4-1.4,15.5-9.6,14.2-19
			c-1.3-9.1-6.4-15-17.2-13.9c-2,0.3-4.4,0.8-5.6,1.4L355.5,304.6z"/>
		<path class="st1" d="M421.7,241.8H321.5v-24.6h194.8v24.6h-64v147.4h-30.6L421.7,241.8L421.7,241.8z"/>
		<path class="st1" d="M538.9,327.7l-47.5,7.3l5.1,32.8l81.2-12.6l3.2,20.6L477,391.9l-18.8-121.6l89.1-14.3l3.2,20.6L484,287.4
			l4.3,28l47.5-7.3L538.9,327.7z"/>
	</g>
	<g>
		<g>
			<path class="st1" d="M107.5,449l-19.3-3.4l-4.6,19.9l21.8,3.9l-2.9,12.4L64.3,475l17.1-73.6l36.7,6.5l-2.9,12.4l-20.3-3.6
				l-3.9,17l19.3,3.4L107.5,449z"/>
		</g>
		<path class="st1" d="M200.8,556c-4.5,1.9-13.3,3.3-24.3,3.3c-41,0-60.5-29.2-60.5-68.4c0-52.2,33.6-72.5,64.8-72.5
			c11,0,18.6,1.8,21.7,3.7l-5.2,22.6c-3.6-1.4-7.6-2.7-14.5-2.7c-17.6,0-33.6,13.2-33.6,47.5c0,33.1,14.5,46,33.6,46
			c5.2,0,11.2-1,15-2.1L200.8,556z"/>
		<path class="st1" d="M295.5,433.5H318l-0.2,109.4h114.3v17.3H295.5V433.5z"/>
		<path class="st1" d="M244,451.3l-12.3,66.1c-2.8,14.9,1.6,20.4,7.5,21.5c6.6,1.2,12-2,14.9-17.4l12.3-66.1l22.7,4.2l-11.6,62.7
			c-4.9,26.1-18.8,38.2-41.3,34c-24.4-4.5-31.2-21-26.5-46.5l11.7-62.8L244,451.3z"/>
		<path class="st1" d="M343.8,435h-15.2v-17.1H445V435h-81.9v92.8h-19.3L343.8,435L343.8,435z"/>
		<path class="st1" d="M394.1,444l5.3,54c1.2,12.2,5.4,15.4,9.8,14.9c4.9-0.6,8-4.3,6.8-16.9l-5.3-54l16.8-2l5,51.1
			c2.1,21.3-5.1,33.9-21.8,35.9c-18.1,2.2-26.3-8.9-28.4-29.8l-5.1-51.3L394.1,444z"/>
		<path class="st1" d="M436.5,451.6c7.8-2.3,17.8-4.3,27.6-5.4c14-1.6,26.7-1.3,36,4.5c8.7,5.4,11.9,12.7,13,22.6
			c1.4,12.2-4.1,24-17,31v0.3c9.3,2,14.6,8.8,18.6,20.7c4,12.4,9.1,26.1,11.9,30.1l-26.7,3.1c-1.9-3-6.2-14.2-9.6-26.6
			c-4-14-8.5-17.6-17.1-16.6l-3.7,0.4l5.2,45.6l-25.5,2.9L436.5,451.6z M467.7,498.5l4.5-0.5c11.1-1.3,16.6-9.8,15.5-19.8
			c-1.1-9.7-6.4-16.1-17.9-15.1c-2.1,0.2-4.7,0.7-6,1.4L467.7,498.5z"/>
		<path class="st1" d="M536.8,496l-5.6,14.4l-18.1-1.7l28.2-77.6l22.4,2.1l16.4,102.2l-18.1-1.7l-3.2-35.8L536.8,496z M553.6,484.8
			l-1.5-17.8c-0.5-5.2-1-13.6-1.4-19.3h-0.4c-1.5,5.5-3.7,14.1-5.2,18.8l-5.2,17.1L553.6,484.8z"/>
	</g>
</g>
</svg>
