<svg xmlns="http://www.w3.org/2000/svg" viewBox="0 0 646 593.9" style="enable-background:new 0 0 646 593.9;"><style><![CDATA[.V{fill:#fff}]]></style><path d="M0 0h646v593.9H0z" fill="none"/><path class="V" d="M642 4v585.9H4V4h638m4-4H0v593.9h646V0zM163.6 207c-5.9 2-17.2 3-31 2-51.6-3.6-72.8-42.5-68.3-92.4 6.1-66.4 50.8-89.4 90.1-86.6 13.8 1 23.2 4 26.9 6.6l-9.2 28.3c-4.3-2.1-9.3-4.1-18-4.7-22.2-1.5-43.9 13.8-47.9 57.5-3.9 42.1 12.9 59.9 36.9 61.5 6.6.5 14.2-.3 19.2-1.3l1.3 29.1zm75.5-62.2l-31.8-4.9-6.3 32.8 57.6 8.8-3.9 20.5-84.7-13 23.3-121.3 69.2 10.6-3.9 20.5-42.1-6.5-5.3 27.9 31.8 4.9-3.9 19.7zm43.1 48.5L268.8 87.6l21.6-2.1 24 39.6 16.9 29.6h.4l-8.6-48.7-3-23.4 20.7-2 13.4 105.7-21.6 2.1-23.6-38.3c-5.1-8.6-12.4-21.3-16.3-30.6h-.4l7.6 48 3 23.8-20.7 2zM384 74.4l-28.8-2.3 2.7-25.6 211.7 17.3-2.7 25.6L415.7 77l-12.3 125.7-31.8-2.5L384 74.4zm34.8 15.4c7.6-2.1 17.4-3.9 26.9-4.9 13.7-1.4 26.1-.9 35.3 4.9 8.6 5.4 11.8 12.6 13.1 22.2 1.6 11.9-3.7 23.4-16.1 30v.3c9.1 2.1 14.4 8.8 18.5 20.5 4.1 12.2 9.3 25.6 12.1 29.5l-26 2.6c-1.9-3-6.3-14-9.8-26-4.1-13.7-8.6-17.3-17-16.4l-3.6.4 5.8 46.8-24.9 2.5-14.3-112.4zm31.3 46.2l4.4-.4c10.8-1.1 16.1-9.3 14.8-19.1-1.2-9.4-6.5-15.8-17.8-15-2.1.2-4.5.6-5.8 1.2l4.4 33.3zm125.7 13c-14.6 34.6-34.3 44.3-54 38-23.5-7.5-23.4-32.6-12.8-57.8 10.6-25.1 30.9-43.2 53.8-35.9 25.1 8 21.9 34.7 13 55.7zm-46-12.8c-8.8 20.9-8.8 32.9-.7 35.5 8.5 2.7 17.4-9.9 25.3-28.6 6.8-16.1 10.2-31.6 1.1-34.5-8-2.5-17.4 7.8-25.7 27.6zM94 253.1c4.8.4 11.5 1.7 18.5 3.8 11.4 3.4 18.5 8.1 22.4 14.5 5.4 8.4 5.4 20.1-.6 35.4-6.2 16-15.4 25.9-25.7 29.7-8.1 3.4-18.1 3.1-30.7-.6-5.5-1.6-10.9-3.8-14.2-5.1L94 253.1zM86 324c.7.5 2.1.9 3 1.2 8.5 2.5 18.7-2.6 27.3-24.4 6.3-16.2 5.3-27.5-5.3-30.7-1.2-.4-2.4-.7-3.6-.7L86 324zm89.5 7.7l-27-8-7 18 29.2 8.7-4.4 11.2-44.1-13.1 26-66.5 42.7 12.7-4.4 11.2-27.9-8.3-6 15.3 27 8-4.1 10.8zm68 22.2l-4.4 52.4-37.3 3.2 26.9-188.3 46.1-4 53 166.2-37.4 3.2-11.4-35.7-35.5 3zm29.8-28.8l-9.6-35.5c-3-10.3-7.1-27.2-9.8-38.6l-.9.1-3.7 40-4.3 36.4 28.3-2.4zm51.7-64c7.3-2.3 16.7-4.4 25.9-5.7 13.2-1.8 25.1-1.8 34 3.4 8.3 4.9 11.5 11.7 12.8 21 1.6 11.5-3.4 22.7-15.3 29.6v.3c8.8 1.7 14 8 17.9 19.1 4 11.6 9.1 24.4 11.9 28.1l-25.1 3.4c-1.9-2.8-6.1-13.3-9.6-24.8-4-13.1-8.4-16.4-16.5-15.3l-3.5.5 9.6 69.6-24 3.3L325 261.1zm30.5 43.5l4.2-.6c10.4-1.4 15.5-9.6 14.2-19-1.3-9.1-6.4-15-17.2-13.9-2 .3-4.4.8-5.6 1.4l4.4 32.1zm66.2-62.8H321.5v-24.6h194.8v24.6h-64v147.4h-30.6V241.8zm117.2 85.9l-47.5 7.3 5.1 32.8 81.2-12.6 3.2 20.6L477 391.9l-18.8-121.6 89.1-14.3 3.2 20.6-66.5 10.8 4.3 28 47.5-7.3 3.1 19.6zM107.5 449l-19.3-3.4-4.6 19.9 21.8 3.9-2.9 12.4-38.2-6.8 17.1-73.6 36.7 6.5-2.9 12.4-20.3-3.6-3.9 17 19.3 3.4-2.8 11.9zm93.3 107c-4.5 1.9-13.3 3.3-24.3 3.3-41 0-60.5-29.2-60.5-68.4 0-52.2 33.6-72.5 64.8-72.5 11 0 18.6 1.8 21.7 3.7l-5.2 22.6c-3.6-1.4-7.6-2.7-14.5-2.7-17.6 0-33.6 13.2-33.6 47.5 0 33.1 14.5 46 33.6 46 5.2 0 11.2-1 15-2.1l3 22.6zm94.7-122.5H318l-.2 109.4h114.3v17.3H295.5V433.5zM244 451.3l-12.3 66.1c-2.8 14.9 1.6 20.4 7.5 21.5 6.6 1.2 12-2 14.9-17.4l12.3-66.1 22.7 4.2-11.6 62.7c-4.9 26.1-18.8 38.2-41.3 34-24.4-4.5-31.2-21-26.5-46.5l11.7-62.8 22.6 4.3zm99.8-16.3h-15.2v-17.1H445V435h-81.9v92.8h-19.3V435zm50.3 9l5.3 54c1.2 12.2 5.4 15.4 9.8 14.9 4.9-.6 8-4.3 6.8-16.9l-5.3-54 16.8-2 5 51.1c2.1 21.3-5.1 33.9-21.8 35.9-18.1 2.2-26.3-8.9-28.4-29.8l-5.1-51.3 16.9-1.9zm42.4 7.6c7.8-2.3 17.8-4.3 27.6-5.4 14-1.6 26.7-1.3 36 4.5 8.7 5.4 11.9 12.7 13 22.6 1.4 12.2-4.1 24-17 31v.3c9.3 2 14.6 8.8 18.6 20.7 4 12.4 9.1 26.1 11.9 30.1l-26.7 3.1c-1.9-3-6.2-14.2-9.6-26.6-4-14-8.5-17.6-17.1-16.6l-3.7.4 5.2 45.6-25.5 2.9-12.7-112.6zm31.2 46.9l4.5-.5c11.1-1.3 16.6-9.8 15.5-19.8-1.1-9.7-6.4-16.1-17.9-15.1-2.1.2-4.7.7-6 1.4l3.9 34zm69.1-2.5l-5.6 14.4-18.1-1.7 28.2-77.6 22.4 2.1 16.4 102.2-18.1-1.7-3.2-35.8-22-1.9zm16.8-11.2l-1.5-17.8-1.4-19.3h-.4l-5.2 18.8-5.2 17.1 13.7 1.2z"/></svg>