<?xml version="1.0" encoding="utf-8"?>
<!-- Generator: Adobe Illustrator 21.1.0, SVG Export Plug-In . SVG Version: 6.00 Build 0)  -->
<svg version="1.1" xmlns="http://www.w3.org/2000/svg" xmlns:xlink="http://www.w3.org/1999/xlink" x="0px" y="0px"
	 viewBox="0 0 800 765.9" style="enable-background:new 0 0 800 765.9;" xml:space="preserve">
<style type="text/css">
	.st0{opacity:0.1;}
	.st1{fill:#231F20;}
</style>
<g id="bkg">
</g>
<g id="design">
	<g class="st0">
		<polygon class="st1" points="264.4,90.9 262.7,93.9 266.7,96.2 266.7,92.2 		"/>
		<polygon class="st1" points="262.6,107.6 266.7,110 266.7,106 264.3,104.6 		"/>
		<polygon class="st1" points="262.6,121.4 266.7,123.8 266.7,119.8 264.3,118.4 		"/>
		<polygon class="st1" points="262.6,135.2 266.7,137.6 266.7,133.5 264.3,132.2 		"/>
		<polygon class="st1" points="262.2,153.2 266.7,150.6 266.7,146.6 255.2,153.2 		"/>
		<rect x="182.8" y="88.2" class="st1" width="3.5" height="58.2"/>
		<rect x="194.8" y="81.3" class="st1" width="3.5" height="72"/>
		<rect x="206.7" y="74.6" class="st1" width="3.5" height="78.7"/>
		<rect x="218.6" y="67.5" class="st1" width="3.5" height="85.8"/>
		<rect x="230.6" y="74.6" class="st1" width="3.5" height="78.7"/>
		<rect x="242.5" y="81.3" class="st1" width="3.5" height="72"/>
		<rect x="254.5" y="88.2" class="st1" width="3.5" height="58.2"/>
		<polygon class="st1" points="165.1,149.8 171.1,153.2 178,153.2 166.9,146.8 		"/>
		<rect x="73.4" y="151.2" class="st1" width="3.5" height="2.1"/>
		<rect x="85.3" y="144.1" class="st1" width="3.5" height="9.2"/>
		<rect x="97.3" y="151.2" class="st1" width="3.5" height="2.1"/>
		<rect x="56.1" y="57.2" transform="matrix(0.5 -0.866 0.866 0.5 -45.7472 93.1796)" class="st1" width="3.5" height="58.1"/>
		<rect x="50.1" y="60.5" transform="matrix(0.5 -0.866 0.866 0.5 -57.6876 93.1088)" class="st1" width="3.5" height="72"/>
		<rect x="44.1" y="64" transform="matrix(0.5 -0.866 0.866 0.5 -69.6278 93.1613)" class="st1" width="3.5" height="85.7"/>
		<polygon class="st1" points="83.8,140.6 0,92.2 0,96.2 82.1,143.6 		"/>
		<polygon class="st1" points="72.1,147.6 0,106 0,110 70.4,150.6 		"/>
		<polygon class="st1" points="0,123.8 51,153.2 58,153.2 0,119.8 		"/>
		<polygon class="st1" points="0,137.6 27.1,153.2 34.1,153.2 0,133.5 		"/>
		<polygon class="st1" points="3,144.9 0,146.6 0,150.6 4.8,147.9 		"/>
		<polygon class="st1" points="12.4,153.2 15.9,153.2 15.1,151.7 		"/>
		<polygon class="st1" points="221.3,23.6 262.2,0 255.2,0 219.5,20.6 		"/>
		<polygon class="st1" points="221.3,37.4 266.7,11.2 266.7,7.2 219.5,34.4 		"/>
		<polygon class="st1" points="221.3,51.2 266.7,25 266.7,21 219.5,48.2 		"/>
		<polygon class="st1" points="221.3,65 266.7,38.8 266.7,34.8 219.5,62 		"/>
		<polygon class="st1" points="233,72 266.7,52.6 266.7,48.5 231.3,69 		"/>
		<polygon class="st1" points="244.8,78.9 266.7,66.3 266.7,62.3 243.1,75.9 		"/>
		<polygon class="st1" points="256.9,85.8 266.7,80.1 266.7,76.1 255.2,82.8 		"/>
		<rect x="194.8" class="st1" width="3.5" height="0.2"/>
		<rect x="206.7" class="st1" width="3.5" height="6.9"/>
		<rect x="218.6" class="st1" width="3.5" height="13.7"/>
		<rect x="230.6" class="st1" width="3.5" height="6.9"/>
		<rect x="242.5" class="st1" width="3.5" height="0.2"/>
		<polygon class="st1" points="217.2,22.6 178,0 171.1,0 215.4,25.6 		"/>
		<rect x="183.4" y="-16.1" transform="matrix(0.5 -0.866 0.866 0.5 75.3314 170.2705)" class="st1" width="3.5" height="72"/>
		<rect x="177.5" y="-12.6" transform="matrix(0.5 -0.866 0.866 0.5 63.3907 170.3229)" class="st1" width="3.5" height="85.7"/>
		<rect x="171.5" y="-9.1" transform="matrix(0.5 -0.866 0.866 0.5 51.4506 170.3453)" class="st1" width="3.5" height="99.4"/>
		<rect x="165.6" y="8" transform="matrix(0.5 -0.866 0.866 0.5 39.5106 170.4297)" class="st1" width="3.5" height="85.9"/>
		<rect x="159.6" y="25.3" transform="matrix(0.5 -0.866 0.866 0.5 27.5704 170.3954)" class="st1" width="3.5" height="72.1"/>
		<rect x="153.6" y="42.5" transform="matrix(0.5 -0.866 0.866 0.5 15.6296 170.3424)" class="st1" width="3.5" height="58.2"/>
		<rect x="83.2" y="82.5" transform="matrix(0.866 -0.5 0.5 0.866 -27.1016 67.3583)" class="st1" width="57.9" height="3.5"/>
		<rect x="82.2" y="92.8" transform="matrix(0.866 -0.5 0.5 0.866 -31.4527 71.7483)" class="st1" width="71.8" height="3.5"/>
		<rect x="81.3" y="103.1" transform="matrix(0.866 -0.5 0.5 0.866 -35.8109 76.1335)" class="st1" width="85.7" height="3.5"/>
		<rect x="80.4" y="113.5" transform="matrix(0.866 -0.5 0.5 0.866 -40.1892 80.4939)" class="st1" width="99.4" height="3.5"/>
		<rect x="93" y="123.9" transform="matrix(0.866 -0.5 0.5 0.866 -44.591 84.8358)" class="st1" width="85.9" height="3.5"/>
		<polygon class="st1" points="172.4,116.4 109.8,152.5 110.2,153.2 115.5,153.2 174.1,119.4 		"/>
		<polygon class="st1" points="172.4,130.2 132.5,153.2 139.4,153.2 174.1,133.2 		"/>
		<rect x="49.5" y="11.6" class="st1" width="3.5" height="58.2"/>
		<rect x="61.4" y="4.7" class="st1" width="3.5" height="72.1"/>
		<rect x="73.4" class="st1" width="3.5" height="83.5"/>
		<rect x="85.3" class="st1" width="3.5" height="90.4"/>
		<rect x="97.3" class="st1" width="3.5" height="83.5"/>
		<rect x="109.2" y="4.7" class="st1" width="3.5" height="72.1"/>
		<rect x="121.1" y="11.6" class="st1" width="3.5" height="58.2"/>
		<polygon class="st1" points="60.1,1.2 58,0 51,0 58.4,4.2 		"/>
		<polygon class="st1" points="48.1,8.1 34.1,0 27.1,0 46.3,11.1 		"/>
		<polygon class="st1" points="15.9,0 12.4,0 0,7.2 0,11.2 16.8,1.5 		"/>
		<polygon class="st1" points="27.1,5.3 0,21 0,25 28.8,8.4 		"/>
		<polygon class="st1" points="39,12.3 0,34.8 0,38.8 40.7,15.3 		"/>
		<polygon class="st1" points="39,26 0,48.5 0,52.6 40.8,29 		"/>
		<polygon class="st1" points="39,39.8 0,62.3 0,66.3 40.8,42.8 		"/>
		<polygon class="st1" points="39,53.6 0,76.1 0,80.1 40.8,56.6 		"/>
		<polygon class="st1" points="115.5,0 110.2,0 111.5,2.3 		"/>
		<polygon class="st1" points="123.6,9.2 139.4,0 132.5,0 121.8,6.1 		"/>
	</g>
	<g class="st0">
		<polygon class="st1" points="531.1,90.9 529.3,93.9 533.3,96.2 533.3,92.2 		"/>
		<polygon class="st1" points="529.3,107.6 533.3,110 533.3,106 531,104.6 		"/>
		<polygon class="st1" points="529.3,121.4 533.3,123.8 533.3,119.8 531,118.4 		"/>
		<polygon class="st1" points="529.3,135.2 533.3,137.6 533.3,133.5 531,132.2 		"/>
		<polygon class="st1" points="528.8,153.2 533.3,150.6 533.3,146.6 521.9,153.2 		"/>
		<rect x="449.5" y="88.2" class="st1" width="3.5" height="58.2"/>
		<rect x="461.4" y="81.3" class="st1" width="3.5" height="72"/>
		<rect x="473.4" y="74.6" class="st1" width="3.5" height="78.7"/>
		<rect x="485.3" y="67.5" class="st1" width="3.5" height="85.8"/>
		<rect x="497.3" y="74.6" class="st1" width="3.5" height="78.7"/>
		<rect x="509.2" y="81.3" class="st1" width="3.5" height="72"/>
		<rect x="521.1" y="88.2" class="st1" width="3.5" height="58.2"/>
		<polygon class="st1" points="431.8,149.8 437.7,153.2 444.7,153.2 433.5,146.8 		"/>
		<rect x="340" y="151.2" class="st1" width="3.5" height="2.1"/>
		<rect x="352" y="144.1" class="st1" width="3.5" height="9.2"/>
		<rect x="363.9" y="151.2" class="st1" width="3.5" height="2.1"/>
		<rect x="322.7" y="57.2" transform="matrix(0.5 -0.866 0.866 0.5 87.5854 324.1193)" class="st1" width="3.5" height="58.1"/>
		<rect x="316.7" y="60.5" transform="matrix(0.5 -0.866 0.866 0.5 75.6459 324.0491)" class="st1" width="3.5" height="72"/>
		<rect x="310.8" y="64" transform="matrix(0.5 -0.866 0.866 0.5 63.7051 324.1012)" class="st1" width="3.5" height="85.7"/>
		<polygon class="st1" points="350.5,140.6 266.7,92.2 266.7,96.2 348.8,143.6 		"/>
		<polygon class="st1" points="338.8,147.6 266.7,106 266.7,110 337,150.6 		"/>
		<polygon class="st1" points="266.7,123.8 317.7,153.2 324.7,153.2 266.7,119.8 		"/>
		<polygon class="st1" points="266.7,137.6 293.8,153.2 300.8,153.2 266.7,133.5 		"/>
		<polygon class="st1" points="269.7,144.9 266.7,146.6 266.7,150.6 271.4,147.9 		"/>
		<polygon class="st1" points="279.1,153.2 282.6,153.2 281.7,151.7 		"/>
		<polygon class="st1" points="487.9,23.6 528.8,0 521.9,0 486.2,20.6 		"/>
		<polygon class="st1" points="487.9,37.4 533.3,11.2 533.3,7.2 486.2,34.4 		"/>
		<polygon class="st1" points="487.9,51.2 533.3,25 533.3,21 486.2,48.2 		"/>
		<polygon class="st1" points="487.9,65 533.3,38.8 533.3,34.8 486.2,62 		"/>
		<polygon class="st1" points="499.7,72 533.3,52.6 533.3,48.5 497.9,69 		"/>
		<polygon class="st1" points="511.5,78.9 533.3,66.3 533.3,62.3 509.8,75.9 		"/>
		<polygon class="st1" points="523.6,85.8 533.3,80.1 533.3,76.1 521.8,82.8 		"/>
		<rect x="461.4" class="st1" width="3.5" height="0.2"/>
		<rect x="473.4" class="st1" width="3.5" height="6.9"/>
		<rect x="485.3" class="st1" width="3.5" height="13.7"/>
		<rect x="497.3" class="st1" width="3.5" height="6.9"/>
		<rect x="509.2" class="st1" width="3.5" height="0.2"/>
		<polygon class="st1" points="483.8,22.6 444.7,0 437.7,0 482.1,25.6 		"/>
		<rect x="450.1" y="-16.1" transform="matrix(0.5 -0.866 0.866 0.5 208.6646 401.2105)" class="st1" width="3.5" height="72"/>
		<rect x="444.1" y="-12.6" transform="matrix(0.5 -0.866 0.866 0.5 196.7233 401.2625)" class="st1" width="3.5" height="85.7"/>
		<rect x="438.2" y="-9.1" transform="matrix(0.5 -0.866 0.866 0.5 184.7836 401.2852)" class="st1" width="3.5" height="99.4"/>
		<rect x="432.3" y="8" transform="matrix(0.5 -0.866 0.866 0.5 172.8445 401.3702)" class="st1" width="3.5" height="85.9"/>
		<rect x="426.3" y="25.3" transform="matrix(0.5 -0.866 0.866 0.5 160.9047 401.3361)" class="st1" width="3.5" height="72.1"/>
		<rect x="420.3" y="42.5" transform="matrix(0.5 -0.866 0.866 0.5 148.963 401.2825)" class="st1" width="3.5" height="58.2"/>
		<rect x="349.8" y="82.5" transform="matrix(0.866 -0.5 0.5 0.866 8.6247 200.6912)" class="st1" width="57.9" height="3.5"/>
		<rect x="348.9" y="92.8" transform="matrix(0.866 -0.5 0.5 0.866 4.2736 205.0811)" class="st1" width="71.8" height="3.5"/>
		
			<rect x="348" y="103.1" transform="matrix(0.866 -0.5 0.5 0.866 -8.008734e-02 209.4795)" class="st1" width="85.7" height="3.5"/>
		<rect x="347.1" y="113.5" transform="matrix(0.866 -0.5 0.5 0.866 -4.4626 213.8274)" class="st1" width="99.4" height="3.5"/>
		<rect x="359.7" y="123.9" transform="matrix(0.866 -0.5 0.5 0.866 -8.8627 218.172)" class="st1" width="85.9" height="3.5"/>
		<polygon class="st1" points="439,116.4 376.4,152.5 376.8,153.2 382.2,153.2 440.8,119.4 		"/>
		<polygon class="st1" points="439,130.2 399.1,153.2 406.1,153.2 440.8,133.2 		"/>
		<rect x="316.2" y="11.6" class="st1" width="3.5" height="58.2"/>
		<rect x="328.1" y="4.7" class="st1" width="3.5" height="72.1"/>
		<rect x="340" class="st1" width="3.5" height="83.5"/>
		<rect x="352" class="st1" width="3.5" height="90.4"/>
		<rect x="363.9" class="st1" width="3.5" height="83.5"/>
		<rect x="375.9" y="4.7" class="st1" width="3.5" height="72.1"/>
		<rect x="387.8" y="11.6" class="st1" width="3.5" height="58.2"/>
		<polygon class="st1" points="326.8,1.2 324.7,0 317.7,0 325,4.2 		"/>
		<polygon class="st1" points="314.7,8.1 300.8,0 293.8,0 313,11.1 		"/>
		<polygon class="st1" points="282.6,0 279.1,0 266.7,7.2 266.7,11.2 283.5,1.5 		"/>
		<polygon class="st1" points="293.7,5.3 266.7,21 266.7,25 295.5,8.4 		"/>
		<polygon class="st1" points="305.6,12.3 266.7,34.8 266.7,38.8 307.4,15.3 		"/>
		<polygon class="st1" points="305.7,26 266.7,48.5 266.7,52.6 307.4,29 		"/>
		<polygon class="st1" points="305.7,39.8 266.7,62.3 266.7,66.3 307.4,42.8 		"/>
		<polygon class="st1" points="305.7,53.6 266.7,76.1 266.7,80.1 307.4,56.6 		"/>
		<polygon class="st1" points="382.2,0 376.8,0 378.2,2.3 		"/>
		<polygon class="st1" points="390.2,9.2 406.1,0 399.1,0 388.5,6.1 		"/>
	</g>
	<g class="st0">
		<polygon class="st1" points="797.7,90.9 796,93.9 800,96.2 800,92.2 		"/>
		<polygon class="st1" points="795.9,107.6 800,110 800,106 797.7,104.6 		"/>
		<polygon class="st1" points="795.9,121.4 800,123.8 800,119.8 797.7,118.4 		"/>
		<polygon class="st1" points="795.9,135.2 800,137.6 800,133.5 797.7,132.2 		"/>
		<polygon class="st1" points="795.5,153.2 800,150.6 800,146.6 788.6,153.2 		"/>
		<rect x="716.2" y="88.2" class="st1" width="3.5" height="58.2"/>
		<rect x="728.1" y="81.3" class="st1" width="3.5" height="72"/>
		<rect x="740" y="74.6" class="st1" width="3.5" height="78.7"/>
		<rect x="752" y="67.5" class="st1" width="3.5" height="85.8"/>
		<rect x="763.9" y="74.6" class="st1" width="3.5" height="78.7"/>
		<rect x="775.9" y="81.3" class="st1" width="3.5" height="72"/>
		<rect x="787.8" y="88.2" class="st1" width="3.5" height="58.2"/>
		<polygon class="st1" points="698.5,149.8 704.4,153.2 711.4,153.2 700.2,146.8 		"/>
		<rect x="606.7" y="151.2" class="st1" width="3.5" height="2.1"/>
		<rect x="618.6" y="144.1" class="st1" width="3.5" height="9.2"/>
		<rect x="630.6" y="151.2" class="st1" width="3.5" height="2.1"/>
		<rect x="589.4" y="57.2" transform="matrix(0.5 -0.866 0.866 0.5 220.9179 555.059)" class="st1" width="3.5" height="58.1"/>
		<rect x="583.4" y="60.5" transform="matrix(0.5 -0.866 0.866 0.5 208.9793 554.9893)" class="st1" width="3.5" height="72"/>
		<rect x="577.5" y="64" transform="matrix(0.5 -0.866 0.866 0.5 197.0383 555.0413)" class="st1" width="3.5" height="85.7"/>
		<polygon class="st1" points="617.2,140.6 533.3,92.2 533.3,96.2 615.4,143.6 		"/>
		<polygon class="st1" points="605.4,147.6 533.3,106 533.3,110 603.7,150.6 		"/>
		<polygon class="st1" points="533.3,123.8 584.4,153.2 591.3,153.2 533.3,119.8 		"/>
		<polygon class="st1" points="533.3,137.6 560.5,153.2 567.4,153.2 533.3,133.5 		"/>
		<polygon class="st1" points="536.4,144.9 533.3,146.6 533.3,150.6 538.1,147.9 		"/>
		<polygon class="st1" points="545.8,153.2 549.3,153.2 548.4,151.7 		"/>
		<polygon class="st1" points="754.6,23.6 795.5,0 788.6,0 752.8,20.6 		"/>
		<polygon class="st1" points="754.6,37.4 800,11.2 800,7.2 752.8,34.4 		"/>
		<polygon class="st1" points="754.6,51.2 800,25 800,21 752.8,48.2 		"/>
		<polygon class="st1" points="754.6,65 800,38.8 800,34.8 752.8,62 		"/>
		<polygon class="st1" points="766.3,72 800,52.6 800,48.5 764.6,69 		"/>
		<polygon class="st1" points="778.2,78.9 800,66.3 800,62.3 776.4,75.9 		"/>
		<polygon class="st1" points="790.2,85.8 800,80.1 800,76.1 788.5,82.8 		"/>
		<rect x="728.1" class="st1" width="3.5" height="0.2"/>
		<rect x="740" class="st1" width="3.5" height="6.9"/>
		<rect x="752" class="st1" width="3.5" height="13.7"/>
		<rect x="763.9" class="st1" width="3.5" height="6.9"/>
		<rect x="775.9" class="st1" width="3.5" height="0.2"/>
		<polygon class="st1" points="750.5,22.6 711.4,0 704.4,0 748.8,25.6 		"/>
		<rect x="716.7" y="-16.1" transform="matrix(0.5 -0.866 0.866 0.5 341.9984 632.1509)" class="st1" width="3.5" height="72"/>
		<rect x="710.8" y="-12.6" transform="matrix(0.5 -0.866 0.866 0.5 330.0559 632.2022)" class="st1" width="3.5" height="85.7"/>
		<rect x="704.8" y="-9.1" transform="matrix(0.5 -0.866 0.866 0.5 318.1169 632.2253)" class="st1" width="3.5" height="99.4"/>
		<rect x="698.9" y="8" transform="matrix(0.5 -0.866 0.866 0.5 306.1783 632.3105)" class="st1" width="3.5" height="85.9"/>
		<rect x="692.9" y="25.3" transform="matrix(0.5 -0.866 0.866 0.5 294.2385 632.2764)" class="st1" width="3.5" height="72.1"/>
		<rect x="686.9" y="42.5" transform="matrix(0.5 -0.866 0.866 0.5 282.2963 632.2226)" class="st1" width="3.5" height="58.2"/>
		<rect x="616.5" y="82.5" transform="matrix(0.866 -0.5 0.5 0.866 44.351 334.0242)" class="st1" width="57.9" height="3.5"/>
		<rect x="615.6" y="92.8" transform="matrix(0.866 -0.5 0.5 0.866 40 338.414)" class="st1" width="71.8" height="3.5"/>
		<rect x="614.6" y="103.1" transform="matrix(0.866 -0.5 0.5 0.866 35.6456 342.806)" class="st1" width="85.7" height="3.5"/>
		<rect x="613.7" y="113.5" transform="matrix(0.866 -0.5 0.5 0.866 31.2641 347.1611)" class="st1" width="99.4" height="3.5"/>
		<rect x="626.4" y="123.9" transform="matrix(0.866 -0.5 0.5 0.866 26.8655 351.5083)" class="st1" width="85.9" height="3.5"/>
		<polygon class="st1" points="705.7,116.4 643.1,152.5 643.5,153.2 648.9,153.2 707.4,119.4 		"/>
		<polygon class="st1" points="705.7,130.2 665.8,153.2 672.8,153.2 707.4,133.2 		"/>
		<rect x="582.8" y="11.6" class="st1" width="3.5" height="58.2"/>
		<rect x="594.8" y="4.7" class="st1" width="3.5" height="72.1"/>
		<rect x="606.7" class="st1" width="3.5" height="83.5"/>
		<rect x="618.6" class="st1" width="3.5" height="90.4"/>
		<rect x="630.6" class="st1" width="3.5" height="83.5"/>
		<rect x="642.5" y="4.7" class="st1" width="3.5" height="72.1"/>
		<rect x="654.5" y="11.6" class="st1" width="3.5" height="58.2"/>
		<polygon class="st1" points="593.4,1.2 591.3,0 584.4,0 591.7,4.2 		"/>
		<polygon class="st1" points="581.4,8.1 567.4,0 560.5,0 579.7,11.1 		"/>
		<polygon class="st1" points="549.3,0 545.8,0 533.3,7.2 533.3,11.2 550.1,1.5 		"/>
		<polygon class="st1" points="560.4,5.3 533.3,21 533.3,25 562.1,8.4 		"/>
		<polygon class="st1" points="572.3,12.3 533.3,34.8 533.3,38.8 574,15.3 		"/>
		<polygon class="st1" points="572.4,26 533.3,48.5 533.3,52.6 574.1,29 		"/>
		<polygon class="st1" points="572.4,39.8 533.3,62.3 533.3,66.3 574.1,42.8 		"/>
		<polygon class="st1" points="572.4,53.6 533.3,76.1 533.3,80.1 574.1,56.6 		"/>
		<polygon class="st1" points="648.9,0 643.5,0 644.8,2.3 		"/>
		<polygon class="st1" points="656.9,9.2 672.8,0 665.8,0 655.2,6.1 		"/>
	</g>
	<g class="st0">
		<polygon class="st1" points="264.4,244.1 262.7,247.1 266.7,249.4 266.7,245.4 		"/>
		<polygon class="st1" points="262.6,260.9 266.7,263.2 266.7,259.2 264.3,257.9 		"/>
		<polygon class="st1" points="262.6,274.7 266.7,277 266.7,273 264.3,271.6 		"/>
		<polygon class="st1" points="262.6,288.4 266.7,290.8 266.7,286.8 264.3,285.4 		"/>
		<polygon class="st1" points="262.2,306.5 266.7,303.9 266.7,299.9 255.2,306.5 		"/>
		<rect x="182.8" y="241.5" class="st1" width="3.5" height="58.2"/>
		<rect x="194.8" y="234.5" class="st1" width="3.5" height="72"/>
		<rect x="206.7" y="227.8" class="st1" width="3.5" height="78.7"/>
		<rect x="218.6" y="220.7" class="st1" width="3.5" height="85.8"/>
		<rect x="230.6" y="227.8" class="st1" width="3.5" height="78.7"/>
		<rect x="242.5" y="234.5" class="st1" width="3.5" height="72"/>
		<rect x="254.5" y="241.5" class="st1" width="3.5" height="58.2"/>
		<polygon class="st1" points="165.1,303 171.1,306.5 178,306.5 166.9,300 		"/>
		<rect x="73.4" y="304.4" class="st1" width="3.5" height="2.1"/>
		<rect x="85.3" y="297.3" class="st1" width="3.5" height="9.2"/>
		<rect x="97.3" y="304.4" class="st1" width="3.5" height="2.1"/>
		<rect x="56.1" y="210.4" transform="matrix(0.5 -0.866 0.866 0.5 -178.4512 169.7959)" class="st1" width="3.5" height="58.1"/>
		<rect x="50.1" y="213.7" transform="matrix(0.5 -0.866 0.866 0.5 -190.3921 169.726)" class="st1" width="3.5" height="72"/>
		<rect x="44.1" y="217.3" transform="matrix(0.5 -0.866 0.866 0.5 -202.332 169.778)" class="st1" width="3.5" height="85.7"/>
		<polygon class="st1" points="83.8,293.8 0,245.4 0,249.4 82.1,296.8 		"/>
		<polygon class="st1" points="72.1,300.8 0,259.2 0,263.2 70.4,303.8 		"/>
		<polygon class="st1" points="0,277 51,306.5 58,306.5 0,273 		"/>
		<polygon class="st1" points="0,290.8 27.1,306.5 34.1,306.5 0,286.8 		"/>
		<polygon class="st1" points="3,298.1 0,299.9 0,303.9 4.8,301.1 		"/>
		<polygon class="st1" points="12.4,306.5 15.9,306.5 15.1,304.9 		"/>
		<polygon class="st1" points="221.3,176.9 262.2,153.2 255.2,153.2 219.5,173.8 		"/>
		<polygon class="st1" points="221.3,190.7 266.7,164.4 266.7,160.4 219.5,187.6 		"/>
		<polygon class="st1" points="221.3,204.4 266.7,178.2 266.7,174.2 219.5,201.4 		"/>
		<polygon class="st1" points="221.3,218.2 266.7,192 266.7,188 219.5,215.2 		"/>
		<polygon class="st1" points="233,225.2 266.7,205.8 266.7,201.8 231.3,222.2 		"/>
		<polygon class="st1" points="244.8,232.2 266.7,219.6 266.7,215.6 243.1,229.2 		"/>
		<polygon class="st1" points="256.9,239 266.7,233.4 266.7,229.3 255.2,236 		"/>
		<rect x="194.8" y="153.2" class="st1" width="3.5" height="0.2"/>
		<rect x="206.7" y="153.2" class="st1" width="3.5" height="6.9"/>
		<rect x="218.6" y="153.2" class="st1" width="3.5" height="13.7"/>
		<rect x="230.6" y="153.2" class="st1" width="3.5" height="6.9"/>
		<rect x="242.5" y="153.2" class="st1" width="3.5" height="0.2"/>
		<polygon class="st1" points="217.2,175.8 178,153.2 171.1,153.2 215.4,178.9 		"/>
		<rect x="183.4" y="137.1" transform="matrix(0.5 -0.866 0.866 0.5 -57.3731 246.8875)" class="st1" width="3.5" height="72"/>
		<rect x="177.5" y="140.6" transform="matrix(0.5 -0.866 0.866 0.5 -69.3134 246.9397)" class="st1" width="3.5" height="85.7"/>
		<rect x="171.5" y="144.1" transform="matrix(0.5 -0.866 0.866 0.5 -81.2537 246.9624)" class="st1" width="3.5" height="99.4"/>
		<rect x="165.6" y="161.3" transform="matrix(0.5 -0.866 0.866 0.5 -93.194 247.0468)" class="st1" width="3.5" height="85.9"/>
		<rect x="159.6" y="178.5" transform="matrix(0.5 -0.866 0.866 0.5 -105.1343 247.0124)" class="st1" width="3.5" height="72.1"/>
		<rect x="153.6" y="195.8" transform="matrix(0.5 -0.866 0.866 0.5 -117.0748 246.9589)" class="st1" width="3.5" height="58.2"/>
		<rect x="83.2" y="235.7" transform="matrix(0.866 -0.5 0.5 0.866 -103.7205 87.8907)" class="st1" width="57.9" height="3.5"/>
		<rect x="82.2" y="246.1" transform="matrix(0.866 -0.5 0.5 0.866 -108.0718 92.2809)" class="st1" width="71.8" height="3.5"/>
		<rect x="81.3" y="256.4" transform="matrix(0.866 -0.5 0.5 0.866 -112.4272 96.6605)" class="st1" width="85.7" height="3.5"/>
		<rect x="80.4" y="266.7" transform="matrix(0.866 -0.5 0.5 0.866 -116.8062 101.0234)" class="st1" width="99.4" height="3.5"/>
		<rect x="93" y="277.1" transform="matrix(0.866 -0.5 0.5 0.866 -121.2095 105.3662)" class="st1" width="85.9" height="3.5"/>
		<polygon class="st1" points="172.4,269.7 109.8,305.8 110.2,306.5 115.5,306.5 174.1,272.7 		"/>
		<polygon class="st1" points="172.4,283.4 132.5,306.5 139.4,306.5 174.1,286.5 		"/>
		<rect x="49.5" y="164.9" class="st1" width="3.5" height="58.2"/>
		<rect x="61.4" y="157.9" class="st1" width="3.5" height="72.1"/>
		<rect x="73.4" y="153.2" class="st1" width="3.5" height="83.5"/>
		<rect x="85.3" y="153.2" class="st1" width="3.5" height="90.4"/>
		<rect x="97.3" y="153.2" class="st1" width="3.5" height="83.5"/>
		<rect x="109.2" y="157.9" class="st1" width="3.5" height="72.1"/>
		<rect x="121.1" y="164.9" class="st1" width="3.5" height="58.2"/>
		<polygon class="st1" points="60.1,154.5 58,153.2 51,153.2 58.4,157.5 		"/>
		<polygon class="st1" points="48.1,161.3 34.1,153.2 27.1,153.2 46.3,164.3 		"/>
		<polygon class="st1" points="15.9,153.2 12.4,153.2 0,160.4 0,164.4 16.8,154.7 		"/>
		<polygon class="st1" points="27.1,158.6 0,174.2 0,178.2 28.8,161.6 		"/>
		<polygon class="st1" points="39,165.5 0,188 0,192 40.7,168.5 		"/>
		<polygon class="st1" points="39,179.2 0,201.8 0,205.8 40.8,182.3 		"/>
		<polygon class="st1" points="39,193 0,215.6 0,219.6 40.8,196 		"/>
		<polygon class="st1" points="39,206.8 0,229.3 0,233.4 40.8,209.8 		"/>
		<polygon class="st1" points="115.5,153.2 110.2,153.2 111.5,155.6 		"/>
		<polygon class="st1" points="123.6,162.4 139.4,153.2 132.5,153.2 121.8,159.4 		"/>
	</g>
	<g class="st0">
		<polygon class="st1" points="531.1,244.1 529.3,247.1 533.3,249.4 533.3,245.4 		"/>
		<polygon class="st1" points="529.3,260.9 533.3,263.2 533.3,259.2 531,257.9 		"/>
		<polygon class="st1" points="529.3,274.7 533.3,277 533.3,273 531,271.6 		"/>
		<polygon class="st1" points="529.3,288.4 533.3,290.8 533.3,286.8 531,285.4 		"/>
		<polygon class="st1" points="528.8,306.5 533.3,303.9 533.3,299.9 521.9,306.5 		"/>
		<rect x="449.5" y="241.5" class="st1" width="3.5" height="58.2"/>
		<rect x="461.4" y="234.5" class="st1" width="3.5" height="72"/>
		<rect x="473.4" y="227.8" class="st1" width="3.5" height="78.7"/>
		<rect x="485.3" y="220.7" class="st1" width="3.5" height="85.8"/>
		<rect x="497.3" y="227.8" class="st1" width="3.5" height="78.7"/>
		<rect x="509.2" y="234.5" class="st1" width="3.5" height="72"/>
		<rect x="521.1" y="241.5" class="st1" width="3.5" height="58.2"/>
		<polygon class="st1" points="431.8,303 437.7,306.5 444.7,306.5 433.5,300 		"/>
		<rect x="340" y="304.4" class="st1" width="3.5" height="2.1"/>
		<rect x="352" y="297.3" class="st1" width="3.5" height="9.2"/>
		<rect x="363.9" y="304.4" class="st1" width="3.5" height="2.1"/>
		<rect x="322.7" y="210.4" transform="matrix(0.5 -0.866 0.866 0.5 -45.1187 400.7357)" class="st1" width="3.5" height="58.1"/>
		<rect x="316.7" y="213.7" transform="matrix(0.5 -0.866 0.866 0.5 -57.0584 400.6665)" class="st1" width="3.5" height="72"/>
		<rect x="310.8" y="217.3" transform="matrix(0.5 -0.866 0.866 0.5 -68.9991 400.7178)" class="st1" width="3.5" height="85.7"/>
		<polygon class="st1" points="350.5,293.8 266.7,245.4 266.7,249.4 348.8,296.8 		"/>
		<polygon class="st1" points="338.8,300.8 266.7,259.2 266.7,263.2 337,303.8 		"/>
		<polygon class="st1" points="266.7,277 317.7,306.5 324.7,306.5 266.7,273 		"/>
		<polygon class="st1" points="266.7,290.8 293.8,306.5 300.8,306.5 266.7,286.8 		"/>
		<polygon class="st1" points="269.7,298.1 266.7,299.9 266.7,303.9 271.4,301.1 		"/>
		<polygon class="st1" points="279.1,306.5 282.6,306.5 281.7,304.9 		"/>
		<polygon class="st1" points="487.9,176.9 528.8,153.2 521.9,153.2 486.2,173.8 		"/>
		<polygon class="st1" points="487.9,190.7 533.3,164.4 533.3,160.4 486.2,187.6 		"/>
		<polygon class="st1" points="487.9,204.4 533.3,178.2 533.3,174.2 486.2,201.4 		"/>
		<polygon class="st1" points="487.9,218.2 533.3,192 533.3,188 486.2,215.2 		"/>
		<polygon class="st1" points="499.7,225.2 533.3,205.8 533.3,201.8 497.9,222.2 		"/>
		<polygon class="st1" points="511.5,232.2 533.3,219.6 533.3,215.6 509.8,229.2 		"/>
		<polygon class="st1" points="523.6,239 533.3,233.4 533.3,229.3 521.8,236 		"/>
		<rect x="461.4" y="153.2" class="st1" width="3.5" height="0.2"/>
		<rect x="473.4" y="153.2" class="st1" width="3.5" height="6.9"/>
		<rect x="485.3" y="153.2" class="st1" width="3.5" height="13.7"/>
		<rect x="497.3" y="153.2" class="st1" width="3.5" height="6.9"/>
		<rect x="509.2" y="153.2" class="st1" width="3.5" height="0.2"/>
		<polygon class="st1" points="483.8,175.8 444.7,153.2 437.7,153.2 482.1,178.9 		"/>
		<rect x="450.1" y="137.1" transform="matrix(0.5 -0.866 0.866 0.5 75.9602 477.8274)" class="st1" width="3.5" height="72"/>
		<rect x="444.1" y="140.6" transform="matrix(0.5 -0.866 0.866 0.5 64.0194 477.8794)" class="st1" width="3.5" height="85.7"/>
		<rect x="438.2" y="144.1" transform="matrix(0.5 -0.866 0.866 0.5 52.0795 477.9023)" class="st1" width="3.5" height="99.4"/>
		<rect x="432.3" y="161.3" transform="matrix(0.5 -0.866 0.866 0.5 40.1399 477.9874)" class="st1" width="3.5" height="85.9"/>
		<rect x="426.3" y="178.5" transform="matrix(0.5 -0.866 0.866 0.5 28.1997 477.9531)" class="st1" width="3.5" height="72.1"/>
		<rect x="420.3" y="195.8" transform="matrix(0.5 -0.866 0.866 0.5 16.2582 477.8988)" class="st1" width="3.5" height="58.2"/>
		<rect x="349.8" y="235.7" transform="matrix(0.866 -0.5 0.5 0.866 -67.9922 221.227)" class="st1" width="57.9" height="3.5"/>
		<rect x="348.9" y="246.1" transform="matrix(0.866 -0.5 0.5 0.866 -72.3434 225.617)" class="st1" width="71.8" height="3.5"/>
		<rect x="348" y="256.4" transform="matrix(0.866 -0.5 0.5 0.866 -76.7016 230.0051)" class="st1" width="85.7" height="3.5"/>
		<rect x="347.1" y="266.7" transform="matrix(0.866 -0.5 0.5 0.866 -81.0796 234.3569)" class="st1" width="99.4" height="3.5"/>
		<rect x="359.7" y="277.1" transform="matrix(0.866 -0.5 0.5 0.866 -85.4813 238.7024)" class="st1" width="85.9" height="3.5"/>
		<polygon class="st1" points="439,269.7 376.4,305.8 376.8,306.5 382.2,306.5 440.8,272.7 		"/>
		<polygon class="st1" points="439,283.4 399.1,306.5 406.1,306.5 440.8,286.5 		"/>
		<rect x="316.2" y="164.9" class="st1" width="3.5" height="58.2"/>
		<rect x="328.1" y="157.9" class="st1" width="3.5" height="72.1"/>
		<rect x="340" y="153.2" class="st1" width="3.5" height="83.5"/>
		<rect x="352" y="153.2" class="st1" width="3.5" height="90.4"/>
		<rect x="363.9" y="153.2" class="st1" width="3.5" height="83.5"/>
		<rect x="375.9" y="157.9" class="st1" width="3.5" height="72.1"/>
		<rect x="387.8" y="164.9" class="st1" width="3.5" height="58.2"/>
		<polygon class="st1" points="326.8,154.5 324.7,153.2 317.7,153.2 325,157.5 		"/>
		<polygon class="st1" points="314.7,161.3 300.8,153.2 293.8,153.2 313,164.3 		"/>
		<polygon class="st1" points="282.6,153.2 279.1,153.2 266.7,160.4 266.7,164.4 283.5,154.7 		"/>
		<polygon class="st1" points="293.7,158.6 266.7,174.2 266.7,178.2 295.5,161.6 		"/>
		<polygon class="st1" points="305.6,165.5 266.7,188 266.7,192 307.4,168.5 		"/>
		<polygon class="st1" points="305.7,179.2 266.7,201.8 266.7,205.8 307.4,182.3 		"/>
		<polygon class="st1" points="305.7,193 266.7,215.6 266.7,219.6 307.4,196 		"/>
		<polygon class="st1" points="305.7,206.8 266.7,229.3 266.7,233.4 307.4,209.8 		"/>
		<polygon class="st1" points="382.2,153.2 376.8,153.2 378.2,155.6 		"/>
		<polygon class="st1" points="390.2,162.4 406.1,153.2 399.1,153.2 388.5,159.4 		"/>
	</g>
	<g class="st0">
		<polygon class="st1" points="797.7,244.1 796,247.1 800,249.4 800,245.4 		"/>
		<polygon class="st1" points="795.9,260.9 800,263.2 800,259.2 797.7,257.9 		"/>
		<polygon class="st1" points="795.9,274.7 800,277 800,273 797.7,271.6 		"/>
		<polygon class="st1" points="795.9,288.4 800,290.8 800,286.8 797.7,285.4 		"/>
		<polygon class="st1" points="795.5,306.5 800,303.9 800,299.9 788.6,306.5 		"/>
		<rect x="716.2" y="241.5" class="st1" width="3.5" height="58.2"/>
		<rect x="728.1" y="234.5" class="st1" width="3.5" height="72"/>
		<rect x="740" y="227.8" class="st1" width="3.5" height="78.7"/>
		<rect x="752" y="220.7" class="st1" width="3.5" height="85.8"/>
		<rect x="763.9" y="227.8" class="st1" width="3.5" height="78.7"/>
		<rect x="775.9" y="234.5" class="st1" width="3.5" height="72"/>
		<rect x="787.8" y="241.5" class="st1" width="3.5" height="58.2"/>
		<polygon class="st1" points="698.5,303 704.4,306.5 711.4,306.5 700.2,300 		"/>
		<rect x="606.7" y="304.4" class="st1" width="3.5" height="2.1"/>
		<rect x="618.6" y="297.3" class="st1" width="3.5" height="9.2"/>
		<rect x="630.6" y="304.4" class="st1" width="3.5" height="2.1"/>
		<rect x="589.4" y="210.4" transform="matrix(0.5 -0.866 0.866 0.5 88.2138 631.6754)" class="st1" width="3.5" height="58.1"/>
		<rect x="583.4" y="213.7" transform="matrix(0.5 -0.866 0.866 0.5 76.2754 631.6069)" class="st1" width="3.5" height="72"/>
		<rect x="577.5" y="217.3" transform="matrix(0.5 -0.866 0.866 0.5 64.334 631.658)" class="st1" width="3.5" height="85.7"/>
		<polygon class="st1" points="617.2,293.8 533.3,245.4 533.3,249.4 615.4,296.8 		"/>
		<polygon class="st1" points="605.4,300.8 533.3,259.2 533.3,263.2 603.7,303.8 		"/>
		<polygon class="st1" points="533.3,277 584.4,306.5 591.3,306.5 533.3,273 		"/>
		<polygon class="st1" points="533.3,290.8 560.5,306.5 567.4,306.5 533.3,286.8 		"/>
		<polygon class="st1" points="536.4,298.1 533.3,299.9 533.3,303.9 538.1,301.1 		"/>
		<polygon class="st1" points="545.8,306.5 549.3,306.5 548.4,304.9 		"/>
		<polygon class="st1" points="754.6,176.9 795.5,153.2 788.6,153.2 752.8,173.8 		"/>
		<polygon class="st1" points="754.6,190.7 800,164.4 800,160.4 752.8,187.6 		"/>
		<polygon class="st1" points="754.6,204.4 800,178.2 800,174.2 752.8,201.4 		"/>
		<polygon class="st1" points="754.6,218.2 800,192 800,188 752.8,215.2 		"/>
		<polygon class="st1" points="766.3,225.2 800,205.8 800,201.8 764.6,222.2 		"/>
		<polygon class="st1" points="778.2,232.2 800,219.6 800,215.6 776.4,229.2 		"/>
		<polygon class="st1" points="790.2,239 800,233.4 800,229.3 788.5,236 		"/>
		<rect x="728.1" y="153.2" class="st1" width="3.5" height="0.2"/>
		<rect x="740" y="153.2" class="st1" width="3.5" height="6.9"/>
		<rect x="752" y="153.2" class="st1" width="3.5" height="13.7"/>
		<rect x="763.9" y="153.2" class="st1" width="3.5" height="6.9"/>
		<rect x="775.9" y="153.2" class="st1" width="3.5" height="0.2"/>
		<polygon class="st1" points="750.5,175.8 711.4,153.2 704.4,153.2 748.8,178.9 		"/>
		<rect x="716.7" y="137.1" transform="matrix(0.5 -0.866 0.866 0.5 209.2938 708.7678)" class="st1" width="3.5" height="72"/>
		<rect x="710.8" y="140.6" transform="matrix(0.5 -0.866 0.866 0.5 197.3523 708.8192)" class="st1" width="3.5" height="85.7"/>
		<rect x="704.8" y="144.1" transform="matrix(0.5 -0.866 0.866 0.5 185.413 708.8426)" class="st1" width="3.5" height="99.4"/>
		<rect x="698.9" y="161.3" transform="matrix(0.5 -0.866 0.866 0.5 173.4737 708.9277)" class="st1" width="3.5" height="85.9"/>
		<rect x="692.9" y="178.5" transform="matrix(0.5 -0.866 0.866 0.5 161.5332 708.8931)" class="st1" width="3.5" height="72.1"/>
		<rect x="686.9" y="195.8" transform="matrix(0.5 -0.866 0.866 0.5 149.5912 708.8387)" class="st1" width="3.5" height="58.2"/>
		<rect x="616.5" y="235.7" transform="matrix(0.866 -0.5 0.5 0.866 -32.264 354.5632)" class="st1" width="57.9" height="3.5"/>
		<rect x="615.6" y="246.1" transform="matrix(0.866 -0.5 0.5 0.866 -36.6151 358.9532)" class="st1" width="71.8" height="3.5"/>
		<rect x="614.6" y="256.4" transform="matrix(0.866 -0.5 0.5 0.866 -40.9746 363.3264)" class="st1" width="85.7" height="3.5"/>
		<rect x="613.7" y="266.7" transform="matrix(0.866 -0.5 0.5 0.866 -45.3529 367.6906)" class="st1" width="99.4" height="3.5"/>
		<rect x="626.4" y="277.1" transform="matrix(0.866 -0.5 0.5 0.866 -49.7531 372.0387)" class="st1" width="85.9" height="3.5"/>
		<polygon class="st1" points="705.7,269.7 643.1,305.8 643.5,306.5 648.9,306.5 707.4,272.7 		"/>
		<polygon class="st1" points="705.7,283.4 665.8,306.5 672.8,306.5 707.4,286.5 		"/>
		<rect x="582.8" y="164.9" class="st1" width="3.5" height="58.2"/>
		<rect x="594.8" y="157.9" class="st1" width="3.5" height="72.1"/>
		<rect x="606.7" y="153.2" class="st1" width="3.5" height="83.5"/>
		<rect x="618.6" y="153.2" class="st1" width="3.5" height="90.4"/>
		<rect x="630.6" y="153.2" class="st1" width="3.5" height="83.5"/>
		<rect x="642.5" y="157.9" class="st1" width="3.5" height="72.1"/>
		<rect x="654.5" y="164.9" class="st1" width="3.5" height="58.2"/>
		<polygon class="st1" points="593.4,154.5 591.3,153.2 584.4,153.2 591.7,157.5 		"/>
		<polygon class="st1" points="581.4,161.3 567.4,153.2 560.5,153.2 579.7,164.3 		"/>
		<polygon class="st1" points="549.3,153.2 545.8,153.2 533.3,160.4 533.3,164.4 550.1,154.7 		"/>
		<polygon class="st1" points="560.4,158.6 533.3,174.2 533.3,178.2 562.1,161.6 		"/>
		<polygon class="st1" points="572.3,165.5 533.3,188 533.3,192 574,168.5 		"/>
		<polygon class="st1" points="572.4,179.2 533.3,201.8 533.3,205.8 574.1,182.3 		"/>
		<polygon class="st1" points="572.4,193 533.3,215.6 533.3,219.6 574.1,196 		"/>
		<polygon class="st1" points="572.4,206.8 533.3,229.3 533.3,233.4 574.1,209.8 		"/>
		<polygon class="st1" points="648.9,153.2 643.5,153.2 644.8,155.6 		"/>
		<polygon class="st1" points="656.9,162.4 672.8,153.2 665.8,153.2 655.2,159.4 		"/>
	</g>
	<g class="st0">
		<polygon class="st1" points="264.4,397.3 262.7,400.3 266.7,402.7 266.7,398.6 		"/>
		<polygon class="st1" points="262.6,414.1 266.7,416.5 266.7,412.4 264.3,411.1 		"/>
		<polygon class="st1" points="262.6,427.9 266.7,430.2 266.7,426.2 264.3,424.9 		"/>
		<polygon class="st1" points="262.6,441.7 266.7,444 266.7,440 264.3,438.7 		"/>
		<polygon class="st1" points="262.2,459.7 266.7,457.1 266.7,453.1 255.2,459.7 		"/>
		<rect x="182.8" y="394.7" class="st1" width="3.5" height="58.2"/>
		<rect x="194.8" y="387.7" class="st1" width="3.5" height="72"/>
		<rect x="206.7" y="381" class="st1" width="3.5" height="78.7"/>
		<rect x="218.6" y="373.9" class="st1" width="3.5" height="85.8"/>
		<rect x="230.6" y="381" class="st1" width="3.5" height="78.7"/>
		<rect x="242.5" y="387.7" class="st1" width="3.5" height="72"/>
		<rect x="254.5" y="394.7" class="st1" width="3.5" height="58.2"/>
		<polygon class="st1" points="165.1,456.3 171.1,459.7 178,459.7 166.9,453.3 		"/>
		<rect x="73.4" y="457.6" class="st1" width="3.5" height="2.1"/>
		<rect x="85.3" y="450.5" class="st1" width="3.5" height="9.2"/>
		<rect x="97.3" y="457.6" class="st1" width="3.5" height="2.1"/>
		<rect x="56.1" y="363.6" transform="matrix(0.5 -0.866 0.866 0.5 -311.1555 246.4128)" class="st1" width="3.5" height="58.1"/>
		<rect x="50.1" y="367" transform="matrix(0.5 -0.866 0.866 0.5 -323.0965 246.3431)" class="st1" width="3.5" height="72"/>
		<rect x="44.1" y="370.5" transform="matrix(0.5 -0.866 0.866 0.5 -335.0363 246.3947)" class="st1" width="3.5" height="85.7"/>
		<polygon class="st1" points="83.8,447.1 0,398.6 0,402.7 82.1,450.1 		"/>
		<polygon class="st1" points="72.1,454.1 0,412.4 0,416.5 70.4,457.1 		"/>
		<polygon class="st1" points="0,430.2 51,459.7 58,459.7 0,426.2 		"/>
		<polygon class="st1" points="0,444 27.1,459.7 34.1,459.7 0,440 		"/>
		<polygon class="st1" points="3,451.3 0,453.1 0,457.1 4.8,454.4 		"/>
		<polygon class="st1" points="12.4,459.7 15.9,459.7 15.1,458.2 		"/>
		<polygon class="st1" points="221.3,330.1 262.2,306.5 255.2,306.5 219.5,327.1 		"/>
		<polygon class="st1" points="221.3,343.9 266.7,317.7 266.7,313.6 219.5,340.9 		"/>
		<polygon class="st1" points="221.3,357.7 266.7,331.5 266.7,327.4 219.5,354.7 		"/>
		<polygon class="st1" points="221.3,371.5 266.7,345.2 266.7,341.2 219.5,368.4 		"/>
		<polygon class="st1" points="233,378.5 266.7,359 266.7,355 231.3,375.5 		"/>
		<polygon class="st1" points="244.8,385.4 266.7,372.8 266.7,368.8 243.1,382.4 		"/>
		<polygon class="st1" points="256.9,392.2 266.7,386.6 266.7,382.6 255.2,389.2 		"/>
		<rect x="194.8" y="306.5" class="st1" width="3.5" height="0.2"/>
		<rect x="206.7" y="306.5" class="st1" width="3.5" height="6.9"/>
		<rect x="218.6" y="306.5" class="st1" width="3.5" height="13.7"/>
		<rect x="230.6" y="306.5" class="st1" width="3.5" height="6.9"/>
		<rect x="242.5" y="306.5" class="st1" width="3.5" height="0.2"/>
		<polygon class="st1" points="217.2,329.1 178,306.5 171.1,306.5 215.4,332.1 		"/>
		<rect x="183.4" y="290.4" transform="matrix(0.5 -0.866 0.866 0.5 -190.0775 323.5049)" class="st1" width="3.5" height="72"/>
		<rect x="177.5" y="293.9" transform="matrix(0.5 -0.866 0.866 0.5 -202.0177 323.5565)" class="st1" width="3.5" height="85.7"/>
		<rect x="171.5" y="297.4" transform="matrix(0.5 -0.866 0.866 0.5 -213.9581 323.5793)" class="st1" width="3.5" height="99.4"/>
		<rect x="165.6" y="314.5" transform="matrix(0.5 -0.866 0.866 0.5 -225.8984 323.6639)" class="st1" width="3.5" height="85.9"/>
		<rect x="159.6" y="331.7" transform="matrix(0.5 -0.866 0.866 0.5 -237.8388 323.6296)" class="st1" width="3.5" height="72.1"/>
		<rect x="153.6" y="349" transform="matrix(0.5 -0.866 0.866 0.5 -249.7791 323.5757)" class="st1" width="3.5" height="58.2"/>
		<rect x="83.2" y="389" transform="matrix(0.866 -0.5 0.5 0.866 -180.3391 108.4211)" class="st1" width="57.9" height="3.5"/>
		<rect x="82.2" y="399.3" transform="matrix(0.866 -0.5 0.5 0.866 -184.6905 112.8114)" class="st1" width="71.8" height="3.5"/>
		<rect x="81.3" y="409.6" transform="matrix(0.866 -0.5 0.5 0.866 -189.0481 117.1943)" class="st1" width="85.7" height="3.5"/>
		<rect x="80.4" y="420" transform="matrix(0.866 -0.5 0.5 0.866 -193.4229 121.5526)" class="st1" width="99.4" height="3.5"/>
		<rect x="93" y="430.4" transform="matrix(0.866 -0.5 0.5 0.866 -197.8281 125.8966)" class="st1" width="85.9" height="3.5"/>
		<polygon class="st1" points="172.4,422.9 109.8,459 110.2,459.7 115.5,459.7 174.1,425.9 		"/>
		<polygon class="st1" points="172.4,436.7 132.5,459.7 139.4,459.7 174.1,439.7 		"/>
		<rect x="49.5" y="318.1" class="st1" width="3.5" height="58.2"/>
		<rect x="61.4" y="311.1" class="st1" width="3.5" height="72.1"/>
		<rect x="73.4" y="306.5" class="st1" width="3.5" height="83.5"/>
		<rect x="85.3" y="306.5" class="st1" width="3.5" height="90.4"/>
		<rect x="97.3" y="306.5" class="st1" width="3.5" height="83.5"/>
		<rect x="109.2" y="311.1" class="st1" width="3.5" height="72.1"/>
		<rect x="121.1" y="318.1" class="st1" width="3.5" height="58.2"/>
		<polygon class="st1" points="60.1,307.7 58,306.5 51,306.5 58.4,310.7 		"/>
		<polygon class="st1" points="48.1,314.5 34.1,306.5 27.1,306.5 46.3,317.5 		"/>
		<polygon class="st1" points="15.9,306.5 12.4,306.5 0,313.6 0,317.7 16.8,308 		"/>
		<polygon class="st1" points="27.1,311.8 0,327.4 0,331.5 28.8,314.8 		"/>
		<polygon class="st1" points="39,318.7 0,341.2 0,345.2 40.7,321.7 		"/>
		<polygon class="st1" points="39,332.5 0,355 0,359 40.8,335.5 		"/>
		<polygon class="st1" points="39,346.3 0,368.8 0,372.8 40.8,349.3 		"/>
		<polygon class="st1" points="39,360.1 0,382.6 0,386.6 40.8,363.1 		"/>
		<polygon class="st1" points="115.5,306.5 110.2,306.5 111.5,308.8 		"/>
		<polygon class="st1" points="123.6,315.6 139.4,306.5 132.5,306.5 121.8,312.6 		"/>
	</g>
	<g class="st0">
		<polygon class="st1" points="531.1,397.3 529.3,400.3 533.3,402.7 533.3,398.6 		"/>
		<polygon class="st1" points="529.3,414.1 533.3,416.5 533.3,412.4 531,411.1 		"/>
		<polygon class="st1" points="529.3,427.9 533.3,430.2 533.3,426.2 531,424.9 		"/>
		<polygon class="st1" points="529.3,441.7 533.3,444 533.3,440 531,438.7 		"/>
		<polygon class="st1" points="528.8,459.7 533.3,457.1 533.3,453.1 521.9,459.7 		"/>
		<rect x="449.5" y="394.7" class="st1" width="3.5" height="58.2"/>
		<rect x="461.4" y="387.7" class="st1" width="3.5" height="72"/>
		<rect x="473.4" y="381" class="st1" width="3.5" height="78.7"/>
		<rect x="485.3" y="373.9" class="st1" width="3.5" height="85.8"/>
		<rect x="497.3" y="381" class="st1" width="3.5" height="78.7"/>
		<rect x="509.2" y="387.7" class="st1" width="3.5" height="72"/>
		<rect x="521.1" y="394.7" class="st1" width="3.5" height="58.2"/>
		<polygon class="st1" points="431.8,456.3 437.7,459.7 444.7,459.7 433.5,453.3 		"/>
		<rect x="340" y="457.6" class="st1" width="3.5" height="2.1"/>
		<rect x="352" y="450.5" class="st1" width="3.5" height="9.2"/>
		<rect x="363.9" y="457.6" class="st1" width="3.5" height="2.1"/>
		<rect x="322.7" y="363.6" transform="matrix(0.5 -0.866 0.866 0.5 -177.8227 477.3529)" class="st1" width="3.5" height="58.1"/>
		<rect x="316.7" y="367" transform="matrix(0.5 -0.866 0.866 0.5 -189.7629 477.2837)" class="st1" width="3.5" height="72"/>
		<rect x="310.8" y="370.5" transform="matrix(0.5 -0.866 0.866 0.5 -201.7033 477.3345)" class="st1" width="3.5" height="85.7"/>
		<polygon class="st1" points="350.5,447.1 266.7,398.6 266.7,402.7 348.8,450.1 		"/>
		<polygon class="st1" points="338.8,454.1 266.7,412.4 266.7,416.5 337,457.1 		"/>
		<polygon class="st1" points="266.7,430.2 317.7,459.7 324.7,459.7 266.7,426.2 		"/>
		<polygon class="st1" points="266.7,444 293.8,459.7 300.8,459.7 266.7,440 		"/>
		<polygon class="st1" points="269.7,451.3 266.7,453.1 266.7,457.1 271.4,454.4 		"/>
		<polygon class="st1" points="279.1,459.7 282.6,459.7 281.7,458.2 		"/>
		<polygon class="st1" points="487.9,330.1 528.8,306.5 521.9,306.5 486.2,327.1 		"/>
		<polygon class="st1" points="487.9,343.9 533.3,317.7 533.3,313.6 486.2,340.9 		"/>
		<polygon class="st1" points="487.9,357.7 533.3,331.5 533.3,327.4 486.2,354.7 		"/>
		<polygon class="st1" points="487.9,371.5 533.3,345.2 533.3,341.2 486.2,368.4 		"/>
		<polygon class="st1" points="499.7,378.5 533.3,359 533.3,355 497.9,375.5 		"/>
		<polygon class="st1" points="511.5,385.4 533.3,372.8 533.3,368.8 509.8,382.4 		"/>
		<polygon class="st1" points="523.6,392.2 533.3,386.6 533.3,382.6 521.8,389.2 		"/>
		<rect x="461.4" y="306.5" class="st1" width="3.5" height="0.2"/>
		<rect x="473.4" y="306.5" class="st1" width="3.5" height="6.9"/>
		<rect x="485.3" y="306.5" class="st1" width="3.5" height="13.7"/>
		<rect x="497.3" y="306.5" class="st1" width="3.5" height="6.9"/>
		<rect x="509.2" y="306.5" class="st1" width="3.5" height="0.2"/>
		<polygon class="st1" points="483.8,329.1 444.7,306.5 437.7,306.5 482.1,332.1 		"/>
		<rect x="450.1" y="290.4" transform="matrix(0.5 -0.866 0.866 0.5 -56.7439 554.4449)" class="st1" width="3.5" height="72"/>
		<rect x="444.1" y="293.9" transform="matrix(0.5 -0.866 0.866 0.5 -68.6848 554.4961)" class="st1" width="3.5" height="85.7"/>
		<rect x="438.2" y="297.4" transform="matrix(0.5 -0.866 0.866 0.5 -80.6248 554.5192)" class="st1" width="3.5" height="99.4"/>
		<rect x="432.3" y="314.5" transform="matrix(0.5 -0.866 0.866 0.5 -92.5646 554.6046)" class="st1" width="3.5" height="85.9"/>
		<rect x="426.3" y="331.7" transform="matrix(0.5 -0.866 0.866 0.5 -104.5049 554.5703)" class="st1" width="3.5" height="72.1"/>
		<rect x="420.3" y="349" transform="matrix(0.5 -0.866 0.866 0.5 -116.4461 554.5155)" class="st1" width="3.5" height="58.2"/>
		<rect x="349.8" y="389" transform="matrix(0.866 -0.5 0.5 0.866 -144.6108 241.7574)" class="st1" width="57.9" height="3.5"/>
		<rect x="348.9" y="399.3" transform="matrix(0.866 -0.5 0.5 0.866 -148.962 246.1474)" class="st1" width="71.8" height="3.5"/>
		<rect x="348" y="409.6" transform="matrix(0.866 -0.5 0.5 0.866 -153.3239 250.5441)" class="st1" width="85.7" height="3.5"/>
		<rect x="347.1" y="420" transform="matrix(0.866 -0.5 0.5 0.866 -157.6964 254.8859)" class="st1" width="99.4" height="3.5"/>
		<rect x="359.7" y="430.4" transform="matrix(0.866 -0.5 0.5 0.866 -162.0999 259.2328)" class="st1" width="85.9" height="3.5"/>
		<polygon class="st1" points="439,422.9 376.4,459 376.8,459.7 382.2,459.7 440.8,425.9 		"/>
		<polygon class="st1" points="439,436.7 399.1,459.7 406.1,459.7 440.8,439.7 		"/>
		<rect x="316.2" y="318.1" class="st1" width="3.5" height="58.2"/>
		<rect x="328.1" y="311.1" class="st1" width="3.5" height="72.1"/>
		<rect x="340" y="306.5" class="st1" width="3.5" height="83.5"/>
		<rect x="352" y="306.5" class="st1" width="3.5" height="90.4"/>
		<rect x="363.9" y="306.5" class="st1" width="3.5" height="83.5"/>
		<rect x="375.9" y="311.1" class="st1" width="3.5" height="72.1"/>
		<rect x="387.8" y="318.1" class="st1" width="3.5" height="58.2"/>
		<polygon class="st1" points="326.8,307.7 324.7,306.5 317.7,306.5 325,310.7 		"/>
		<polygon class="st1" points="314.7,314.5 300.8,306.5 293.8,306.5 313,317.5 		"/>
		<polygon class="st1" points="282.6,306.5 279.1,306.5 266.7,313.6 266.7,317.7 283.5,308 		"/>
		<polygon class="st1" points="293.7,311.8 266.7,327.4 266.7,331.5 295.5,314.8 		"/>
		<polygon class="st1" points="305.6,318.7 266.7,341.2 266.7,345.2 307.4,321.7 		"/>
		<polygon class="st1" points="305.7,332.5 266.7,355 266.7,359 307.4,335.5 		"/>
		<polygon class="st1" points="305.7,346.3 266.7,368.8 266.7,372.8 307.4,349.3 		"/>
		<polygon class="st1" points="305.7,360.1 266.7,382.6 266.7,386.6 307.4,363.1 		"/>
		<polygon class="st1" points="382.2,306.5 376.8,306.5 378.2,308.8 		"/>
		<polygon class="st1" points="390.2,315.6 406.1,306.5 399.1,306.5 388.5,312.6 		"/>
	</g>
	<g class="st0">
		<polygon class="st1" points="797.7,397.3 796,400.3 800,402.7 800,398.6 		"/>
		<polygon class="st1" points="795.9,414.1 800,416.5 800,412.4 797.7,411.1 		"/>
		<polygon class="st1" points="795.9,427.9 800,430.2 800,426.2 797.7,424.9 		"/>
		<polygon class="st1" points="795.9,441.7 800,444 800,440 797.7,438.7 		"/>
		<polygon class="st1" points="795.5,459.7 800,457.1 800,453.1 788.6,459.7 		"/>
		<rect x="716.2" y="394.7" class="st1" width="3.5" height="58.2"/>
		<rect x="728.1" y="387.7" class="st1" width="3.5" height="72"/>
		<rect x="740" y="381" class="st1" width="3.5" height="78.7"/>
		<rect x="752" y="373.9" class="st1" width="3.5" height="85.8"/>
		<rect x="763.9" y="381" class="st1" width="3.5" height="78.7"/>
		<rect x="775.9" y="387.7" class="st1" width="3.5" height="72"/>
		<rect x="787.8" y="394.7" class="st1" width="3.5" height="58.2"/>
		<polygon class="st1" points="698.5,456.3 704.4,459.7 711.4,459.7 700.2,453.3 		"/>
		<rect x="606.7" y="457.6" class="st1" width="3.5" height="2.1"/>
		<rect x="618.6" y="450.5" class="st1" width="3.5" height="9.2"/>
		<rect x="630.6" y="457.6" class="st1" width="3.5" height="2.1"/>
		<rect x="589.4" y="363.6" transform="matrix(0.5 -0.866 0.866 0.5 -44.4899 708.2928)" class="st1" width="3.5" height="58.1"/>
		<rect x="583.4" y="367" transform="matrix(0.5 -0.866 0.866 0.5 -56.4292 708.2241)" class="st1" width="3.5" height="72"/>
		<rect x="577.5" y="370.5" transform="matrix(0.5 -0.866 0.866 0.5 -68.3703 708.2747)" class="st1" width="3.5" height="85.7"/>
		<polygon class="st1" points="617.2,447.1 533.3,398.6 533.3,402.7 615.4,450.1 		"/>
		<polygon class="st1" points="605.4,454.1 533.3,412.4 533.3,416.5 603.7,457.1 		"/>
		<polygon class="st1" points="533.3,430.2 584.4,459.7 591.3,459.7 533.3,426.2 		"/>
		<polygon class="st1" points="533.3,444 560.5,459.7 567.4,459.7 533.3,440 		"/>
		<polygon class="st1" points="536.4,451.3 533.3,453.1 533.3,457.1 538.1,454.4 		"/>
		<polygon class="st1" points="545.8,459.7 549.3,459.7 548.4,458.2 		"/>
		<polygon class="st1" points="754.6,330.1 795.5,306.5 788.6,306.5 752.8,327.1 		"/>
		<polygon class="st1" points="754.6,343.9 800,317.7 800,313.6 752.8,340.9 		"/>
		<polygon class="st1" points="754.6,357.7 800,331.5 800,327.4 752.8,354.7 		"/>
		<polygon class="st1" points="754.6,371.5 800,345.2 800,341.2 752.8,368.4 		"/>
		<polygon class="st1" points="766.3,378.5 800,359 800,355 764.6,375.5 		"/>
		<polygon class="st1" points="778.2,385.4 800,372.8 800,368.8 776.4,382.4 		"/>
		<polygon class="st1" points="790.2,392.2 800,386.6 800,382.6 788.5,389.2 		"/>
		<rect x="728.1" y="306.5" class="st1" width="3.5" height="0.2"/>
		<rect x="740" y="306.5" class="st1" width="3.5" height="6.9"/>
		<rect x="752" y="306.5" class="st1" width="3.5" height="13.7"/>
		<rect x="763.9" y="306.5" class="st1" width="3.5" height="6.9"/>
		<rect x="775.9" y="306.5" class="st1" width="3.5" height="0.2"/>
		<polygon class="st1" points="750.5,329.1 711.4,306.5 704.4,306.5 748.8,332.1 		"/>
		<rect x="716.7" y="290.4" transform="matrix(0.5 -0.866 0.866 0.5 76.59 785.3856)" class="st1" width="3.5" height="72"/>
		<rect x="710.8" y="293.9" transform="matrix(0.5 -0.866 0.866 0.5 64.6481 785.4359)" class="st1" width="3.5" height="85.7"/>
		<rect x="704.8" y="297.4" transform="matrix(0.5 -0.866 0.866 0.5 52.7086 785.4595)" class="st1" width="3.5" height="99.4"/>
		<rect x="698.9" y="314.5" transform="matrix(0.5 -0.866 0.866 0.5 40.7692 785.5449)" class="st1" width="3.5" height="85.9"/>
		<rect x="692.9" y="331.7" transform="matrix(0.5 -0.866 0.866 0.5 28.8287 785.5103)" class="st1" width="3.5" height="72.1"/>
		<rect x="686.9" y="349" transform="matrix(0.5 -0.866 0.866 0.5 16.8869 785.4554)" class="st1" width="3.5" height="58.2"/>
		<rect x="616.5" y="389" transform="matrix(0.866 -0.5 0.5 0.866 -108.8826 375.0936)" class="st1" width="57.9" height="3.5"/>
		<rect x="615.6" y="399.3" transform="matrix(0.866 -0.5 0.5 0.866 -113.2337 379.4836)" class="st1" width="71.8" height="3.5"/>
		<rect x="614.6" y="409.6" transform="matrix(0.866 -0.5 0.5 0.866 -117.5916 383.8668)" class="st1" width="85.7" height="3.5"/>
		<rect x="613.7" y="420" transform="matrix(0.866 -0.5 0.5 0.866 -121.9699 388.2195)" class="st1" width="99.4" height="3.5"/>
		<rect x="626.4" y="430.4" transform="matrix(0.866 -0.5 0.5 0.866 -126.3717 392.5691)" class="st1" width="85.9" height="3.5"/>
		<polygon class="st1" points="705.7,422.9 643.1,459 643.5,459.7 648.9,459.7 707.4,425.9 		"/>
		<polygon class="st1" points="705.7,436.7 665.8,459.7 672.8,459.7 707.4,439.7 		"/>
		<rect x="582.8" y="318.1" class="st1" width="3.5" height="58.2"/>
		<rect x="594.8" y="311.1" class="st1" width="3.5" height="72.1"/>
		<rect x="606.7" y="306.5" class="st1" width="3.5" height="83.5"/>
		<rect x="618.6" y="306.5" class="st1" width="3.5" height="90.4"/>
		<rect x="630.6" y="306.5" class="st1" width="3.5" height="83.5"/>
		<rect x="642.5" y="311.1" class="st1" width="3.5" height="72.1"/>
		<rect x="654.5" y="318.1" class="st1" width="3.5" height="58.2"/>
		<polygon class="st1" points="593.4,307.7 591.3,306.5 584.4,306.5 591.7,310.7 		"/>
		<polygon class="st1" points="581.4,314.5 567.4,306.5 560.5,306.5 579.7,317.5 		"/>
		<polygon class="st1" points="549.3,306.5 545.8,306.5 533.3,313.6 533.3,317.7 550.1,308 		"/>
		<polygon class="st1" points="560.4,311.8 533.3,327.4 533.3,331.5 562.1,314.8 		"/>
		<polygon class="st1" points="572.3,318.7 533.3,341.2 533.3,345.2 574,321.7 		"/>
		<polygon class="st1" points="572.4,332.5 533.3,355 533.3,359 574.1,335.5 		"/>
		<polygon class="st1" points="572.4,346.3 533.3,368.8 533.3,372.8 574.1,349.3 		"/>
		<polygon class="st1" points="572.4,360.1 533.3,382.6 533.3,386.6 574.1,363.1 		"/>
		<polygon class="st1" points="648.9,306.5 643.5,306.5 644.8,308.8 		"/>
		<polygon class="st1" points="656.9,315.6 672.8,306.5 665.8,306.5 655.2,312.6 		"/>
	</g>
	<g class="st0">
		<polygon class="st1" points="264.4,550.6 262.7,553.6 266.7,555.9 266.7,551.9 		"/>
		<polygon class="st1" points="262.6,567.3 266.7,569.7 266.7,565.7 264.3,564.3 		"/>
		<polygon class="st1" points="262.6,581.1 266.7,583.5 266.7,579.5 264.3,578.1 		"/>
		<polygon class="st1" points="262.6,594.9 266.7,597.3 266.7,593.2 264.3,591.9 		"/>
		<polygon class="st1" points="262.2,612.9 266.7,610.3 266.7,606.3 255.2,612.9 		"/>
		<rect x="182.8" y="547.9" class="st1" width="3.5" height="58.2"/>
		<rect x="194.8" y="541" class="st1" width="3.5" height="72"/>
		<rect x="206.7" y="534.3" class="st1" width="3.5" height="78.7"/>
		<rect x="218.6" y="527.2" class="st1" width="3.5" height="85.8"/>
		<rect x="230.6" y="534.3" class="st1" width="3.5" height="78.7"/>
		<rect x="242.5" y="541" class="st1" width="3.5" height="72"/>
		<rect x="254.5" y="547.9" class="st1" width="3.5" height="58.2"/>
		<polygon class="st1" points="165.1,609.5 171.1,612.9 178,612.9 166.9,606.5 		"/>
		<rect x="73.4" y="610.9" class="st1" width="3.5" height="2.1"/>
		<rect x="85.3" y="603.8" class="st1" width="3.5" height="9.2"/>
		<rect x="97.3" y="610.9" class="st1" width="3.5" height="2.1"/>
		<rect x="56.1" y="516.9" transform="matrix(0.5 -0.866 0.866 0.5 -443.8593 323.0286)" class="st1" width="3.5" height="58.1"/>
		<rect x="50.1" y="520.2" transform="matrix(0.5 -0.866 0.866 0.5 -455.8007 322.9595)" class="st1" width="3.5" height="72"/>
		<rect x="44.1" y="523.7" transform="matrix(0.5 -0.866 0.866 0.5 -467.7403 323.0108)" class="st1" width="3.5" height="85.7"/>
		<polygon class="st1" points="83.8,600.3 0,551.9 0,555.9 82.1,603.3 		"/>
		<polygon class="st1" points="72.1,607.3 0,565.7 0,569.7 70.4,610.3 		"/>
		<polygon class="st1" points="0,583.5 51,612.9 58,612.9 0,579.5 		"/>
		<polygon class="st1" points="0,597.3 27.1,612.9 34.1,612.9 0,593.2 		"/>
		<polygon class="st1" points="3,604.6 0,606.3 0,610.3 4.8,607.6 		"/>
		<polygon class="st1" points="12.4,612.9 15.9,612.9 15.1,611.4 		"/>
		<polygon class="st1" points="221.3,483.3 262.2,459.7 255.2,459.7 219.5,480.3 		"/>
		<polygon class="st1" points="221.3,497.1 266.7,470.9 266.7,466.9 219.5,494.1 		"/>
		<polygon class="st1" points="221.3,510.9 266.7,484.7 266.7,480.7 219.5,507.9 		"/>
		<polygon class="st1" points="221.3,524.7 266.7,498.5 266.7,494.5 219.5,521.7 		"/>
		<polygon class="st1" points="233,531.7 266.7,512.3 266.7,508.2 231.3,528.7 		"/>
		<polygon class="st1" points="244.8,538.6 266.7,526 266.7,522 243.1,535.6 		"/>
		<polygon class="st1" points="256.9,545.5 266.7,539.8 266.7,535.8 255.2,542.5 		"/>
		<rect x="194.8" y="459.7" class="st1" width="3.5" height="0.2"/>
		<rect x="206.7" y="459.7" class="st1" width="3.5" height="6.9"/>
		<rect x="218.6" y="459.7" class="st1" width="3.5" height="13.7"/>
		<rect x="230.6" y="459.7" class="st1" width="3.5" height="6.9"/>
		<rect x="242.5" y="459.7" class="st1" width="3.5" height="0.2"/>
		<polygon class="st1" points="217.2,482.3 178,459.7 171.1,459.7 215.4,485.3 		"/>
		<rect x="183.4" y="443.6" transform="matrix(0.5 -0.866 0.866 0.5 -322.782 400.1221)" class="st1" width="3.5" height="72"/>
		<rect x="177.5" y="447.1" transform="matrix(0.5 -0.866 0.866 0.5 -334.7219 400.1727)" class="st1" width="3.5" height="85.7"/>
		<rect x="171.5" y="450.6" transform="matrix(0.5 -0.866 0.866 0.5 -346.6624 400.1958)" class="st1" width="3.5" height="99.4"/>
		<rect x="165.6" y="467.7" transform="matrix(0.5 -0.866 0.866 0.5 -358.6028 400.2805)" class="st1" width="3.5" height="85.9"/>
		<rect x="159.6" y="485" transform="matrix(0.5 -0.866 0.866 0.5 -370.5433 400.2467)" class="st1" width="3.5" height="72.1"/>
		<rect x="153.6" y="502.2" transform="matrix(0.5 -0.866 0.866 0.5 -382.4833 400.1924)" class="st1" width="3.5" height="58.2"/>
		<rect x="83.2" y="542.2" transform="matrix(0.866 -0.5 0.5 0.866 -256.9517 128.9462)" class="st1" width="57.9" height="3.5"/>
		<rect x="82.2" y="552.5" transform="matrix(0.866 -0.5 0.5 0.866 -261.3092 133.3419)" class="st1" width="71.8" height="3.5"/>
		<rect x="81.3" y="562.9" transform="matrix(0.866 -0.5 0.5 0.866 -265.6667 137.7247)" class="st1" width="85.7" height="3.5"/>
		<rect x="80.4" y="573.2" transform="matrix(0.866 -0.5 0.5 0.866 -270.0398 142.0821)" class="st1" width="99.4" height="3.5"/>
		<rect x="93" y="583.6" transform="matrix(0.866 -0.5 0.5 0.866 -274.4404 146.4211)" class="st1" width="85.9" height="3.5"/>
		<polygon class="st1" points="172.4,576.1 109.8,612.3 110.2,612.9 115.5,612.9 174.1,579.1 		"/>
		<polygon class="st1" points="172.4,589.9 132.5,612.9 139.4,612.9 174.1,592.9 		"/>
		<rect x="49.5" y="471.3" class="st1" width="3.5" height="58.2"/>
		<rect x="61.4" y="464.4" class="st1" width="3.5" height="72.1"/>
		<rect x="73.4" y="459.7" class="st1" width="3.5" height="83.5"/>
		<rect x="85.3" y="459.7" class="st1" width="3.5" height="90.4"/>
		<rect x="97.3" y="459.7" class="st1" width="3.5" height="83.5"/>
		<rect x="109.2" y="464.4" class="st1" width="3.5" height="72.1"/>
		<rect x="121.1" y="471.3" class="st1" width="3.5" height="58.2"/>
		<polygon class="st1" points="60.1,460.9 58,459.7 51,459.7 58.4,463.9 		"/>
		<polygon class="st1" points="48.1,467.8 34.1,459.7 27.1,459.7 46.3,470.8 		"/>
		<polygon class="st1" points="15.9,459.7 12.4,459.7 0,466.9 0,470.9 16.8,461.2 		"/>
		<polygon class="st1" points="27.1,465 0,480.7 0,484.7 28.8,468.1 		"/>
		<polygon class="st1" points="39,472 0,494.5 0,498.5 40.7,475 		"/>
		<polygon class="st1" points="39,485.7 0,508.2 0,512.3 40.8,488.7 		"/>
		<polygon class="st1" points="39,499.5 0,522 0,526 40.8,502.5 		"/>
		<polygon class="st1" points="39,513.3 0,535.8 0,539.8 40.8,516.3 		"/>
		<polygon class="st1" points="115.5,459.7 110.2,459.7 111.5,462 		"/>
		<polygon class="st1" points="123.6,468.9 139.4,459.7 132.5,459.7 121.8,465.8 		"/>
	</g>
	<g class="st0">
		<polygon class="st1" points="531.1,550.6 529.3,553.6 533.3,555.9 533.3,551.9 		"/>
		<polygon class="st1" points="529.3,567.3 533.3,569.7 533.3,565.7 531,564.3 		"/>
		<polygon class="st1" points="529.3,581.1 533.3,583.5 533.3,579.5 531,578.1 		"/>
		<polygon class="st1" points="529.3,594.9 533.3,597.3 533.3,593.2 531,591.9 		"/>
		<polygon class="st1" points="528.8,612.9 533.3,610.3 533.3,606.3 521.9,612.9 		"/>
		<rect x="449.5" y="547.9" class="st1" width="3.5" height="58.2"/>
		<rect x="461.4" y="541" class="st1" width="3.5" height="72"/>
		<rect x="473.4" y="534.3" class="st1" width="3.5" height="78.7"/>
		<rect x="485.3" y="527.2" class="st1" width="3.5" height="85.8"/>
		<rect x="497.3" y="534.3" class="st1" width="3.5" height="78.7"/>
		<rect x="509.2" y="541" class="st1" width="3.5" height="72"/>
		<rect x="521.1" y="547.9" class="st1" width="3.5" height="58.2"/>
		<polygon class="st1" points="431.8,609.5 437.7,612.9 444.7,612.9 433.5,606.5 		"/>
		<rect x="340" y="610.9" class="st1" width="3.5" height="2.1"/>
		<rect x="352" y="603.8" class="st1" width="3.5" height="9.2"/>
		<rect x="363.9" y="610.9" class="st1" width="3.5" height="2.1"/>
		<rect x="322.7" y="516.9" transform="matrix(0.5 -0.866 0.866 0.5 -310.527 553.9686)" class="st1" width="3.5" height="58.1"/>
		<rect x="316.7" y="520.2" transform="matrix(0.5 -0.866 0.866 0.5 -322.4674 553.9)" class="st1" width="3.5" height="72"/>
		<rect x="310.8" y="523.7" transform="matrix(0.5 -0.866 0.866 0.5 -334.4076 553.9505)" class="st1" width="3.5" height="85.7"/>
		<polygon class="st1" points="350.5,600.3 266.7,551.9 266.7,555.9 348.8,603.3 		"/>
		<polygon class="st1" points="338.8,607.3 266.7,565.7 266.7,569.7 337,610.3 		"/>
		<polygon class="st1" points="266.7,583.5 317.7,612.9 324.7,612.9 266.7,579.5 		"/>
		<polygon class="st1" points="266.7,597.3 293.8,612.9 300.8,612.9 266.7,593.2 		"/>
		<polygon class="st1" points="269.7,604.6 266.7,606.3 266.7,610.3 271.4,607.6 		"/>
		<polygon class="st1" points="279.1,612.9 282.6,612.9 281.7,611.4 		"/>
		<polygon class="st1" points="487.9,483.3 528.8,459.7 521.9,459.7 486.2,480.3 		"/>
		<polygon class="st1" points="487.9,497.1 533.3,470.9 533.3,466.9 486.2,494.1 		"/>
		<polygon class="st1" points="487.9,510.9 533.3,484.7 533.3,480.7 486.2,507.9 		"/>
		<polygon class="st1" points="487.9,524.7 533.3,498.5 533.3,494.5 486.2,521.7 		"/>
		<polygon class="st1" points="499.7,531.7 533.3,512.3 533.3,508.2 497.9,528.7 		"/>
		<polygon class="st1" points="511.5,538.6 533.3,526 533.3,522 509.8,535.6 		"/>
		<polygon class="st1" points="523.6,545.5 533.3,539.8 533.3,535.8 521.8,542.5 		"/>
		<rect x="461.4" y="459.7" class="st1" width="3.5" height="0.2"/>
		<rect x="473.4" y="459.7" class="st1" width="3.5" height="6.9"/>
		<rect x="485.3" y="459.7" class="st1" width="3.5" height="13.7"/>
		<rect x="497.3" y="459.7" class="st1" width="3.5" height="6.9"/>
		<rect x="509.2" y="459.7" class="st1" width="3.5" height="0.2"/>
		<polygon class="st1" points="483.8,482.3 444.7,459.7 437.7,459.7 482.1,485.3 		"/>
		<rect x="450.1" y="443.6" transform="matrix(0.5 -0.866 0.866 0.5 -189.4484 631.062)" class="st1" width="3.5" height="72"/>
		<rect x="444.1" y="447.1" transform="matrix(0.5 -0.866 0.866 0.5 -201.3892 631.1121)" class="st1" width="3.5" height="85.7"/>
		<rect x="438.2" y="450.6" transform="matrix(0.5 -0.866 0.866 0.5 -213.3293 631.1355)" class="st1" width="3.5" height="99.4"/>
		<rect x="432.3" y="467.7" transform="matrix(0.5 -0.866 0.866 0.5 -225.2693 631.2211)" class="st1" width="3.5" height="85.9"/>
		<rect x="426.3" y="485" transform="matrix(0.5 -0.866 0.866 0.5 -237.2095 631.1876)" class="st1" width="3.5" height="72.1"/>
		<rect x="420.3" y="502.2" transform="matrix(0.5 -0.866 0.866 0.5 -249.1503 631.1323)" class="st1" width="3.5" height="58.2"/>
		<rect x="349.8" y="542.2" transform="matrix(0.866 -0.5 0.5 0.866 -221.2253 262.2791)" class="st1" width="57.9" height="3.5"/>
		<rect x="348.9" y="552.5" transform="matrix(0.866 -0.5 0.5 0.866 -225.5805 266.6778)" class="st1" width="71.8" height="3.5"/>
		<rect x="348" y="562.9" transform="matrix(0.866 -0.5 0.5 0.866 -229.9458 271.0764)" class="st1" width="85.7" height="3.5"/>
		<rect x="347.1" y="573.2" transform="matrix(0.866 -0.5 0.5 0.866 -234.3133 275.4153)" class="st1" width="99.4" height="3.5"/>
		<rect x="359.7" y="583.6" transform="matrix(0.866 -0.5 0.5 0.866 -238.7141 279.754)" class="st1" width="85.9" height="3.5"/>
		<polygon class="st1" points="439,576.1 376.4,612.3 376.8,612.9 382.2,612.9 440.8,579.1 		"/>
		<polygon class="st1" points="439,589.9 399.1,612.9 406.1,612.9 440.8,592.9 		"/>
		<rect x="316.2" y="471.3" class="st1" width="3.5" height="58.2"/>
		<rect x="328.1" y="464.4" class="st1" width="3.5" height="72.1"/>
		<rect x="340" y="459.7" class="st1" width="3.5" height="83.5"/>
		<rect x="352" y="459.7" class="st1" width="3.5" height="90.4"/>
		<rect x="363.9" y="459.7" class="st1" width="3.5" height="83.5"/>
		<rect x="375.9" y="464.4" class="st1" width="3.5" height="72.1"/>
		<rect x="387.8" y="471.3" class="st1" width="3.5" height="58.2"/>
		<polygon class="st1" points="326.8,460.9 324.7,459.7 317.7,459.7 325,463.9 		"/>
		<polygon class="st1" points="314.7,467.8 300.8,459.7 293.8,459.7 313,470.8 		"/>
		<polygon class="st1" points="282.6,459.7 279.1,459.7 266.7,466.9 266.7,470.9 283.5,461.2 		"/>
		<polygon class="st1" points="293.7,465 266.7,480.7 266.7,484.7 295.5,468.1 		"/>
		<polygon class="st1" points="305.6,472 266.7,494.5 266.7,498.5 307.4,475 		"/>
		<polygon class="st1" points="305.7,485.7 266.7,508.2 266.7,512.3 307.4,488.7 		"/>
		<polygon class="st1" points="305.7,499.5 266.7,522 266.7,526 307.4,502.5 		"/>
		<polygon class="st1" points="305.7,513.3 266.7,535.8 266.7,539.8 307.4,516.3 		"/>
		<polygon class="st1" points="382.2,459.7 376.8,459.7 378.2,462 		"/>
		<polygon class="st1" points="390.2,468.9 406.1,459.7 399.1,459.7 388.5,465.8 		"/>
	</g>
	<g class="st0">
		<polygon class="st1" points="797.7,550.6 796,553.6 800,555.9 800,551.9 		"/>
		<polygon class="st1" points="795.9,567.3 800,569.7 800,565.7 797.7,564.3 		"/>
		<polygon class="st1" points="795.9,581.1 800,583.5 800,579.5 797.7,578.1 		"/>
		<polygon class="st1" points="795.9,594.9 800,597.3 800,593.2 797.7,591.9 		"/>
		<polygon class="st1" points="795.5,612.9 800,610.3 800,606.3 788.6,612.9 		"/>
		<rect x="716.2" y="547.9" class="st1" width="3.5" height="58.2"/>
		<rect x="728.1" y="541" class="st1" width="3.5" height="72"/>
		<rect x="740" y="534.3" class="st1" width="3.5" height="78.7"/>
		<rect x="752" y="527.2" class="st1" width="3.5" height="85.8"/>
		<rect x="763.9" y="534.3" class="st1" width="3.5" height="78.7"/>
		<rect x="775.9" y="541" class="st1" width="3.5" height="72"/>
		<rect x="787.8" y="547.9" class="st1" width="3.5" height="58.2"/>
		<polygon class="st1" points="698.5,609.5 704.4,612.9 711.4,612.9 700.2,606.5 		"/>
		<rect x="606.7" y="610.9" class="st1" width="3.5" height="2.1"/>
		<rect x="618.6" y="603.8" class="st1" width="3.5" height="9.2"/>
		<rect x="630.6" y="610.9" class="st1" width="3.5" height="2.1"/>
		<rect x="589.4" y="516.9" transform="matrix(0.5 -0.866 0.866 0.5 -177.1945 784.9083)" class="st1" width="3.5" height="58.1"/>
		<rect x="583.4" y="520.2" transform="matrix(0.5 -0.866 0.866 0.5 -189.134 784.8403)" class="st1" width="3.5" height="72"/>
		<rect x="577.5" y="523.7" transform="matrix(0.5 -0.866 0.866 0.5 -201.0748 784.8907)" class="st1" width="3.5" height="85.7"/>
		<polygon class="st1" points="617.2,600.3 533.3,551.9 533.3,555.9 615.4,603.3 		"/>
		<polygon class="st1" points="605.4,607.3 533.3,565.7 533.3,569.7 603.7,610.3 		"/>
		<polygon class="st1" points="533.3,583.5 584.4,612.9 591.3,612.9 533.3,579.5 		"/>
		<polygon class="st1" points="533.3,597.3 560.5,612.9 567.4,612.9 533.3,593.2 		"/>
		<polygon class="st1" points="536.4,604.6 533.3,606.3 533.3,610.3 538.1,607.6 		"/>
		<polygon class="st1" points="545.8,612.9 549.3,612.9 548.4,611.4 		"/>
		<polygon class="st1" points="754.6,483.3 795.5,459.7 788.6,459.7 752.8,480.3 		"/>
		<polygon class="st1" points="754.6,497.1 800,470.9 800,466.9 752.8,494.1 		"/>
		<polygon class="st1" points="754.6,510.9 800,484.7 800,480.7 752.8,507.9 		"/>
		<polygon class="st1" points="754.6,524.7 800,498.5 800,494.5 752.8,521.7 		"/>
		<polygon class="st1" points="766.3,531.7 800,512.3 800,508.2 764.6,528.7 		"/>
		<polygon class="st1" points="778.2,538.6 800,526 800,522 776.4,535.6 		"/>
		<polygon class="st1" points="790.2,545.5 800,539.8 800,535.8 788.5,542.5 		"/>
		<rect x="728.1" y="459.7" class="st1" width="3.5" height="0.2"/>
		<rect x="740" y="459.7" class="st1" width="3.5" height="6.9"/>
		<rect x="752" y="459.7" class="st1" width="3.5" height="13.7"/>
		<rect x="763.9" y="459.7" class="st1" width="3.5" height="6.9"/>
		<rect x="775.9" y="459.7" class="st1" width="3.5" height="0.2"/>
		<polygon class="st1" points="750.5,482.3 711.4,459.7 704.4,459.7 748.8,485.3 		"/>
		<rect x="716.7" y="443.6" transform="matrix(0.5 -0.866 0.866 0.5 -56.1146 862.0027)" class="st1" width="3.5" height="72"/>
		<rect x="710.8" y="447.1" transform="matrix(0.5 -0.866 0.866 0.5 -68.0565 862.0518)" class="st1" width="3.5" height="85.7"/>
		<rect x="704.8" y="450.6" transform="matrix(0.5 -0.866 0.866 0.5 -79.9961 862.0758)" class="st1" width="3.5" height="99.4"/>
		<rect x="698.9" y="467.7" transform="matrix(0.5 -0.866 0.866 0.5 -91.9357 862.1614)" class="st1" width="3.5" height="85.9"/>
		<rect x="692.9" y="485" transform="matrix(0.5 -0.866 0.866 0.5 -103.8758 862.1274)" class="st1" width="3.5" height="72.1"/>
		<rect x="686.9" y="502.2" transform="matrix(0.5 -0.866 0.866 0.5 -115.8173 862.0721)" class="st1" width="3.5" height="58.2"/>
		<rect x="616.5" y="542.2" transform="matrix(0.866 -0.5 0.5 0.866 -185.499 395.6121)" class="st1" width="57.9" height="3.5"/>
		<rect x="615.6" y="552.5" transform="matrix(0.866 -0.5 0.5 0.866 -189.8523 400.014)" class="st1" width="71.8" height="3.5"/>
		<rect x="614.6" y="562.9" transform="matrix(0.866 -0.5 0.5 0.866 -194.2102 404.3972)" class="st1" width="85.7" height="3.5"/>
		<rect x="613.7" y="573.2" transform="matrix(0.866 -0.5 0.5 0.866 -198.5868 408.7489)" class="st1" width="99.4" height="3.5"/>
		<rect x="626.4" y="583.6" transform="matrix(0.866 -0.5 0.5 0.866 -202.9878 413.087)" class="st1" width="85.9" height="3.5"/>
		<polygon class="st1" points="705.7,576.1 643.1,612.3 643.5,612.9 648.9,612.9 707.4,579.1 		"/>
		<polygon class="st1" points="705.7,589.9 665.8,612.9 672.8,612.9 707.4,592.9 		"/>
		<rect x="582.8" y="471.3" class="st1" width="3.5" height="58.2"/>
		<rect x="594.8" y="464.4" class="st1" width="3.5" height="72.1"/>
		<rect x="606.7" y="459.7" class="st1" width="3.5" height="83.5"/>
		<rect x="618.6" y="459.7" class="st1" width="3.5" height="90.4"/>
		<rect x="630.6" y="459.7" class="st1" width="3.5" height="83.5"/>
		<rect x="642.5" y="464.4" class="st1" width="3.5" height="72.1"/>
		<rect x="654.5" y="471.3" class="st1" width="3.5" height="58.2"/>
		<polygon class="st1" points="593.4,460.9 591.3,459.7 584.4,459.7 591.7,463.9 		"/>
		<polygon class="st1" points="581.4,467.8 567.4,459.7 560.5,459.7 579.7,470.8 		"/>
		<polygon class="st1" points="549.3,459.7 545.8,459.7 533.3,466.9 533.3,470.9 550.1,461.2 		"/>
		<polygon class="st1" points="560.4,465 533.3,480.7 533.3,484.7 562.1,468.1 		"/>
		<polygon class="st1" points="572.3,472 533.3,494.5 533.3,498.5 574,475 		"/>
		<polygon class="st1" points="572.4,485.7 533.3,508.2 533.3,512.3 574.1,488.7 		"/>
		<polygon class="st1" points="572.4,499.5 533.3,522 533.3,526 574.1,502.5 		"/>
		<polygon class="st1" points="572.4,513.3 533.3,535.8 533.3,539.8 574.1,516.3 		"/>
		<polygon class="st1" points="648.9,459.7 643.5,459.7 644.8,462 		"/>
		<polygon class="st1" points="656.9,468.9 672.8,459.7 665.8,459.7 655.2,465.8 		"/>
	</g>
	<g class="st0">
		<polygon class="st1" points="264.4,703.8 262.7,706.8 266.7,709.1 266.7,705.1 		"/>
		<polygon class="st1" points="262.6,720.6 266.7,722.9 266.7,718.9 264.3,717.6 		"/>
		<polygon class="st1" points="262.6,734.4 266.7,736.7 266.7,732.7 264.3,731.3 		"/>
		<polygon class="st1" points="262.6,748.1 266.7,750.5 266.7,746.5 264.3,745.1 		"/>
		<polygon class="st1" points="262.2,766.2 266.7,763.6 266.7,759.6 255.2,766.2 		"/>
		<rect x="182.8" y="701.2" class="st1" width="3.5" height="58.2"/>
		<rect x="194.8" y="694.2" class="st1" width="3.5" height="72"/>
		<rect x="206.7" y="687.5" class="st1" width="3.5" height="78.7"/>
		<rect x="218.6" y="680.4" class="st1" width="3.5" height="85.8"/>
		<rect x="230.6" y="687.5" class="st1" width="3.5" height="78.7"/>
		<rect x="242.5" y="694.2" class="st1" width="3.5" height="72"/>
		<rect x="254.5" y="701.2" class="st1" width="3.5" height="58.2"/>
		<polygon class="st1" points="165.1,762.7 171.1,766.2 178,766.2 166.9,759.7 		"/>
		<rect x="73.4" y="764.1" class="st1" width="3.5" height="2.1"/>
		<rect x="85.3" y="757" class="st1" width="3.5" height="9.2"/>
		<rect x="97.3" y="764.1" class="st1" width="3.5" height="2.1"/>
		<rect x="56.1" y="670.1" transform="matrix(0.5 -0.866 0.866 0.5 -576.5634 399.6449)" class="st1" width="3.5" height="58.1"/>
		<rect x="50.1" y="673.4" transform="matrix(0.5 -0.866 0.866 0.5 -588.5051 399.5764)" class="st1" width="3.5" height="72"/>
		<rect x="44.1" y="677" transform="matrix(0.5 -0.866 0.866 0.5 -600.4448 399.628)" class="st1" width="3.5" height="85.7"/>
		<polygon class="st1" points="83.8,753.5 0,705.1 0,709.1 82.1,756.5 		"/>
		<polygon class="st1" points="72.1,760.5 0,718.9 0,722.9 70.4,763.5 		"/>
		<polygon class="st1" points="0,736.7 51,766.2 58,766.2 0,732.7 		"/>
		<polygon class="st1" points="0,750.5 27.1,766.2 34.1,766.2 0,746.5 		"/>
		<polygon class="st1" points="3,757.8 0,759.6 0,763.6 4.8,760.8 		"/>
		<polygon class="st1" points="12.4,766.2 15.9,766.2 15.1,764.7 		"/>
		<polygon class="st1" points="221.3,636.6 262.2,612.9 255.2,612.9 219.5,633.5 		"/>
		<polygon class="st1" points="221.3,650.4 266.7,624.1 266.7,620.1 219.5,647.3 		"/>
		<polygon class="st1" points="221.3,664.1 266.7,637.9 266.7,633.9 219.5,661.1 		"/>
		<polygon class="st1" points="221.3,677.9 266.7,651.7 266.7,647.7 219.5,674.9 		"/>
		<polygon class="st1" points="233,684.9 266.7,665.5 266.7,661.5 231.3,681.9 		"/>
		<polygon class="st1" points="244.8,691.9 266.7,679.3 266.7,675.3 243.1,688.9 		"/>
		<polygon class="st1" points="256.9,698.7 266.7,693.1 266.7,689.1 255.2,695.7 		"/>
		<rect x="194.8" y="612.9" class="st1" width="3.5" height="0.2"/>
		<rect x="206.7" y="612.9" class="st1" width="3.5" height="6.9"/>
		<rect x="218.6" y="612.9" class="st1" width="3.5" height="13.7"/>
		<rect x="230.6" y="612.9" class="st1" width="3.5" height="6.9"/>
		<rect x="242.5" y="612.9" class="st1" width="3.5" height="0.2"/>
		<polygon class="st1" points="217.2,635.5 178,612.9 171.1,612.9 215.4,638.6 		"/>
		<rect x="183.4" y="596.8" transform="matrix(0.5 -0.866 0.866 0.5 -455.4863 476.7385)" class="st1" width="3.5" height="72"/>
		<rect x="177.5" y="600.3" transform="matrix(0.5 -0.866 0.866 0.5 -467.4261 476.7893)" class="st1" width="3.5" height="85.7"/>
		<rect x="171.5" y="603.8" transform="matrix(0.5 -0.866 0.866 0.5 -479.3668 476.8127)" class="st1" width="3.5" height="99.4"/>
		<rect x="165.6" y="621" transform="matrix(0.5 -0.866 0.866 0.5 -491.3075 476.8982)" class="st1" width="3.5" height="85.9"/>
		<rect x="159.6" y="638.2" transform="matrix(0.5 -0.866 0.866 0.5 -503.2479 476.8639)" class="st1" width="3.5" height="72.1"/>
		<rect x="153.6" y="655.5" transform="matrix(0.5 -0.866 0.866 0.5 -515.1879 476.8101)" class="st1" width="3.5" height="58.2"/>
		<rect x="83.2" y="695.4" transform="matrix(0.866 -0.5 0.5 0.866 -333.5762 149.4819)" class="st1" width="57.9" height="3.5"/>
		<rect x="82.2" y="705.8" transform="matrix(0.866 -0.5 0.5 0.866 -337.92 153.8658)" class="st1" width="71.8" height="3.5"/>
		<rect x="81.3" y="716.1" transform="matrix(0.866 -0.5 0.5 0.866 -342.2853 158.2552)" class="st1" width="85.7" height="3.5"/>
		<rect x="80.4" y="726.4" transform="matrix(0.866 -0.5 0.5 0.866 -346.6572 162.6119)" class="st1" width="99.4" height="3.5"/>
		<rect x="93" y="736.8" transform="matrix(0.866 -0.5 0.5 0.866 -351.0653 166.9574)" class="st1" width="85.9" height="3.5"/>
		<polygon class="st1" points="172.4,729.4 109.8,765.5 110.2,766.2 115.5,766.2 174.1,732.4 		"/>
		<polygon class="st1" points="172.4,743.1 132.5,766.2 139.4,766.2 174.1,746.2 		"/>
		<rect x="49.5" y="624.6" class="st1" width="3.5" height="58.2"/>
		<rect x="61.4" y="617.6" class="st1" width="3.5" height="72.1"/>
		<rect x="73.4" y="612.9" class="st1" width="3.5" height="83.5"/>
		<rect x="85.3" y="612.9" class="st1" width="3.5" height="90.4"/>
		<rect x="97.3" y="612.9" class="st1" width="3.5" height="83.5"/>
		<rect x="109.2" y="617.6" class="st1" width="3.5" height="72.1"/>
		<rect x="121.1" y="624.6" class="st1" width="3.5" height="58.2"/>
		<polygon class="st1" points="60.1,614.2 58,612.9 51,612.9 58.4,617.2 		"/>
		<polygon class="st1" points="48.1,621 34.1,612.9 27.1,612.9 46.3,624 		"/>
		<polygon class="st1" points="15.9,612.9 12.4,612.9 0,620.1 0,624.1 16.8,614.4 		"/>
		<polygon class="st1" points="27.1,618.3 0,633.9 0,637.9 28.8,621.3 		"/>
		<polygon class="st1" points="39,625.2 0,647.7 0,651.7 40.7,628.2 		"/>
		<polygon class="st1" points="39,638.9 0,661.5 0,665.5 40.8,642 		"/>
		<polygon class="st1" points="39,652.7 0,675.3 0,679.3 40.8,655.8 		"/>
		<polygon class="st1" points="39,666.5 0,689.1 0,693.1 40.8,669.5 		"/>
		<polygon class="st1" points="115.5,612.9 110.2,612.9 111.5,615.3 		"/>
		<polygon class="st1" points="123.6,622.1 139.4,612.9 132.5,612.9 121.8,619.1 		"/>
	</g>
	<g class="st0">
		<polygon class="st1" points="531.1,703.8 529.3,706.8 533.3,709.1 533.3,705.1 		"/>
		<polygon class="st1" points="529.3,720.6 533.3,722.9 533.3,718.9 531,717.6 		"/>
		<polygon class="st1" points="529.3,734.4 533.3,736.7 533.3,732.7 531,731.3 		"/>
		<polygon class="st1" points="529.3,748.1 533.3,750.5 533.3,746.5 531,745.1 		"/>
		<polygon class="st1" points="528.8,766.2 533.3,763.6 533.3,759.6 521.9,766.2 		"/>
		<rect x="449.5" y="701.2" class="st1" width="3.5" height="58.2"/>
		<rect x="461.4" y="694.2" class="st1" width="3.5" height="72"/>
		<rect x="473.4" y="687.5" class="st1" width="3.5" height="78.7"/>
		<rect x="485.3" y="680.4" class="st1" width="3.5" height="85.8"/>
		<rect x="497.3" y="687.5" class="st1" width="3.5" height="78.7"/>
		<rect x="509.2" y="694.2" class="st1" width="3.5" height="72"/>
		<rect x="521.1" y="701.2" class="st1" width="3.5" height="58.2"/>
		<polygon class="st1" points="431.8,762.7 437.7,766.2 444.7,766.2 433.5,759.7 		"/>
		<rect x="340" y="764.1" class="st1" width="3.5" height="2.1"/>
		<rect x="352" y="757" class="st1" width="3.5" height="9.2"/>
		<rect x="363.9" y="764.1" class="st1" width="3.5" height="2.1"/>
		<rect x="322.7" y="670.1" transform="matrix(0.5 -0.866 0.866 0.5 -443.2311 630.5851)" class="st1" width="3.5" height="58.1"/>
		<rect x="316.7" y="673.4" transform="matrix(0.5 -0.866 0.866 0.5 -455.1718 630.517)" class="st1" width="3.5" height="72"/>
		<rect x="310.8" y="677" transform="matrix(0.5 -0.866 0.866 0.5 -467.1118 630.5678)" class="st1" width="3.5" height="85.7"/>
		<polygon class="st1" points="350.5,753.5 266.7,705.1 266.7,709.1 348.8,756.5 		"/>
		<polygon class="st1" points="338.8,760.5 266.7,718.9 266.7,722.9 337,763.5 		"/>
		<polygon class="st1" points="266.7,736.7 317.7,766.2 324.7,766.2 266.7,732.7 		"/>
		<polygon class="st1" points="266.7,750.5 293.8,766.2 300.8,766.2 266.7,746.5 		"/>
		<polygon class="st1" points="269.7,757.8 266.7,759.6 266.7,763.6 271.4,760.8 		"/>
		<polygon class="st1" points="279.1,766.2 282.6,766.2 281.7,764.7 		"/>
		<polygon class="st1" points="487.9,636.6 528.8,612.9 521.9,612.9 486.2,633.5 		"/>
		<polygon class="st1" points="487.9,650.4 533.3,624.1 533.3,620.1 486.2,647.3 		"/>
		<polygon class="st1" points="487.9,664.1 533.3,637.9 533.3,633.9 486.2,661.1 		"/>
		<polygon class="st1" points="487.9,677.9 533.3,651.7 533.3,647.7 486.2,674.9 		"/>
		<polygon class="st1" points="499.7,684.9 533.3,665.5 533.3,661.5 497.9,681.9 		"/>
		<polygon class="st1" points="511.5,691.9 533.3,679.3 533.3,675.3 509.8,688.9 		"/>
		<polygon class="st1" points="523.6,698.7 533.3,693.1 533.3,689.1 521.8,695.7 		"/>
		<rect x="461.4" y="612.9" class="st1" width="3.5" height="0.2"/>
		<rect x="473.4" y="612.9" class="st1" width="3.5" height="6.9"/>
		<rect x="485.3" y="612.9" class="st1" width="3.5" height="13.7"/>
		<rect x="497.3" y="612.9" class="st1" width="3.5" height="6.9"/>
		<rect x="509.2" y="612.9" class="st1" width="3.5" height="0.2"/>
		<polygon class="st1" points="483.8,635.5 444.7,612.9 437.7,612.9 482.1,638.6 		"/>
		<rect x="450.1" y="596.8" transform="matrix(0.5 -0.866 0.866 0.5 -322.153 707.6781)" class="st1" width="3.5" height="72"/>
		<rect x="444.1" y="600.4" transform="matrix(0.5 -0.866 0.866 0.5 -334.0934 707.7286)" class="st1" width="3.5" height="85.7"/>
		<rect x="438.2" y="603.8" transform="matrix(0.5 -0.866 0.866 0.5 -346.0336 707.7523)" class="st1" width="3.5" height="99.4"/>
		<rect x="432.3" y="621" transform="matrix(0.5 -0.866 0.866 0.5 -357.9738 707.839)" class="st1" width="3.5" height="85.9"/>
		<rect x="426.3" y="638.2" transform="matrix(0.5 -0.866 0.866 0.5 -369.9141 707.8048)" class="st1" width="3.5" height="72.1"/>
		<rect x="420.3" y="655.5" transform="matrix(0.5 -0.866 0.866 0.5 -381.8546 707.7502)" class="st1" width="3.5" height="58.2"/>
		<rect x="349.8" y="695.4" transform="matrix(0.866 -0.5 0.5 0.866 -297.848 282.8182)" class="st1" width="57.9" height="3.5"/>
		<rect x="348.9" y="705.8" transform="matrix(0.866 -0.5 0.5 0.866 -302.1931 287.1983)" class="st1" width="71.8" height="3.5"/>
		<rect x="348" y="716.1" transform="matrix(0.866 -0.5 0.5 0.866 -306.5677 291.6087)" class="st1" width="85.7" height="3.5"/>
		<rect x="347.1" y="726.4" transform="matrix(0.866 -0.5 0.5 0.866 -310.9305 295.9453)" class="st1" width="99.4" height="3.5"/>
		<rect x="359.7" y="736.8" transform="matrix(0.866 -0.5 0.5 0.866 -315.3371 300.2936)" class="st1" width="85.9" height="3.5"/>
		<polygon class="st1" points="439,729.4 376.4,765.5 376.8,766.2 382.2,766.2 440.8,732.4 		"/>
		<polygon class="st1" points="439,743.1 399.1,766.2 406.1,766.2 440.8,746.2 		"/>
		<rect x="316.2" y="624.6" class="st1" width="3.5" height="58.2"/>
		<rect x="328.1" y="617.6" class="st1" width="3.5" height="72.1"/>
		<rect x="340" y="612.9" class="st1" width="3.5" height="83.5"/>
		<rect x="352" y="612.9" class="st1" width="3.5" height="90.4"/>
		<rect x="363.9" y="612.9" class="st1" width="3.5" height="83.5"/>
		<rect x="375.9" y="617.6" class="st1" width="3.5" height="72.1"/>
		<rect x="387.8" y="624.6" class="st1" width="3.5" height="58.2"/>
		<polygon class="st1" points="326.8,614.2 324.7,612.9 317.7,612.9 325,617.2 		"/>
		<polygon class="st1" points="314.7,621 300.8,612.9 293.8,612.9 313,624 		"/>
		<polygon class="st1" points="282.6,612.9 279.1,612.9 266.7,620.1 266.7,624.1 283.5,614.4 		"/>
		<polygon class="st1" points="293.7,618.3 266.7,633.9 266.7,637.9 295.5,621.3 		"/>
		<polygon class="st1" points="305.6,625.2 266.7,647.7 266.7,651.7 307.4,628.2 		"/>
		<polygon class="st1" points="305.7,638.9 266.7,661.5 266.7,665.5 307.4,642 		"/>
		<polygon class="st1" points="305.7,652.7 266.7,675.3 266.7,679.3 307.4,655.8 		"/>
		<polygon class="st1" points="305.7,666.5 266.7,689.1 266.7,693.1 307.4,669.5 		"/>
		<polygon class="st1" points="382.2,612.9 376.8,612.9 378.2,615.3 		"/>
		<polygon class="st1" points="390.2,622.1 406.1,612.9 399.1,612.9 388.5,619.1 		"/>
	</g>
	<g class="st0">
		<polygon class="st1" points="797.7,703.8 796,706.8 800,709.1 800,705.1 		"/>
		<polygon class="st1" points="795.9,720.6 800,722.9 800,718.9 797.7,717.6 		"/>
		<polygon class="st1" points="795.9,734.4 800,736.7 800,732.7 797.7,731.3 		"/>
		<polygon class="st1" points="795.9,748.1 800,750.5 800,746.5 797.7,745.1 		"/>
		<polygon class="st1" points="795.5,766.2 800,763.6 800,759.6 788.6,766.2 		"/>
		<rect x="716.2" y="701.2" class="st1" width="3.5" height="58.2"/>
		<rect x="728.1" y="694.2" class="st1" width="3.5" height="72"/>
		<rect x="740" y="687.5" class="st1" width="3.5" height="78.7"/>
		<rect x="752" y="680.4" class="st1" width="3.5" height="85.8"/>
		<rect x="763.9" y="687.5" class="st1" width="3.5" height="78.7"/>
		<rect x="775.9" y="694.2" class="st1" width="3.5" height="72"/>
		<rect x="787.8" y="701.2" class="st1" width="3.5" height="58.2"/>
		<polygon class="st1" points="698.5,762.7 704.4,766.2 711.4,766.2 700.2,759.7 		"/>
		<rect x="606.7" y="764.1" class="st1" width="3.5" height="2.1"/>
		<rect x="618.6" y="757" class="st1" width="3.5" height="9.2"/>
		<rect x="630.6" y="764.1" class="st1" width="3.5" height="2.1"/>
		<rect x="589.4" y="670.1" transform="matrix(0.5 -0.866 0.866 0.5 -309.8986 861.5247)" class="st1" width="3.5" height="58.1"/>
		<rect x="583.4" y="673.4" transform="matrix(0.5 -0.866 0.866 0.5 -321.8384 861.4572)" class="st1" width="3.5" height="72"/>
		<rect x="577.5" y="677" transform="matrix(0.5 -0.866 0.866 0.5 -333.7789 861.5082)" class="st1" width="3.5" height="85.7"/>
		<polygon class="st1" points="617.2,753.5 533.3,705.1 533.3,709.1 615.4,756.5 		"/>
		<polygon class="st1" points="605.4,760.5 533.3,718.9 533.3,722.9 603.7,763.5 		"/>
		<polygon class="st1" points="533.3,736.7 584.4,766.2 591.3,766.2 533.3,732.7 		"/>
		<polygon class="st1" points="533.3,750.5 560.5,766.2 567.4,766.2 533.3,746.5 		"/>
		<polygon class="st1" points="536.4,757.8 533.3,759.6 533.3,763.6 538.1,760.8 		"/>
		<polygon class="st1" points="545.8,766.2 549.3,766.2 548.4,764.7 		"/>
		<polygon class="st1" points="754.6,636.6 795.5,612.9 788.6,612.9 752.8,633.5 		"/>
		<polygon class="st1" points="754.6,650.4 800,624.1 800,620.1 752.8,647.3 		"/>
		<polygon class="st1" points="754.6,664.1 800,637.9 800,633.9 752.8,661.1 		"/>
		<polygon class="st1" points="754.6,677.9 800,651.7 800,647.7 752.8,674.9 		"/>
		<polygon class="st1" points="766.3,684.9 800,665.5 800,661.5 764.6,681.9 		"/>
		<polygon class="st1" points="778.2,691.9 800,679.3 800,675.3 776.4,688.9 		"/>
		<polygon class="st1" points="790.2,698.7 800,693.1 800,689.1 788.5,695.7 		"/>
		<rect x="728.1" y="612.9" class="st1" width="3.5" height="0.2"/>
		<rect x="740" y="612.9" class="st1" width="3.5" height="6.9"/>
		<rect x="752" y="612.9" class="st1" width="3.5" height="13.7"/>
		<rect x="763.9" y="612.9" class="st1" width="3.5" height="6.9"/>
		<rect x="775.9" y="612.9" class="st1" width="3.5" height="0.2"/>
		<polygon class="st1" points="750.5,635.5 711.4,612.9 704.4,612.9 748.8,638.6 		"/>
		<rect x="716.7" y="596.8" transform="matrix(0.5 -0.866 0.866 0.5 -188.8194 938.6188)" class="st1" width="3.5" height="72"/>
		<rect x="710.8" y="600.4" transform="matrix(0.5 -0.866 0.866 0.5 -200.7607 938.6683)" class="st1" width="3.5" height="85.7"/>
		<rect x="704.8" y="603.8" transform="matrix(0.5 -0.866 0.866 0.5 -212.7004 938.6926)" class="st1" width="3.5" height="99.4"/>
		<rect x="698.9" y="621" transform="matrix(0.5 -0.866 0.866 0.5 -224.6399 938.7794)" class="st1" width="3.5" height="85.9"/>
		<rect x="692.9" y="638.2" transform="matrix(0.5 -0.866 0.866 0.5 -236.5804 938.7446)" class="st1" width="3.5" height="72.1"/>
		<rect x="686.9" y="655.5" transform="matrix(0.5 -0.866 0.866 0.5 -248.5212 938.6903)" class="st1" width="3.5" height="58.2"/>
		<rect x="616.5" y="695.4" transform="matrix(0.866 -0.5 0.5 0.866 -262.1198 416.1544)" class="st1" width="57.9" height="3.5"/>
		<rect x="615.6" y="705.8" transform="matrix(0.866 -0.5 0.5 0.866 -266.4668 420.5313)" class="st1" width="71.8" height="3.5"/>
		<rect x="614.6" y="716.1" transform="matrix(0.866 -0.5 0.5 0.866 -270.8288 424.9276)" class="st1" width="85.7" height="3.5"/>
		<rect x="613.7" y="726.4" transform="matrix(0.866 -0.5 0.5 0.866 -275.204 429.2792)" class="st1" width="99.4" height="3.5"/>
		<rect x="626.4" y="736.8" transform="matrix(0.866 -0.5 0.5 0.866 -279.6088 433.6299)" class="st1" width="85.9" height="3.5"/>
		<polygon class="st1" points="705.7,729.4 643.1,765.5 643.5,766.2 648.9,766.2 707.4,732.4 		"/>
		<polygon class="st1" points="705.7,743.1 665.8,766.2 672.8,766.2 707.4,746.2 		"/>
		<rect x="582.8" y="624.6" class="st1" width="3.5" height="58.2"/>
		<rect x="594.8" y="617.6" class="st1" width="3.5" height="72.1"/>
		<rect x="606.7" y="612.9" class="st1" width="3.5" height="83.5"/>
		<rect x="618.6" y="612.9" class="st1" width="3.5" height="90.4"/>
		<rect x="630.6" y="612.9" class="st1" width="3.5" height="83.5"/>
		<rect x="642.5" y="617.6" class="st1" width="3.5" height="72.1"/>
		<rect x="654.5" y="624.6" class="st1" width="3.5" height="58.2"/>
		<polygon class="st1" points="593.4,614.2 591.3,612.9 584.4,612.9 591.7,617.2 		"/>
		<polygon class="st1" points="581.4,621 567.4,612.9 560.5,612.9 579.7,624 		"/>
		<polygon class="st1" points="549.3,612.9 545.8,612.9 533.3,620.1 533.3,624.1 550.1,614.4 		"/>
		<polygon class="st1" points="560.4,618.3 533.3,633.9 533.3,637.9 562.1,621.3 		"/>
		<polygon class="st1" points="572.3,625.2 533.3,647.7 533.3,651.7 574,628.2 		"/>
		<polygon class="st1" points="572.4,638.9 533.3,661.5 533.3,665.5 574.1,642 		"/>
		<polygon class="st1" points="572.4,652.7 533.3,675.3 533.3,679.3 574.1,655.8 		"/>
		<polygon class="st1" points="572.4,666.5 533.3,689.1 533.3,693.1 574.1,669.5 		"/>
		<polygon class="st1" points="648.9,612.9 643.5,612.9 644.8,615.3 		"/>
		<polygon class="st1" points="656.9,622.1 672.8,612.9 665.8,612.9 655.2,619.1 		"/>
	</g>
</g>
</svg>
